%TF.GenerationSoftware,KiCad,Pcbnew,7.0.7*%
%TF.CreationDate,2023-11-13T21:50:39-08:00*%
%TF.ProjectId,Final_Project_Transmit,46696e61-6c5f-4507-926f-6a6563745f54,rev?*%
%TF.SameCoordinates,Original*%
%TF.FileFunction,Legend,Top*%
%TF.FilePolarity,Positive*%
%FSLAX46Y46*%
G04 Gerber Fmt 4.6, Leading zero omitted, Abs format (unit mm)*
G04 Created by KiCad (PCBNEW 7.0.7) date 2023-11-13 21:50:39*
%MOMM*%
%LPD*%
G01*
G04 APERTURE LIST*
%ADD10C,0.150000*%
%ADD11C,0.087500*%
%ADD12C,0.062500*%
%ADD13C,0.508000*%
%ADD14C,0.152400*%
%ADD15C,0.120000*%
%ADD16C,0.127000*%
%ADD17C,0.200000*%
G04 APERTURE END LIST*
D10*
X87256459Y-57192775D02*
X87256459Y-57907060D01*
X87256459Y-57907060D02*
X87208840Y-58049917D01*
X87208840Y-58049917D02*
X87113602Y-58145156D01*
X87113602Y-58145156D02*
X86970745Y-58192775D01*
X86970745Y-58192775D02*
X86875507Y-58192775D01*
X87685031Y-57288013D02*
X87732650Y-57240394D01*
X87732650Y-57240394D02*
X87827888Y-57192775D01*
X87827888Y-57192775D02*
X88065983Y-57192775D01*
X88065983Y-57192775D02*
X88161221Y-57240394D01*
X88161221Y-57240394D02*
X88208840Y-57288013D01*
X88208840Y-57288013D02*
X88256459Y-57383251D01*
X88256459Y-57383251D02*
X88256459Y-57478489D01*
X88256459Y-57478489D02*
X88208840Y-57621346D01*
X88208840Y-57621346D02*
X87637412Y-58192775D01*
X87637412Y-58192775D02*
X88256459Y-58192775D01*
D11*
X86050747Y-91303472D02*
X86484080Y-91303472D01*
X86484080Y-91303472D02*
X86250747Y-91570139D01*
X86250747Y-91570139D02*
X86350747Y-91570139D01*
X86350747Y-91570139D02*
X86417413Y-91603472D01*
X86417413Y-91603472D02*
X86450747Y-91636805D01*
X86450747Y-91636805D02*
X86484080Y-91703472D01*
X86484080Y-91703472D02*
X86484080Y-91870139D01*
X86484080Y-91870139D02*
X86450747Y-91936805D01*
X86450747Y-91936805D02*
X86417413Y-91970139D01*
X86417413Y-91970139D02*
X86350747Y-92003472D01*
X86350747Y-92003472D02*
X86150747Y-92003472D01*
X86150747Y-92003472D02*
X86084080Y-91970139D01*
X86084080Y-91970139D02*
X86050747Y-91936805D01*
X86784080Y-91936805D02*
X86817414Y-91970139D01*
X86817414Y-91970139D02*
X86784080Y-92003472D01*
X86784080Y-92003472D02*
X86750747Y-91970139D01*
X86750747Y-91970139D02*
X86784080Y-91936805D01*
X86784080Y-91936805D02*
X86784080Y-92003472D01*
X87050747Y-91303472D02*
X87484080Y-91303472D01*
X87484080Y-91303472D02*
X87250747Y-91570139D01*
X87250747Y-91570139D02*
X87350747Y-91570139D01*
X87350747Y-91570139D02*
X87417413Y-91603472D01*
X87417413Y-91603472D02*
X87450747Y-91636805D01*
X87450747Y-91636805D02*
X87484080Y-91703472D01*
X87484080Y-91703472D02*
X87484080Y-91870139D01*
X87484080Y-91870139D02*
X87450747Y-91936805D01*
X87450747Y-91936805D02*
X87417413Y-91970139D01*
X87417413Y-91970139D02*
X87350747Y-92003472D01*
X87350747Y-92003472D02*
X87150747Y-92003472D01*
X87150747Y-92003472D02*
X87084080Y-91970139D01*
X87084080Y-91970139D02*
X87050747Y-91936805D01*
X87684080Y-91303472D02*
X87917414Y-92003472D01*
X87917414Y-92003472D02*
X88150747Y-91303472D01*
D12*
X116534957Y-82945001D02*
X116511148Y-82968811D01*
X116511148Y-82968811D02*
X116439719Y-82992620D01*
X116439719Y-82992620D02*
X116392100Y-82992620D01*
X116392100Y-82992620D02*
X116320672Y-82968811D01*
X116320672Y-82968811D02*
X116273053Y-82921191D01*
X116273053Y-82921191D02*
X116249243Y-82873572D01*
X116249243Y-82873572D02*
X116225434Y-82778334D01*
X116225434Y-82778334D02*
X116225434Y-82706906D01*
X116225434Y-82706906D02*
X116249243Y-82611668D01*
X116249243Y-82611668D02*
X116273053Y-82564049D01*
X116273053Y-82564049D02*
X116320672Y-82516430D01*
X116320672Y-82516430D02*
X116392100Y-82492620D01*
X116392100Y-82492620D02*
X116439719Y-82492620D01*
X116439719Y-82492620D02*
X116511148Y-82516430D01*
X116511148Y-82516430D02*
X116534957Y-82540239D01*
X116987338Y-82992620D02*
X116749243Y-82992620D01*
X116749243Y-82992620D02*
X116749243Y-82492620D01*
X117154005Y-82992620D02*
X117154005Y-82492620D01*
X117439719Y-82992620D02*
X117225434Y-82706906D01*
X117439719Y-82492620D02*
X117154005Y-82778334D01*
X118011148Y-82468811D02*
X117582577Y-83111668D01*
X118154006Y-82968811D02*
X118225434Y-82992620D01*
X118225434Y-82992620D02*
X118344482Y-82992620D01*
X118344482Y-82992620D02*
X118392101Y-82968811D01*
X118392101Y-82968811D02*
X118415910Y-82945001D01*
X118415910Y-82945001D02*
X118439720Y-82897382D01*
X118439720Y-82897382D02*
X118439720Y-82849763D01*
X118439720Y-82849763D02*
X118415910Y-82802144D01*
X118415910Y-82802144D02*
X118392101Y-82778334D01*
X118392101Y-82778334D02*
X118344482Y-82754525D01*
X118344482Y-82754525D02*
X118249244Y-82730715D01*
X118249244Y-82730715D02*
X118201625Y-82706906D01*
X118201625Y-82706906D02*
X118177815Y-82683096D01*
X118177815Y-82683096D02*
X118154006Y-82635477D01*
X118154006Y-82635477D02*
X118154006Y-82587858D01*
X118154006Y-82587858D02*
X118177815Y-82540239D01*
X118177815Y-82540239D02*
X118201625Y-82516430D01*
X118201625Y-82516430D02*
X118249244Y-82492620D01*
X118249244Y-82492620D02*
X118368291Y-82492620D01*
X118368291Y-82492620D02*
X118439720Y-82516430D01*
X118654005Y-82992620D02*
X118654005Y-82492620D01*
X118654005Y-82492620D02*
X118844481Y-82492620D01*
X118844481Y-82492620D02*
X118892100Y-82516430D01*
X118892100Y-82516430D02*
X118915910Y-82540239D01*
X118915910Y-82540239D02*
X118939719Y-82587858D01*
X118939719Y-82587858D02*
X118939719Y-82659287D01*
X118939719Y-82659287D02*
X118915910Y-82706906D01*
X118915910Y-82706906D02*
X118892100Y-82730715D01*
X118892100Y-82730715D02*
X118844481Y-82754525D01*
X118844481Y-82754525D02*
X118654005Y-82754525D01*
X119154005Y-82992620D02*
X119154005Y-82492620D01*
X119273053Y-83040239D02*
X119654005Y-83040239D01*
X120058766Y-82945001D02*
X120034957Y-82968811D01*
X120034957Y-82968811D02*
X119963528Y-82992620D01*
X119963528Y-82992620D02*
X119915909Y-82992620D01*
X119915909Y-82992620D02*
X119844481Y-82968811D01*
X119844481Y-82968811D02*
X119796862Y-82921191D01*
X119796862Y-82921191D02*
X119773052Y-82873572D01*
X119773052Y-82873572D02*
X119749243Y-82778334D01*
X119749243Y-82778334D02*
X119749243Y-82706906D01*
X119749243Y-82706906D02*
X119773052Y-82611668D01*
X119773052Y-82611668D02*
X119796862Y-82564049D01*
X119796862Y-82564049D02*
X119844481Y-82516430D01*
X119844481Y-82516430D02*
X119915909Y-82492620D01*
X119915909Y-82492620D02*
X119963528Y-82492620D01*
X119963528Y-82492620D02*
X120034957Y-82516430D01*
X120034957Y-82516430D02*
X120058766Y-82540239D01*
X120511147Y-82992620D02*
X120273052Y-82992620D01*
X120273052Y-82992620D02*
X120273052Y-82492620D01*
X120677814Y-82992620D02*
X120677814Y-82492620D01*
X120963528Y-82992620D02*
X120749243Y-82706906D01*
X120963528Y-82492620D02*
X120677814Y-82778334D01*
X118078572Y-77544151D02*
X118150000Y-77567960D01*
X118150000Y-77567960D02*
X118269048Y-77567960D01*
X118269048Y-77567960D02*
X118316667Y-77544151D01*
X118316667Y-77544151D02*
X118340476Y-77520341D01*
X118340476Y-77520341D02*
X118364286Y-77472722D01*
X118364286Y-77472722D02*
X118364286Y-77425103D01*
X118364286Y-77425103D02*
X118340476Y-77377484D01*
X118340476Y-77377484D02*
X118316667Y-77353674D01*
X118316667Y-77353674D02*
X118269048Y-77329865D01*
X118269048Y-77329865D02*
X118173810Y-77306055D01*
X118173810Y-77306055D02*
X118126191Y-77282246D01*
X118126191Y-77282246D02*
X118102381Y-77258436D01*
X118102381Y-77258436D02*
X118078572Y-77210817D01*
X118078572Y-77210817D02*
X118078572Y-77163198D01*
X118078572Y-77163198D02*
X118102381Y-77115579D01*
X118102381Y-77115579D02*
X118126191Y-77091770D01*
X118126191Y-77091770D02*
X118173810Y-77067960D01*
X118173810Y-77067960D02*
X118292857Y-77067960D01*
X118292857Y-77067960D02*
X118364286Y-77091770D01*
X118578571Y-77567960D02*
X118578571Y-77067960D01*
X118578571Y-77067960D02*
X118697619Y-77067960D01*
X118697619Y-77067960D02*
X118769047Y-77091770D01*
X118769047Y-77091770D02*
X118816666Y-77139389D01*
X118816666Y-77139389D02*
X118840476Y-77187008D01*
X118840476Y-77187008D02*
X118864285Y-77282246D01*
X118864285Y-77282246D02*
X118864285Y-77353674D01*
X118864285Y-77353674D02*
X118840476Y-77448912D01*
X118840476Y-77448912D02*
X118816666Y-77496531D01*
X118816666Y-77496531D02*
X118769047Y-77544151D01*
X118769047Y-77544151D02*
X118697619Y-77567960D01*
X118697619Y-77567960D02*
X118578571Y-77567960D01*
X119054762Y-77425103D02*
X119292857Y-77425103D01*
X119007143Y-77567960D02*
X119173809Y-77067960D01*
X119173809Y-77067960D02*
X119340476Y-77567960D01*
X119864285Y-77044151D02*
X119435714Y-77687008D01*
X120007143Y-77544151D02*
X120078571Y-77567960D01*
X120078571Y-77567960D02*
X120197619Y-77567960D01*
X120197619Y-77567960D02*
X120245238Y-77544151D01*
X120245238Y-77544151D02*
X120269047Y-77520341D01*
X120269047Y-77520341D02*
X120292857Y-77472722D01*
X120292857Y-77472722D02*
X120292857Y-77425103D01*
X120292857Y-77425103D02*
X120269047Y-77377484D01*
X120269047Y-77377484D02*
X120245238Y-77353674D01*
X120245238Y-77353674D02*
X120197619Y-77329865D01*
X120197619Y-77329865D02*
X120102381Y-77306055D01*
X120102381Y-77306055D02*
X120054762Y-77282246D01*
X120054762Y-77282246D02*
X120030952Y-77258436D01*
X120030952Y-77258436D02*
X120007143Y-77210817D01*
X120007143Y-77210817D02*
X120007143Y-77163198D01*
X120007143Y-77163198D02*
X120030952Y-77115579D01*
X120030952Y-77115579D02*
X120054762Y-77091770D01*
X120054762Y-77091770D02*
X120102381Y-77067960D01*
X120102381Y-77067960D02*
X120221428Y-77067960D01*
X120221428Y-77067960D02*
X120292857Y-77091770D01*
X120507142Y-77567960D02*
X120507142Y-77067960D01*
X120507142Y-77067960D02*
X120697618Y-77067960D01*
X120697618Y-77067960D02*
X120745237Y-77091770D01*
X120745237Y-77091770D02*
X120769047Y-77115579D01*
X120769047Y-77115579D02*
X120792856Y-77163198D01*
X120792856Y-77163198D02*
X120792856Y-77234627D01*
X120792856Y-77234627D02*
X120769047Y-77282246D01*
X120769047Y-77282246D02*
X120745237Y-77306055D01*
X120745237Y-77306055D02*
X120697618Y-77329865D01*
X120697618Y-77329865D02*
X120507142Y-77329865D01*
X121007142Y-77567960D02*
X121007142Y-77067960D01*
X121126190Y-77615579D02*
X121507142Y-77615579D01*
X121602380Y-77544151D02*
X121673808Y-77567960D01*
X121673808Y-77567960D02*
X121792856Y-77567960D01*
X121792856Y-77567960D02*
X121840475Y-77544151D01*
X121840475Y-77544151D02*
X121864284Y-77520341D01*
X121864284Y-77520341D02*
X121888094Y-77472722D01*
X121888094Y-77472722D02*
X121888094Y-77425103D01*
X121888094Y-77425103D02*
X121864284Y-77377484D01*
X121864284Y-77377484D02*
X121840475Y-77353674D01*
X121840475Y-77353674D02*
X121792856Y-77329865D01*
X121792856Y-77329865D02*
X121697618Y-77306055D01*
X121697618Y-77306055D02*
X121649999Y-77282246D01*
X121649999Y-77282246D02*
X121626189Y-77258436D01*
X121626189Y-77258436D02*
X121602380Y-77210817D01*
X121602380Y-77210817D02*
X121602380Y-77163198D01*
X121602380Y-77163198D02*
X121626189Y-77115579D01*
X121626189Y-77115579D02*
X121649999Y-77091770D01*
X121649999Y-77091770D02*
X121697618Y-77067960D01*
X121697618Y-77067960D02*
X121816665Y-77067960D01*
X121816665Y-77067960D02*
X121888094Y-77091770D01*
X122102379Y-77567960D02*
X122102379Y-77067960D01*
X122340474Y-77567960D02*
X122340474Y-77067960D01*
X122340474Y-77067960D02*
X122507141Y-77425103D01*
X122507141Y-77425103D02*
X122673807Y-77067960D01*
X122673807Y-77067960D02*
X122673807Y-77567960D01*
X123007141Y-77067960D02*
X123102379Y-77067960D01*
X123102379Y-77067960D02*
X123149998Y-77091770D01*
X123149998Y-77091770D02*
X123197617Y-77139389D01*
X123197617Y-77139389D02*
X123221427Y-77234627D01*
X123221427Y-77234627D02*
X123221427Y-77401293D01*
X123221427Y-77401293D02*
X123197617Y-77496531D01*
X123197617Y-77496531D02*
X123149998Y-77544151D01*
X123149998Y-77544151D02*
X123102379Y-77567960D01*
X123102379Y-77567960D02*
X123007141Y-77567960D01*
X123007141Y-77567960D02*
X122959522Y-77544151D01*
X122959522Y-77544151D02*
X122911903Y-77496531D01*
X122911903Y-77496531D02*
X122888094Y-77401293D01*
X122888094Y-77401293D02*
X122888094Y-77234627D01*
X122888094Y-77234627D02*
X122911903Y-77139389D01*
X122911903Y-77139389D02*
X122959522Y-77091770D01*
X122959522Y-77091770D02*
X123007141Y-77067960D01*
X116772034Y-80360957D02*
X116843462Y-80384766D01*
X116843462Y-80384766D02*
X116962510Y-80384766D01*
X116962510Y-80384766D02*
X117010129Y-80360957D01*
X117010129Y-80360957D02*
X117033938Y-80337147D01*
X117033938Y-80337147D02*
X117057748Y-80289528D01*
X117057748Y-80289528D02*
X117057748Y-80241909D01*
X117057748Y-80241909D02*
X117033938Y-80194290D01*
X117033938Y-80194290D02*
X117010129Y-80170480D01*
X117010129Y-80170480D02*
X116962510Y-80146671D01*
X116962510Y-80146671D02*
X116867272Y-80122861D01*
X116867272Y-80122861D02*
X116819653Y-80099052D01*
X116819653Y-80099052D02*
X116795843Y-80075242D01*
X116795843Y-80075242D02*
X116772034Y-80027623D01*
X116772034Y-80027623D02*
X116772034Y-79980004D01*
X116772034Y-79980004D02*
X116795843Y-79932385D01*
X116795843Y-79932385D02*
X116819653Y-79908576D01*
X116819653Y-79908576D02*
X116867272Y-79884766D01*
X116867272Y-79884766D02*
X116986319Y-79884766D01*
X116986319Y-79884766D02*
X117057748Y-79908576D01*
X117557747Y-80337147D02*
X117533938Y-80360957D01*
X117533938Y-80360957D02*
X117462509Y-80384766D01*
X117462509Y-80384766D02*
X117414890Y-80384766D01*
X117414890Y-80384766D02*
X117343462Y-80360957D01*
X117343462Y-80360957D02*
X117295843Y-80313337D01*
X117295843Y-80313337D02*
X117272033Y-80265718D01*
X117272033Y-80265718D02*
X117248224Y-80170480D01*
X117248224Y-80170480D02*
X117248224Y-80099052D01*
X117248224Y-80099052D02*
X117272033Y-80003814D01*
X117272033Y-80003814D02*
X117295843Y-79956195D01*
X117295843Y-79956195D02*
X117343462Y-79908576D01*
X117343462Y-79908576D02*
X117414890Y-79884766D01*
X117414890Y-79884766D02*
X117462509Y-79884766D01*
X117462509Y-79884766D02*
X117533938Y-79908576D01*
X117533938Y-79908576D02*
X117557747Y-79932385D01*
X118010128Y-80384766D02*
X117772033Y-80384766D01*
X117772033Y-80384766D02*
X117772033Y-79884766D01*
X118533938Y-79860957D02*
X118105367Y-80503814D01*
X118676796Y-80360957D02*
X118748224Y-80384766D01*
X118748224Y-80384766D02*
X118867272Y-80384766D01*
X118867272Y-80384766D02*
X118914891Y-80360957D01*
X118914891Y-80360957D02*
X118938700Y-80337147D01*
X118938700Y-80337147D02*
X118962510Y-80289528D01*
X118962510Y-80289528D02*
X118962510Y-80241909D01*
X118962510Y-80241909D02*
X118938700Y-80194290D01*
X118938700Y-80194290D02*
X118914891Y-80170480D01*
X118914891Y-80170480D02*
X118867272Y-80146671D01*
X118867272Y-80146671D02*
X118772034Y-80122861D01*
X118772034Y-80122861D02*
X118724415Y-80099052D01*
X118724415Y-80099052D02*
X118700605Y-80075242D01*
X118700605Y-80075242D02*
X118676796Y-80027623D01*
X118676796Y-80027623D02*
X118676796Y-79980004D01*
X118676796Y-79980004D02*
X118700605Y-79932385D01*
X118700605Y-79932385D02*
X118724415Y-79908576D01*
X118724415Y-79908576D02*
X118772034Y-79884766D01*
X118772034Y-79884766D02*
X118891081Y-79884766D01*
X118891081Y-79884766D02*
X118962510Y-79908576D01*
X119176795Y-80384766D02*
X119176795Y-79884766D01*
X119176795Y-79884766D02*
X119367271Y-79884766D01*
X119367271Y-79884766D02*
X119414890Y-79908576D01*
X119414890Y-79908576D02*
X119438700Y-79932385D01*
X119438700Y-79932385D02*
X119462509Y-79980004D01*
X119462509Y-79980004D02*
X119462509Y-80051433D01*
X119462509Y-80051433D02*
X119438700Y-80099052D01*
X119438700Y-80099052D02*
X119414890Y-80122861D01*
X119414890Y-80122861D02*
X119367271Y-80146671D01*
X119367271Y-80146671D02*
X119176795Y-80146671D01*
X119676795Y-80384766D02*
X119676795Y-79884766D01*
X119795843Y-80432385D02*
X120176795Y-80432385D01*
X120272033Y-80360957D02*
X120343461Y-80384766D01*
X120343461Y-80384766D02*
X120462509Y-80384766D01*
X120462509Y-80384766D02*
X120510128Y-80360957D01*
X120510128Y-80360957D02*
X120533937Y-80337147D01*
X120533937Y-80337147D02*
X120557747Y-80289528D01*
X120557747Y-80289528D02*
X120557747Y-80241909D01*
X120557747Y-80241909D02*
X120533937Y-80194290D01*
X120533937Y-80194290D02*
X120510128Y-80170480D01*
X120510128Y-80170480D02*
X120462509Y-80146671D01*
X120462509Y-80146671D02*
X120367271Y-80122861D01*
X120367271Y-80122861D02*
X120319652Y-80099052D01*
X120319652Y-80099052D02*
X120295842Y-80075242D01*
X120295842Y-80075242D02*
X120272033Y-80027623D01*
X120272033Y-80027623D02*
X120272033Y-79980004D01*
X120272033Y-79980004D02*
X120295842Y-79932385D01*
X120295842Y-79932385D02*
X120319652Y-79908576D01*
X120319652Y-79908576D02*
X120367271Y-79884766D01*
X120367271Y-79884766D02*
X120486318Y-79884766D01*
X120486318Y-79884766D02*
X120557747Y-79908576D01*
X120867270Y-79884766D02*
X120962508Y-79884766D01*
X120962508Y-79884766D02*
X121010127Y-79908576D01*
X121010127Y-79908576D02*
X121057746Y-79956195D01*
X121057746Y-79956195D02*
X121081556Y-80051433D01*
X121081556Y-80051433D02*
X121081556Y-80218099D01*
X121081556Y-80218099D02*
X121057746Y-80313337D01*
X121057746Y-80313337D02*
X121010127Y-80360957D01*
X121010127Y-80360957D02*
X120962508Y-80384766D01*
X120962508Y-80384766D02*
X120867270Y-80384766D01*
X120867270Y-80384766D02*
X120819651Y-80360957D01*
X120819651Y-80360957D02*
X120772032Y-80313337D01*
X120772032Y-80313337D02*
X120748223Y-80218099D01*
X120748223Y-80218099D02*
X120748223Y-80051433D01*
X120748223Y-80051433D02*
X120772032Y-79956195D01*
X120772032Y-79956195D02*
X120819651Y-79908576D01*
X120819651Y-79908576D02*
X120867270Y-79884766D01*
X121295842Y-80384766D02*
X121295842Y-79884766D01*
X121295842Y-79884766D02*
X121462509Y-80241909D01*
X121462509Y-80241909D02*
X121629175Y-79884766D01*
X121629175Y-79884766D02*
X121629175Y-80384766D01*
X121867271Y-80384766D02*
X121867271Y-79884766D01*
X122462509Y-79860957D02*
X122033938Y-80503814D01*
X122605367Y-80360957D02*
X122676795Y-80384766D01*
X122676795Y-80384766D02*
X122795843Y-80384766D01*
X122795843Y-80384766D02*
X122843462Y-80360957D01*
X122843462Y-80360957D02*
X122867271Y-80337147D01*
X122867271Y-80337147D02*
X122891081Y-80289528D01*
X122891081Y-80289528D02*
X122891081Y-80241909D01*
X122891081Y-80241909D02*
X122867271Y-80194290D01*
X122867271Y-80194290D02*
X122843462Y-80170480D01*
X122843462Y-80170480D02*
X122795843Y-80146671D01*
X122795843Y-80146671D02*
X122700605Y-80122861D01*
X122700605Y-80122861D02*
X122652986Y-80099052D01*
X122652986Y-80099052D02*
X122629176Y-80075242D01*
X122629176Y-80075242D02*
X122605367Y-80027623D01*
X122605367Y-80027623D02*
X122605367Y-79980004D01*
X122605367Y-79980004D02*
X122629176Y-79932385D01*
X122629176Y-79932385D02*
X122652986Y-79908576D01*
X122652986Y-79908576D02*
X122700605Y-79884766D01*
X122700605Y-79884766D02*
X122819652Y-79884766D01*
X122819652Y-79884766D02*
X122891081Y-79908576D01*
X123105366Y-80384766D02*
X123105366Y-79884766D01*
X123105366Y-79884766D02*
X123224414Y-79884766D01*
X123224414Y-79884766D02*
X123295842Y-79908576D01*
X123295842Y-79908576D02*
X123343461Y-79956195D01*
X123343461Y-79956195D02*
X123367271Y-80003814D01*
X123367271Y-80003814D02*
X123391080Y-80099052D01*
X123391080Y-80099052D02*
X123391080Y-80170480D01*
X123391080Y-80170480D02*
X123367271Y-80265718D01*
X123367271Y-80265718D02*
X123343461Y-80313337D01*
X123343461Y-80313337D02*
X123295842Y-80360957D01*
X123295842Y-80360957D02*
X123224414Y-80384766D01*
X123224414Y-80384766D02*
X123105366Y-80384766D01*
X123700604Y-79884766D02*
X123795842Y-79884766D01*
X123795842Y-79884766D02*
X123843461Y-79908576D01*
X123843461Y-79908576D02*
X123891080Y-79956195D01*
X123891080Y-79956195D02*
X123914890Y-80051433D01*
X123914890Y-80051433D02*
X123914890Y-80218099D01*
X123914890Y-80218099D02*
X123891080Y-80313337D01*
X123891080Y-80313337D02*
X123843461Y-80360957D01*
X123843461Y-80360957D02*
X123795842Y-80384766D01*
X123795842Y-80384766D02*
X123700604Y-80384766D01*
X123700604Y-80384766D02*
X123652985Y-80360957D01*
X123652985Y-80360957D02*
X123605366Y-80313337D01*
X123605366Y-80313337D02*
X123581557Y-80218099D01*
X123581557Y-80218099D02*
X123581557Y-80051433D01*
X123581557Y-80051433D02*
X123605366Y-79956195D01*
X123605366Y-79956195D02*
X123652985Y-79908576D01*
X123652985Y-79908576D02*
X123700604Y-79884766D01*
D10*
X96081929Y-64728917D02*
X96415262Y-65728917D01*
X96415262Y-65728917D02*
X96748595Y-64728917D01*
X97653357Y-65633678D02*
X97605738Y-65681298D01*
X97605738Y-65681298D02*
X97462881Y-65728917D01*
X97462881Y-65728917D02*
X97367643Y-65728917D01*
X97367643Y-65728917D02*
X97224786Y-65681298D01*
X97224786Y-65681298D02*
X97129548Y-65586059D01*
X97129548Y-65586059D02*
X97081929Y-65490821D01*
X97081929Y-65490821D02*
X97034310Y-65300345D01*
X97034310Y-65300345D02*
X97034310Y-65157488D01*
X97034310Y-65157488D02*
X97081929Y-64967012D01*
X97081929Y-64967012D02*
X97129548Y-64871774D01*
X97129548Y-64871774D02*
X97224786Y-64776536D01*
X97224786Y-64776536D02*
X97367643Y-64728917D01*
X97367643Y-64728917D02*
X97462881Y-64728917D01*
X97462881Y-64728917D02*
X97605738Y-64776536D01*
X97605738Y-64776536D02*
X97653357Y-64824155D01*
X98653357Y-65633678D02*
X98605738Y-65681298D01*
X98605738Y-65681298D02*
X98462881Y-65728917D01*
X98462881Y-65728917D02*
X98367643Y-65728917D01*
X98367643Y-65728917D02*
X98224786Y-65681298D01*
X98224786Y-65681298D02*
X98129548Y-65586059D01*
X98129548Y-65586059D02*
X98081929Y-65490821D01*
X98081929Y-65490821D02*
X98034310Y-65300345D01*
X98034310Y-65300345D02*
X98034310Y-65157488D01*
X98034310Y-65157488D02*
X98081929Y-64967012D01*
X98081929Y-64967012D02*
X98129548Y-64871774D01*
X98129548Y-64871774D02*
X98224786Y-64776536D01*
X98224786Y-64776536D02*
X98367643Y-64728917D01*
X98367643Y-64728917D02*
X98462881Y-64728917D01*
X98462881Y-64728917D02*
X98605738Y-64776536D01*
X98605738Y-64776536D02*
X98653357Y-64824155D01*
D12*
X115249279Y-85741366D02*
X115320707Y-85765175D01*
X115320707Y-85765175D02*
X115439755Y-85765175D01*
X115439755Y-85765175D02*
X115487374Y-85741366D01*
X115487374Y-85741366D02*
X115511183Y-85717556D01*
X115511183Y-85717556D02*
X115534993Y-85669937D01*
X115534993Y-85669937D02*
X115534993Y-85622318D01*
X115534993Y-85622318D02*
X115511183Y-85574699D01*
X115511183Y-85574699D02*
X115487374Y-85550889D01*
X115487374Y-85550889D02*
X115439755Y-85527080D01*
X115439755Y-85527080D02*
X115344517Y-85503270D01*
X115344517Y-85503270D02*
X115296898Y-85479461D01*
X115296898Y-85479461D02*
X115273088Y-85455651D01*
X115273088Y-85455651D02*
X115249279Y-85408032D01*
X115249279Y-85408032D02*
X115249279Y-85360413D01*
X115249279Y-85360413D02*
X115273088Y-85312794D01*
X115273088Y-85312794D02*
X115296898Y-85288985D01*
X115296898Y-85288985D02*
X115344517Y-85265175D01*
X115344517Y-85265175D02*
X115463564Y-85265175D01*
X115463564Y-85265175D02*
X115534993Y-85288985D01*
X115677850Y-85265175D02*
X115963564Y-85265175D01*
X115820707Y-85765175D02*
X115820707Y-85265175D01*
X116130230Y-85503270D02*
X116296897Y-85503270D01*
X116368325Y-85765175D02*
X116130230Y-85765175D01*
X116130230Y-85765175D02*
X116130230Y-85265175D01*
X116130230Y-85265175D02*
X116368325Y-85265175D01*
D10*
X109163991Y-58346232D02*
X108830658Y-57870041D01*
X108592563Y-58346232D02*
X108592563Y-57346232D01*
X108592563Y-57346232D02*
X108973515Y-57346232D01*
X108973515Y-57346232D02*
X109068753Y-57393851D01*
X109068753Y-57393851D02*
X109116372Y-57441470D01*
X109116372Y-57441470D02*
X109163991Y-57536708D01*
X109163991Y-57536708D02*
X109163991Y-57679565D01*
X109163991Y-57679565D02*
X109116372Y-57774803D01*
X109116372Y-57774803D02*
X109068753Y-57822422D01*
X109068753Y-57822422D02*
X108973515Y-57870041D01*
X108973515Y-57870041D02*
X108592563Y-57870041D01*
X110021134Y-57679565D02*
X110021134Y-58346232D01*
X109783039Y-57298613D02*
X109544944Y-58012898D01*
X109544944Y-58012898D02*
X110163991Y-58012898D01*
X80415430Y-80475391D02*
X80082097Y-79999200D01*
X79844002Y-80475391D02*
X79844002Y-79475391D01*
X79844002Y-79475391D02*
X80224954Y-79475391D01*
X80224954Y-79475391D02*
X80320192Y-79523010D01*
X80320192Y-79523010D02*
X80367811Y-79570629D01*
X80367811Y-79570629D02*
X80415430Y-79665867D01*
X80415430Y-79665867D02*
X80415430Y-79808724D01*
X80415430Y-79808724D02*
X80367811Y-79903962D01*
X80367811Y-79903962D02*
X80320192Y-79951581D01*
X80320192Y-79951581D02*
X80224954Y-79999200D01*
X80224954Y-79999200D02*
X79844002Y-79999200D01*
X80796383Y-79570629D02*
X80844002Y-79523010D01*
X80844002Y-79523010D02*
X80939240Y-79475391D01*
X80939240Y-79475391D02*
X81177335Y-79475391D01*
X81177335Y-79475391D02*
X81272573Y-79523010D01*
X81272573Y-79523010D02*
X81320192Y-79570629D01*
X81320192Y-79570629D02*
X81367811Y-79665867D01*
X81367811Y-79665867D02*
X81367811Y-79761105D01*
X81367811Y-79761105D02*
X81320192Y-79903962D01*
X81320192Y-79903962D02*
X80748764Y-80475391D01*
X80748764Y-80475391D02*
X81367811Y-80475391D01*
X87463333Y-74114819D02*
X87130000Y-73638628D01*
X86891905Y-74114819D02*
X86891905Y-73114819D01*
X86891905Y-73114819D02*
X87272857Y-73114819D01*
X87272857Y-73114819D02*
X87368095Y-73162438D01*
X87368095Y-73162438D02*
X87415714Y-73210057D01*
X87415714Y-73210057D02*
X87463333Y-73305295D01*
X87463333Y-73305295D02*
X87463333Y-73448152D01*
X87463333Y-73448152D02*
X87415714Y-73543390D01*
X87415714Y-73543390D02*
X87368095Y-73591009D01*
X87368095Y-73591009D02*
X87272857Y-73638628D01*
X87272857Y-73638628D02*
X86891905Y-73638628D01*
X88415714Y-74114819D02*
X87844286Y-74114819D01*
X88130000Y-74114819D02*
X88130000Y-73114819D01*
X88130000Y-73114819D02*
X88034762Y-73257676D01*
X88034762Y-73257676D02*
X87939524Y-73352914D01*
X87939524Y-73352914D02*
X87844286Y-73400533D01*
D11*
X83563410Y-88045555D02*
X83163410Y-88045555D01*
X83363410Y-88045555D02*
X83363410Y-87345555D01*
X83363410Y-87345555D02*
X83296743Y-87445555D01*
X83296743Y-87445555D02*
X83230077Y-87512222D01*
X83230077Y-87512222D02*
X83163410Y-87545555D01*
X83863410Y-87978888D02*
X83896744Y-88012222D01*
X83896744Y-88012222D02*
X83863410Y-88045555D01*
X83863410Y-88045555D02*
X83830077Y-88012222D01*
X83830077Y-88012222D02*
X83863410Y-87978888D01*
X83863410Y-87978888D02*
X83863410Y-88045555D01*
X84530077Y-87345555D02*
X84196743Y-87345555D01*
X84196743Y-87345555D02*
X84163410Y-87678888D01*
X84163410Y-87678888D02*
X84196743Y-87645555D01*
X84196743Y-87645555D02*
X84263410Y-87612222D01*
X84263410Y-87612222D02*
X84430077Y-87612222D01*
X84430077Y-87612222D02*
X84496743Y-87645555D01*
X84496743Y-87645555D02*
X84530077Y-87678888D01*
X84530077Y-87678888D02*
X84563410Y-87745555D01*
X84563410Y-87745555D02*
X84563410Y-87912222D01*
X84563410Y-87912222D02*
X84530077Y-87978888D01*
X84530077Y-87978888D02*
X84496743Y-88012222D01*
X84496743Y-88012222D02*
X84430077Y-88045555D01*
X84430077Y-88045555D02*
X84263410Y-88045555D01*
X84263410Y-88045555D02*
X84196743Y-88012222D01*
X84196743Y-88012222D02*
X84163410Y-87978888D01*
X84763410Y-87345555D02*
X84996744Y-88045555D01*
X84996744Y-88045555D02*
X85230077Y-87345555D01*
D10*
X105642809Y-70056206D02*
X105309476Y-69580015D01*
X105071381Y-70056206D02*
X105071381Y-69056206D01*
X105071381Y-69056206D02*
X105452333Y-69056206D01*
X105452333Y-69056206D02*
X105547571Y-69103825D01*
X105547571Y-69103825D02*
X105595190Y-69151444D01*
X105595190Y-69151444D02*
X105642809Y-69246682D01*
X105642809Y-69246682D02*
X105642809Y-69389539D01*
X105642809Y-69389539D02*
X105595190Y-69484777D01*
X105595190Y-69484777D02*
X105547571Y-69532396D01*
X105547571Y-69532396D02*
X105452333Y-69580015D01*
X105452333Y-69580015D02*
X105071381Y-69580015D01*
X105976143Y-69056206D02*
X106595190Y-69056206D01*
X106595190Y-69056206D02*
X106261857Y-69437158D01*
X106261857Y-69437158D02*
X106404714Y-69437158D01*
X106404714Y-69437158D02*
X106499952Y-69484777D01*
X106499952Y-69484777D02*
X106547571Y-69532396D01*
X106547571Y-69532396D02*
X106595190Y-69627634D01*
X106595190Y-69627634D02*
X106595190Y-69865729D01*
X106595190Y-69865729D02*
X106547571Y-69960967D01*
X106547571Y-69960967D02*
X106499952Y-70008587D01*
X106499952Y-70008587D02*
X106404714Y-70056206D01*
X106404714Y-70056206D02*
X106119000Y-70056206D01*
X106119000Y-70056206D02*
X106023762Y-70008587D01*
X106023762Y-70008587D02*
X105976143Y-69960967D01*
X91561247Y-75577200D02*
X91513628Y-75624820D01*
X91513628Y-75624820D02*
X91370771Y-75672439D01*
X91370771Y-75672439D02*
X91275533Y-75672439D01*
X91275533Y-75672439D02*
X91132676Y-75624820D01*
X91132676Y-75624820D02*
X91037438Y-75529581D01*
X91037438Y-75529581D02*
X90989819Y-75434343D01*
X90989819Y-75434343D02*
X90942200Y-75243867D01*
X90942200Y-75243867D02*
X90942200Y-75101010D01*
X90942200Y-75101010D02*
X90989819Y-74910534D01*
X90989819Y-74910534D02*
X91037438Y-74815296D01*
X91037438Y-74815296D02*
X91132676Y-74720058D01*
X91132676Y-74720058D02*
X91275533Y-74672439D01*
X91275533Y-74672439D02*
X91370771Y-74672439D01*
X91370771Y-74672439D02*
X91513628Y-74720058D01*
X91513628Y-74720058D02*
X91561247Y-74767677D01*
X92418390Y-74672439D02*
X92227914Y-74672439D01*
X92227914Y-74672439D02*
X92132676Y-74720058D01*
X92132676Y-74720058D02*
X92085057Y-74767677D01*
X92085057Y-74767677D02*
X91989819Y-74910534D01*
X91989819Y-74910534D02*
X91942200Y-75101010D01*
X91942200Y-75101010D02*
X91942200Y-75481962D01*
X91942200Y-75481962D02*
X91989819Y-75577200D01*
X91989819Y-75577200D02*
X92037438Y-75624820D01*
X92037438Y-75624820D02*
X92132676Y-75672439D01*
X92132676Y-75672439D02*
X92323152Y-75672439D01*
X92323152Y-75672439D02*
X92418390Y-75624820D01*
X92418390Y-75624820D02*
X92466009Y-75577200D01*
X92466009Y-75577200D02*
X92513628Y-75481962D01*
X92513628Y-75481962D02*
X92513628Y-75243867D01*
X92513628Y-75243867D02*
X92466009Y-75148629D01*
X92466009Y-75148629D02*
X92418390Y-75101010D01*
X92418390Y-75101010D02*
X92323152Y-75053391D01*
X92323152Y-75053391D02*
X92132676Y-75053391D01*
X92132676Y-75053391D02*
X92037438Y-75101010D01*
X92037438Y-75101010D02*
X91989819Y-75148629D01*
X91989819Y-75148629D02*
X91942200Y-75243867D01*
X91499325Y-82549445D02*
X91451706Y-82597065D01*
X91451706Y-82597065D02*
X91308849Y-82644684D01*
X91308849Y-82644684D02*
X91213611Y-82644684D01*
X91213611Y-82644684D02*
X91070754Y-82597065D01*
X91070754Y-82597065D02*
X90975516Y-82501826D01*
X90975516Y-82501826D02*
X90927897Y-82406588D01*
X90927897Y-82406588D02*
X90880278Y-82216112D01*
X90880278Y-82216112D02*
X90880278Y-82073255D01*
X90880278Y-82073255D02*
X90927897Y-81882779D01*
X90927897Y-81882779D02*
X90975516Y-81787541D01*
X90975516Y-81787541D02*
X91070754Y-81692303D01*
X91070754Y-81692303D02*
X91213611Y-81644684D01*
X91213611Y-81644684D02*
X91308849Y-81644684D01*
X91308849Y-81644684D02*
X91451706Y-81692303D01*
X91451706Y-81692303D02*
X91499325Y-81739922D01*
X92070754Y-82073255D02*
X91975516Y-82025636D01*
X91975516Y-82025636D02*
X91927897Y-81978017D01*
X91927897Y-81978017D02*
X91880278Y-81882779D01*
X91880278Y-81882779D02*
X91880278Y-81835160D01*
X91880278Y-81835160D02*
X91927897Y-81739922D01*
X91927897Y-81739922D02*
X91975516Y-81692303D01*
X91975516Y-81692303D02*
X92070754Y-81644684D01*
X92070754Y-81644684D02*
X92261230Y-81644684D01*
X92261230Y-81644684D02*
X92356468Y-81692303D01*
X92356468Y-81692303D02*
X92404087Y-81739922D01*
X92404087Y-81739922D02*
X92451706Y-81835160D01*
X92451706Y-81835160D02*
X92451706Y-81882779D01*
X92451706Y-81882779D02*
X92404087Y-81978017D01*
X92404087Y-81978017D02*
X92356468Y-82025636D01*
X92356468Y-82025636D02*
X92261230Y-82073255D01*
X92261230Y-82073255D02*
X92070754Y-82073255D01*
X92070754Y-82073255D02*
X91975516Y-82120874D01*
X91975516Y-82120874D02*
X91927897Y-82168493D01*
X91927897Y-82168493D02*
X91880278Y-82263731D01*
X91880278Y-82263731D02*
X91880278Y-82454207D01*
X91880278Y-82454207D02*
X91927897Y-82549445D01*
X91927897Y-82549445D02*
X91975516Y-82597065D01*
X91975516Y-82597065D02*
X92070754Y-82644684D01*
X92070754Y-82644684D02*
X92261230Y-82644684D01*
X92261230Y-82644684D02*
X92356468Y-82597065D01*
X92356468Y-82597065D02*
X92404087Y-82549445D01*
X92404087Y-82549445D02*
X92451706Y-82454207D01*
X92451706Y-82454207D02*
X92451706Y-82263731D01*
X92451706Y-82263731D02*
X92404087Y-82168493D01*
X92404087Y-82168493D02*
X92356468Y-82120874D01*
X92356468Y-82120874D02*
X92261230Y-82073255D01*
X117490015Y-74844355D02*
X117442396Y-74891975D01*
X117442396Y-74891975D02*
X117299539Y-74939594D01*
X117299539Y-74939594D02*
X117204301Y-74939594D01*
X117204301Y-74939594D02*
X117061444Y-74891975D01*
X117061444Y-74891975D02*
X116966206Y-74796736D01*
X116966206Y-74796736D02*
X116918587Y-74701498D01*
X116918587Y-74701498D02*
X116870968Y-74511022D01*
X116870968Y-74511022D02*
X116870968Y-74368165D01*
X116870968Y-74368165D02*
X116918587Y-74177689D01*
X116918587Y-74177689D02*
X116966206Y-74082451D01*
X116966206Y-74082451D02*
X117061444Y-73987213D01*
X117061444Y-73987213D02*
X117204301Y-73939594D01*
X117204301Y-73939594D02*
X117299539Y-73939594D01*
X117299539Y-73939594D02*
X117442396Y-73987213D01*
X117442396Y-73987213D02*
X117490015Y-74034832D01*
X118442396Y-74939594D02*
X117870968Y-74939594D01*
X118156682Y-74939594D02*
X118156682Y-73939594D01*
X118156682Y-73939594D02*
X118061444Y-74082451D01*
X118061444Y-74082451D02*
X117966206Y-74177689D01*
X117966206Y-74177689D02*
X117870968Y-74225308D01*
X119394777Y-74939594D02*
X118823349Y-74939594D01*
X119109063Y-74939594D02*
X119109063Y-73939594D01*
X119109063Y-73939594D02*
X119013825Y-74082451D01*
X119013825Y-74082451D02*
X118918587Y-74177689D01*
X118918587Y-74177689D02*
X118823349Y-74225308D01*
X110680215Y-73829890D02*
X110680215Y-74544175D01*
X110680215Y-74544175D02*
X110632596Y-74687032D01*
X110632596Y-74687032D02*
X110537358Y-74782271D01*
X110537358Y-74782271D02*
X110394501Y-74829890D01*
X110394501Y-74829890D02*
X110299263Y-74829890D01*
X111156406Y-74829890D02*
X111156406Y-73829890D01*
X111156406Y-73829890D02*
X111537358Y-73829890D01*
X111537358Y-73829890D02*
X111632596Y-73877509D01*
X111632596Y-73877509D02*
X111680215Y-73925128D01*
X111680215Y-73925128D02*
X111727834Y-74020366D01*
X111727834Y-74020366D02*
X111727834Y-74163223D01*
X111727834Y-74163223D02*
X111680215Y-74258461D01*
X111680215Y-74258461D02*
X111632596Y-74306080D01*
X111632596Y-74306080D02*
X111537358Y-74353699D01*
X111537358Y-74353699D02*
X111156406Y-74353699D01*
X112204025Y-74829890D02*
X112394501Y-74829890D01*
X112394501Y-74829890D02*
X112489739Y-74782271D01*
X112489739Y-74782271D02*
X112537358Y-74734651D01*
X112537358Y-74734651D02*
X112632596Y-74591794D01*
X112632596Y-74591794D02*
X112680215Y-74401318D01*
X112680215Y-74401318D02*
X112680215Y-74020366D01*
X112680215Y-74020366D02*
X112632596Y-73925128D01*
X112632596Y-73925128D02*
X112584977Y-73877509D01*
X112584977Y-73877509D02*
X112489739Y-73829890D01*
X112489739Y-73829890D02*
X112299263Y-73829890D01*
X112299263Y-73829890D02*
X112204025Y-73877509D01*
X112204025Y-73877509D02*
X112156406Y-73925128D01*
X112156406Y-73925128D02*
X112108787Y-74020366D01*
X112108787Y-74020366D02*
X112108787Y-74258461D01*
X112108787Y-74258461D02*
X112156406Y-74353699D01*
X112156406Y-74353699D02*
X112204025Y-74401318D01*
X112204025Y-74401318D02*
X112299263Y-74448937D01*
X112299263Y-74448937D02*
X112489739Y-74448937D01*
X112489739Y-74448937D02*
X112584977Y-74401318D01*
X112584977Y-74401318D02*
X112632596Y-74353699D01*
X112632596Y-74353699D02*
X112680215Y-74258461D01*
X91102193Y-55751772D02*
X91506254Y-56155833D01*
X91506254Y-56155833D02*
X91560129Y-56263583D01*
X91560129Y-56263583D02*
X91560129Y-56371332D01*
X91560129Y-56371332D02*
X91506254Y-56479082D01*
X91506254Y-56479082D02*
X91452379Y-56532957D01*
X91290755Y-55563210D02*
X91614004Y-55239961D01*
X92018065Y-55967271D02*
X91452379Y-55401586D01*
X92179689Y-55482398D02*
X92449063Y-55213024D01*
X92287439Y-55697897D02*
X91910315Y-54943650D01*
X91910315Y-54943650D02*
X92664562Y-55320773D01*
X92610687Y-54297152D02*
X92529875Y-54324090D01*
X92529875Y-54324090D02*
X92449063Y-54404902D01*
X92449063Y-54404902D02*
X92395188Y-54512652D01*
X92395188Y-54512652D02*
X92395188Y-54620401D01*
X92395188Y-54620401D02*
X92422126Y-54701213D01*
X92422126Y-54701213D02*
X92502938Y-54835900D01*
X92502938Y-54835900D02*
X92583750Y-54916713D01*
X92583750Y-54916713D02*
X92718437Y-54997525D01*
X92718437Y-54997525D02*
X92799249Y-55024462D01*
X92799249Y-55024462D02*
X92906999Y-55024462D01*
X92906999Y-55024462D02*
X93014748Y-54970587D01*
X93014748Y-54970587D02*
X93068623Y-54916713D01*
X93068623Y-54916713D02*
X93122498Y-54808963D01*
X93122498Y-54808963D02*
X93122498Y-54755088D01*
X93122498Y-54755088D02*
X92933936Y-54566526D01*
X92933936Y-54566526D02*
X92826187Y-54674276D01*
X93715121Y-54270215D02*
X93391872Y-54593464D01*
X93553497Y-54431839D02*
X92987811Y-53866154D01*
X92987811Y-53866154D02*
X93014748Y-54000841D01*
X93014748Y-54000841D02*
X93014748Y-54108591D01*
X93014748Y-54108591D02*
X92987811Y-54189403D01*
X93499622Y-53354343D02*
X93553497Y-53300468D01*
X93553497Y-53300468D02*
X93634309Y-53273531D01*
X93634309Y-53273531D02*
X93688184Y-53273531D01*
X93688184Y-53273531D02*
X93768996Y-53300468D01*
X93768996Y-53300468D02*
X93903683Y-53381281D01*
X93903683Y-53381281D02*
X94038370Y-53515968D01*
X94038370Y-53515968D02*
X94119182Y-53650655D01*
X94119182Y-53650655D02*
X94146120Y-53731467D01*
X94146120Y-53731467D02*
X94146120Y-53785342D01*
X94146120Y-53785342D02*
X94119182Y-53866154D01*
X94119182Y-53866154D02*
X94065307Y-53920029D01*
X94065307Y-53920029D02*
X93984495Y-53946966D01*
X93984495Y-53946966D02*
X93930620Y-53946966D01*
X93930620Y-53946966D02*
X93849808Y-53920029D01*
X93849808Y-53920029D02*
X93715121Y-53839216D01*
X93715121Y-53839216D02*
X93580434Y-53704529D01*
X93580434Y-53704529D02*
X93499622Y-53569842D01*
X93499622Y-53569842D02*
X93472684Y-53489030D01*
X93472684Y-53489030D02*
X93472684Y-53435155D01*
X93472684Y-53435155D02*
X93499622Y-53354343D01*
X109208123Y-68813942D02*
X109112885Y-68766323D01*
X109112885Y-68766323D02*
X109017647Y-68671085D01*
X109017647Y-68671085D02*
X108874790Y-68528227D01*
X108874790Y-68528227D02*
X108779552Y-68480608D01*
X108779552Y-68480608D02*
X108684314Y-68480608D01*
X108731933Y-68718704D02*
X108636695Y-68671085D01*
X108636695Y-68671085D02*
X108541457Y-68575846D01*
X108541457Y-68575846D02*
X108493838Y-68385370D01*
X108493838Y-68385370D02*
X108493838Y-68052037D01*
X108493838Y-68052037D02*
X108541457Y-67861561D01*
X108541457Y-67861561D02*
X108636695Y-67766323D01*
X108636695Y-67766323D02*
X108731933Y-67718704D01*
X108731933Y-67718704D02*
X108922409Y-67718704D01*
X108922409Y-67718704D02*
X109017647Y-67766323D01*
X109017647Y-67766323D02*
X109112885Y-67861561D01*
X109112885Y-67861561D02*
X109160504Y-68052037D01*
X109160504Y-68052037D02*
X109160504Y-68385370D01*
X109160504Y-68385370D02*
X109112885Y-68575846D01*
X109112885Y-68575846D02*
X109017647Y-68671085D01*
X109017647Y-68671085D02*
X108922409Y-68718704D01*
X108922409Y-68718704D02*
X108731933Y-68718704D01*
X109493838Y-67718704D02*
X110112885Y-67718704D01*
X110112885Y-67718704D02*
X109779552Y-68099656D01*
X109779552Y-68099656D02*
X109922409Y-68099656D01*
X109922409Y-68099656D02*
X110017647Y-68147275D01*
X110017647Y-68147275D02*
X110065266Y-68194894D01*
X110065266Y-68194894D02*
X110112885Y-68290132D01*
X110112885Y-68290132D02*
X110112885Y-68528227D01*
X110112885Y-68528227D02*
X110065266Y-68623465D01*
X110065266Y-68623465D02*
X110017647Y-68671085D01*
X110017647Y-68671085D02*
X109922409Y-68718704D01*
X109922409Y-68718704D02*
X109636695Y-68718704D01*
X109636695Y-68718704D02*
X109541457Y-68671085D01*
X109541457Y-68671085D02*
X109493838Y-68623465D01*
X112393551Y-83929092D02*
X112345932Y-83976712D01*
X112345932Y-83976712D02*
X112203075Y-84024331D01*
X112203075Y-84024331D02*
X112107837Y-84024331D01*
X112107837Y-84024331D02*
X111964980Y-83976712D01*
X111964980Y-83976712D02*
X111869742Y-83881473D01*
X111869742Y-83881473D02*
X111822123Y-83786235D01*
X111822123Y-83786235D02*
X111774504Y-83595759D01*
X111774504Y-83595759D02*
X111774504Y-83452902D01*
X111774504Y-83452902D02*
X111822123Y-83262426D01*
X111822123Y-83262426D02*
X111869742Y-83167188D01*
X111869742Y-83167188D02*
X111964980Y-83071950D01*
X111964980Y-83071950D02*
X112107837Y-83024331D01*
X112107837Y-83024331D02*
X112203075Y-83024331D01*
X112203075Y-83024331D02*
X112345932Y-83071950D01*
X112345932Y-83071950D02*
X112393551Y-83119569D01*
X113345932Y-84024331D02*
X112774504Y-84024331D01*
X113060218Y-84024331D02*
X113060218Y-83024331D01*
X113060218Y-83024331D02*
X112964980Y-83167188D01*
X112964980Y-83167188D02*
X112869742Y-83262426D01*
X112869742Y-83262426D02*
X112774504Y-83310045D01*
X91535720Y-79965426D02*
X91488101Y-80013046D01*
X91488101Y-80013046D02*
X91345244Y-80060665D01*
X91345244Y-80060665D02*
X91250006Y-80060665D01*
X91250006Y-80060665D02*
X91107149Y-80013046D01*
X91107149Y-80013046D02*
X91011911Y-79917807D01*
X91011911Y-79917807D02*
X90964292Y-79822569D01*
X90964292Y-79822569D02*
X90916673Y-79632093D01*
X90916673Y-79632093D02*
X90916673Y-79489236D01*
X90916673Y-79489236D02*
X90964292Y-79298760D01*
X90964292Y-79298760D02*
X91011911Y-79203522D01*
X91011911Y-79203522D02*
X91107149Y-79108284D01*
X91107149Y-79108284D02*
X91250006Y-79060665D01*
X91250006Y-79060665D02*
X91345244Y-79060665D01*
X91345244Y-79060665D02*
X91488101Y-79108284D01*
X91488101Y-79108284D02*
X91535720Y-79155903D01*
X92440482Y-79060665D02*
X91964292Y-79060665D01*
X91964292Y-79060665D02*
X91916673Y-79536855D01*
X91916673Y-79536855D02*
X91964292Y-79489236D01*
X91964292Y-79489236D02*
X92059530Y-79441617D01*
X92059530Y-79441617D02*
X92297625Y-79441617D01*
X92297625Y-79441617D02*
X92392863Y-79489236D01*
X92392863Y-79489236D02*
X92440482Y-79536855D01*
X92440482Y-79536855D02*
X92488101Y-79632093D01*
X92488101Y-79632093D02*
X92488101Y-79870188D01*
X92488101Y-79870188D02*
X92440482Y-79965426D01*
X92440482Y-79965426D02*
X92392863Y-80013046D01*
X92392863Y-80013046D02*
X92297625Y-80060665D01*
X92297625Y-80060665D02*
X92059530Y-80060665D01*
X92059530Y-80060665D02*
X91964292Y-80013046D01*
X91964292Y-80013046D02*
X91916673Y-79965426D01*
X84789420Y-81586280D02*
X84789420Y-82300565D01*
X84789420Y-82300565D02*
X84741801Y-82443422D01*
X84741801Y-82443422D02*
X84646563Y-82538661D01*
X84646563Y-82538661D02*
X84503706Y-82586280D01*
X84503706Y-82586280D02*
X84408468Y-82586280D01*
X85265611Y-82586280D02*
X85265611Y-81586280D01*
X85265611Y-81586280D02*
X85646563Y-81586280D01*
X85646563Y-81586280D02*
X85741801Y-81633899D01*
X85741801Y-81633899D02*
X85789420Y-81681518D01*
X85789420Y-81681518D02*
X85837039Y-81776756D01*
X85837039Y-81776756D02*
X85837039Y-81919613D01*
X85837039Y-81919613D02*
X85789420Y-82014851D01*
X85789420Y-82014851D02*
X85741801Y-82062470D01*
X85741801Y-82062470D02*
X85646563Y-82110089D01*
X85646563Y-82110089D02*
X85265611Y-82110089D01*
X86217992Y-81681518D02*
X86265611Y-81633899D01*
X86265611Y-81633899D02*
X86360849Y-81586280D01*
X86360849Y-81586280D02*
X86598944Y-81586280D01*
X86598944Y-81586280D02*
X86694182Y-81633899D01*
X86694182Y-81633899D02*
X86741801Y-81681518D01*
X86741801Y-81681518D02*
X86789420Y-81776756D01*
X86789420Y-81776756D02*
X86789420Y-81871994D01*
X86789420Y-81871994D02*
X86741801Y-82014851D01*
X86741801Y-82014851D02*
X86170373Y-82586280D01*
X86170373Y-82586280D02*
X86789420Y-82586280D01*
X120789186Y-68182735D02*
X120789186Y-68897020D01*
X120789186Y-68897020D02*
X120741567Y-69039877D01*
X120741567Y-69039877D02*
X120646329Y-69135116D01*
X120646329Y-69135116D02*
X120503472Y-69182735D01*
X120503472Y-69182735D02*
X120408234Y-69182735D01*
X121789186Y-69182735D02*
X121217758Y-69182735D01*
X121503472Y-69182735D02*
X121503472Y-68182735D01*
X121503472Y-68182735D02*
X121408234Y-68325592D01*
X121408234Y-68325592D02*
X121312996Y-68420830D01*
X121312996Y-68420830D02*
X121217758Y-68468449D01*
X99749218Y-91752790D02*
X99653980Y-91705171D01*
X99653980Y-91705171D02*
X99558742Y-91609933D01*
X99558742Y-91609933D02*
X99415885Y-91467075D01*
X99415885Y-91467075D02*
X99320647Y-91419456D01*
X99320647Y-91419456D02*
X99225409Y-91419456D01*
X99273028Y-91657552D02*
X99177790Y-91609933D01*
X99177790Y-91609933D02*
X99082552Y-91514694D01*
X99082552Y-91514694D02*
X99034933Y-91324218D01*
X99034933Y-91324218D02*
X99034933Y-90990885D01*
X99034933Y-90990885D02*
X99082552Y-90800409D01*
X99082552Y-90800409D02*
X99177790Y-90705171D01*
X99177790Y-90705171D02*
X99273028Y-90657552D01*
X99273028Y-90657552D02*
X99463504Y-90657552D01*
X99463504Y-90657552D02*
X99558742Y-90705171D01*
X99558742Y-90705171D02*
X99653980Y-90800409D01*
X99653980Y-90800409D02*
X99701599Y-90990885D01*
X99701599Y-90990885D02*
X99701599Y-91324218D01*
X99701599Y-91324218D02*
X99653980Y-91514694D01*
X99653980Y-91514694D02*
X99558742Y-91609933D01*
X99558742Y-91609933D02*
X99463504Y-91657552D01*
X99463504Y-91657552D02*
X99273028Y-91657552D01*
X100653980Y-91657552D02*
X100082552Y-91657552D01*
X100368266Y-91657552D02*
X100368266Y-90657552D01*
X100368266Y-90657552D02*
X100273028Y-90800409D01*
X100273028Y-90800409D02*
X100177790Y-90895647D01*
X100177790Y-90895647D02*
X100082552Y-90943266D01*
X97147142Y-61319580D02*
X97099523Y-61367200D01*
X97099523Y-61367200D02*
X96956666Y-61414819D01*
X96956666Y-61414819D02*
X96861428Y-61414819D01*
X96861428Y-61414819D02*
X96718571Y-61367200D01*
X96718571Y-61367200D02*
X96623333Y-61271961D01*
X96623333Y-61271961D02*
X96575714Y-61176723D01*
X96575714Y-61176723D02*
X96528095Y-60986247D01*
X96528095Y-60986247D02*
X96528095Y-60843390D01*
X96528095Y-60843390D02*
X96575714Y-60652914D01*
X96575714Y-60652914D02*
X96623333Y-60557676D01*
X96623333Y-60557676D02*
X96718571Y-60462438D01*
X96718571Y-60462438D02*
X96861428Y-60414819D01*
X96861428Y-60414819D02*
X96956666Y-60414819D01*
X96956666Y-60414819D02*
X97099523Y-60462438D01*
X97099523Y-60462438D02*
X97147142Y-60510057D01*
X98099523Y-61414819D02*
X97528095Y-61414819D01*
X97813809Y-61414819D02*
X97813809Y-60414819D01*
X97813809Y-60414819D02*
X97718571Y-60557676D01*
X97718571Y-60557676D02*
X97623333Y-60652914D01*
X97623333Y-60652914D02*
X97528095Y-60700533D01*
X98480476Y-60510057D02*
X98528095Y-60462438D01*
X98528095Y-60462438D02*
X98623333Y-60414819D01*
X98623333Y-60414819D02*
X98861428Y-60414819D01*
X98861428Y-60414819D02*
X98956666Y-60462438D01*
X98956666Y-60462438D02*
X99004285Y-60510057D01*
X99004285Y-60510057D02*
X99051904Y-60605295D01*
X99051904Y-60605295D02*
X99051904Y-60700533D01*
X99051904Y-60700533D02*
X99004285Y-60843390D01*
X99004285Y-60843390D02*
X98432857Y-61414819D01*
X98432857Y-61414819D02*
X99051904Y-61414819D01*
X100822151Y-66990811D02*
X100822151Y-67800334D01*
X100822151Y-67800334D02*
X100869770Y-67895572D01*
X100869770Y-67895572D02*
X100917389Y-67943192D01*
X100917389Y-67943192D02*
X101012627Y-67990811D01*
X101012627Y-67990811D02*
X101203103Y-67990811D01*
X101203103Y-67990811D02*
X101298341Y-67943192D01*
X101298341Y-67943192D02*
X101345960Y-67895572D01*
X101345960Y-67895572D02*
X101393579Y-67800334D01*
X101393579Y-67800334D02*
X101393579Y-66990811D01*
X102298341Y-67324144D02*
X102298341Y-67990811D01*
X102060246Y-66943192D02*
X101822151Y-67657477D01*
X101822151Y-67657477D02*
X102441198Y-67657477D01*
X91491700Y-85173672D02*
X91444081Y-85221292D01*
X91444081Y-85221292D02*
X91301224Y-85268911D01*
X91301224Y-85268911D02*
X91205986Y-85268911D01*
X91205986Y-85268911D02*
X91063129Y-85221292D01*
X91063129Y-85221292D02*
X90967891Y-85126053D01*
X90967891Y-85126053D02*
X90920272Y-85030815D01*
X90920272Y-85030815D02*
X90872653Y-84840339D01*
X90872653Y-84840339D02*
X90872653Y-84697482D01*
X90872653Y-84697482D02*
X90920272Y-84507006D01*
X90920272Y-84507006D02*
X90967891Y-84411768D01*
X90967891Y-84411768D02*
X91063129Y-84316530D01*
X91063129Y-84316530D02*
X91205986Y-84268911D01*
X91205986Y-84268911D02*
X91301224Y-84268911D01*
X91301224Y-84268911D02*
X91444081Y-84316530D01*
X91444081Y-84316530D02*
X91491700Y-84364149D01*
X91967891Y-85268911D02*
X92158367Y-85268911D01*
X92158367Y-85268911D02*
X92253605Y-85221292D01*
X92253605Y-85221292D02*
X92301224Y-85173672D01*
X92301224Y-85173672D02*
X92396462Y-85030815D01*
X92396462Y-85030815D02*
X92444081Y-84840339D01*
X92444081Y-84840339D02*
X92444081Y-84459387D01*
X92444081Y-84459387D02*
X92396462Y-84364149D01*
X92396462Y-84364149D02*
X92348843Y-84316530D01*
X92348843Y-84316530D02*
X92253605Y-84268911D01*
X92253605Y-84268911D02*
X92063129Y-84268911D01*
X92063129Y-84268911D02*
X91967891Y-84316530D01*
X91967891Y-84316530D02*
X91920272Y-84364149D01*
X91920272Y-84364149D02*
X91872653Y-84459387D01*
X91872653Y-84459387D02*
X91872653Y-84697482D01*
X91872653Y-84697482D02*
X91920272Y-84792720D01*
X91920272Y-84792720D02*
X91967891Y-84840339D01*
X91967891Y-84840339D02*
X92063129Y-84887958D01*
X92063129Y-84887958D02*
X92253605Y-84887958D01*
X92253605Y-84887958D02*
X92348843Y-84840339D01*
X92348843Y-84840339D02*
X92396462Y-84792720D01*
X92396462Y-84792720D02*
X92444081Y-84697482D01*
X80577845Y-76730995D02*
X80482607Y-76683376D01*
X80482607Y-76683376D02*
X80387369Y-76588138D01*
X80387369Y-76588138D02*
X80244512Y-76445280D01*
X80244512Y-76445280D02*
X80149274Y-76397661D01*
X80149274Y-76397661D02*
X80054036Y-76397661D01*
X80101655Y-76635757D02*
X80006417Y-76588138D01*
X80006417Y-76588138D02*
X79911179Y-76492899D01*
X79911179Y-76492899D02*
X79863560Y-76302423D01*
X79863560Y-76302423D02*
X79863560Y-75969090D01*
X79863560Y-75969090D02*
X79911179Y-75778614D01*
X79911179Y-75778614D02*
X80006417Y-75683376D01*
X80006417Y-75683376D02*
X80101655Y-75635757D01*
X80101655Y-75635757D02*
X80292131Y-75635757D01*
X80292131Y-75635757D02*
X80387369Y-75683376D01*
X80387369Y-75683376D02*
X80482607Y-75778614D01*
X80482607Y-75778614D02*
X80530226Y-75969090D01*
X80530226Y-75969090D02*
X80530226Y-76302423D01*
X80530226Y-76302423D02*
X80482607Y-76492899D01*
X80482607Y-76492899D02*
X80387369Y-76588138D01*
X80387369Y-76588138D02*
X80292131Y-76635757D01*
X80292131Y-76635757D02*
X80101655Y-76635757D01*
X81387369Y-75969090D02*
X81387369Y-76635757D01*
X81149274Y-75588138D02*
X80911179Y-76302423D01*
X80911179Y-76302423D02*
X81530226Y-76302423D01*
X93835593Y-58316028D02*
X94239654Y-58720089D01*
X94239654Y-58720089D02*
X94293529Y-58827838D01*
X94293529Y-58827838D02*
X94293529Y-58935588D01*
X94293529Y-58935588D02*
X94239654Y-59043337D01*
X94239654Y-59043337D02*
X94185780Y-59097212D01*
X94024155Y-58127466D02*
X94347404Y-57804217D01*
X94751465Y-58531527D02*
X94185780Y-57965841D01*
X94913090Y-58046653D02*
X95182464Y-57777279D01*
X95020839Y-58262153D02*
X94643716Y-57507905D01*
X94643716Y-57507905D02*
X95397963Y-57885029D01*
X95344088Y-56861408D02*
X95263276Y-56888345D01*
X95263276Y-56888345D02*
X95182464Y-56969157D01*
X95182464Y-56969157D02*
X95128589Y-57076907D01*
X95128589Y-57076907D02*
X95128589Y-57184657D01*
X95128589Y-57184657D02*
X95155526Y-57265469D01*
X95155526Y-57265469D02*
X95236338Y-57400156D01*
X95236338Y-57400156D02*
X95317151Y-57480968D01*
X95317151Y-57480968D02*
X95451838Y-57561780D01*
X95451838Y-57561780D02*
X95532650Y-57588718D01*
X95532650Y-57588718D02*
X95640399Y-57588718D01*
X95640399Y-57588718D02*
X95748149Y-57534843D01*
X95748149Y-57534843D02*
X95802024Y-57480968D01*
X95802024Y-57480968D02*
X95855899Y-57373218D01*
X95855899Y-57373218D02*
X95855899Y-57319344D01*
X95855899Y-57319344D02*
X95667337Y-57130782D01*
X95667337Y-57130782D02*
X95559587Y-57238531D01*
X96179147Y-57103844D02*
X96286897Y-56996095D01*
X96286897Y-56996095D02*
X96313834Y-56915283D01*
X96313834Y-56915283D02*
X96313834Y-56861408D01*
X96313834Y-56861408D02*
X96286897Y-56726721D01*
X96286897Y-56726721D02*
X96206085Y-56592034D01*
X96206085Y-56592034D02*
X95990586Y-56376535D01*
X95990586Y-56376535D02*
X95909773Y-56349597D01*
X95909773Y-56349597D02*
X95855899Y-56349597D01*
X95855899Y-56349597D02*
X95775086Y-56376535D01*
X95775086Y-56376535D02*
X95667337Y-56484284D01*
X95667337Y-56484284D02*
X95640399Y-56565096D01*
X95640399Y-56565096D02*
X95640399Y-56618971D01*
X95640399Y-56618971D02*
X95667337Y-56699783D01*
X95667337Y-56699783D02*
X95802024Y-56834470D01*
X95802024Y-56834470D02*
X95882836Y-56861408D01*
X95882836Y-56861408D02*
X95936711Y-56861408D01*
X95936711Y-56861408D02*
X96017523Y-56834470D01*
X96017523Y-56834470D02*
X96125273Y-56726721D01*
X96125273Y-56726721D02*
X96152210Y-56645909D01*
X96152210Y-56645909D02*
X96152210Y-56592034D01*
X96152210Y-56592034D02*
X96125273Y-56511222D01*
X101474249Y-84902626D02*
X101140916Y-84426435D01*
X100902821Y-84902626D02*
X100902821Y-83902626D01*
X100902821Y-83902626D02*
X101283773Y-83902626D01*
X101283773Y-83902626D02*
X101379011Y-83950245D01*
X101379011Y-83950245D02*
X101426630Y-83997864D01*
X101426630Y-83997864D02*
X101474249Y-84093102D01*
X101474249Y-84093102D02*
X101474249Y-84235959D01*
X101474249Y-84235959D02*
X101426630Y-84331197D01*
X101426630Y-84331197D02*
X101379011Y-84378816D01*
X101379011Y-84378816D02*
X101283773Y-84426435D01*
X101283773Y-84426435D02*
X100902821Y-84426435D01*
X101902821Y-84902626D02*
X101902821Y-83902626D01*
X101902821Y-83902626D02*
X102474249Y-84902626D01*
X102474249Y-84902626D02*
X102474249Y-83902626D01*
X103474249Y-84902626D02*
X102902821Y-84902626D01*
X103188535Y-84902626D02*
X103188535Y-83902626D01*
X103188535Y-83902626D02*
X103093297Y-84045483D01*
X103093297Y-84045483D02*
X102998059Y-84140721D01*
X102998059Y-84140721D02*
X102902821Y-84188340D01*
X98645182Y-74398642D02*
X99011531Y-74764991D01*
X99011531Y-74764991D02*
X99076181Y-74786541D01*
X99076181Y-74786541D02*
X99119281Y-74786541D01*
X99119281Y-74786541D02*
X99183930Y-74764991D01*
X99183930Y-74764991D02*
X99270130Y-74678791D01*
X99270130Y-74678791D02*
X99291680Y-74614141D01*
X99291680Y-74614141D02*
X99291680Y-74571041D01*
X99291680Y-74571041D02*
X99270130Y-74506392D01*
X99270130Y-74506392D02*
X98903782Y-74140043D01*
X99076181Y-73967644D02*
X99356330Y-73687495D01*
X99356330Y-73687495D02*
X99377880Y-74010744D01*
X99377880Y-74010744D02*
X99442529Y-73946094D01*
X99442529Y-73946094D02*
X99507179Y-73924544D01*
X99507179Y-73924544D02*
X99550279Y-73924544D01*
X99550279Y-73924544D02*
X99614929Y-73946094D01*
X99614929Y-73946094D02*
X99722678Y-74053843D01*
X99722678Y-74053843D02*
X99744228Y-74118493D01*
X99744228Y-74118493D02*
X99744228Y-74161593D01*
X99744228Y-74161593D02*
X99722678Y-74226243D01*
X99722678Y-74226243D02*
X99593379Y-74355542D01*
X99593379Y-74355542D02*
X99528729Y-74377092D01*
X99528729Y-74377092D02*
X99485629Y-74377092D01*
X95944593Y-83829413D02*
X95877249Y-83829413D01*
X95877249Y-83829413D02*
X95742562Y-83762069D01*
X95742562Y-83762069D02*
X95675219Y-83694726D01*
X95675219Y-83694726D02*
X95607875Y-83560039D01*
X95607875Y-83560039D02*
X95607875Y-83425352D01*
X95607875Y-83425352D02*
X95641547Y-83324337D01*
X95641547Y-83324337D02*
X95742562Y-83155978D01*
X95742562Y-83155978D02*
X95843577Y-83054963D01*
X95843577Y-83054963D02*
X96011936Y-82953947D01*
X96011936Y-82953947D02*
X96112951Y-82920276D01*
X96112951Y-82920276D02*
X96247638Y-82920276D01*
X96247638Y-82920276D02*
X96382325Y-82987619D01*
X96382325Y-82987619D02*
X96449669Y-83054963D01*
X96449669Y-83054963D02*
X96517012Y-83189650D01*
X96517012Y-83189650D02*
X96517012Y-83256993D01*
X96820058Y-83425352D02*
X97291463Y-83896756D01*
X97291463Y-83896756D02*
X96281310Y-84300817D01*
X109124761Y-90580057D02*
X109029523Y-90532438D01*
X109029523Y-90532438D02*
X108934285Y-90437200D01*
X108934285Y-90437200D02*
X108791428Y-90294342D01*
X108791428Y-90294342D02*
X108696190Y-90246723D01*
X108696190Y-90246723D02*
X108600952Y-90246723D01*
X108648571Y-90484819D02*
X108553333Y-90437200D01*
X108553333Y-90437200D02*
X108458095Y-90341961D01*
X108458095Y-90341961D02*
X108410476Y-90151485D01*
X108410476Y-90151485D02*
X108410476Y-89818152D01*
X108410476Y-89818152D02*
X108458095Y-89627676D01*
X108458095Y-89627676D02*
X108553333Y-89532438D01*
X108553333Y-89532438D02*
X108648571Y-89484819D01*
X108648571Y-89484819D02*
X108839047Y-89484819D01*
X108839047Y-89484819D02*
X108934285Y-89532438D01*
X108934285Y-89532438D02*
X109029523Y-89627676D01*
X109029523Y-89627676D02*
X109077142Y-89818152D01*
X109077142Y-89818152D02*
X109077142Y-90151485D01*
X109077142Y-90151485D02*
X109029523Y-90341961D01*
X109029523Y-90341961D02*
X108934285Y-90437200D01*
X108934285Y-90437200D02*
X108839047Y-90484819D01*
X108839047Y-90484819D02*
X108648571Y-90484819D01*
X109458095Y-89580057D02*
X109505714Y-89532438D01*
X109505714Y-89532438D02*
X109600952Y-89484819D01*
X109600952Y-89484819D02*
X109839047Y-89484819D01*
X109839047Y-89484819D02*
X109934285Y-89532438D01*
X109934285Y-89532438D02*
X109981904Y-89580057D01*
X109981904Y-89580057D02*
X110029523Y-89675295D01*
X110029523Y-89675295D02*
X110029523Y-89770533D01*
X110029523Y-89770533D02*
X109981904Y-89913390D01*
X109981904Y-89913390D02*
X109410476Y-90484819D01*
X109410476Y-90484819D02*
X110029523Y-90484819D01*
X108633755Y-79958033D02*
X108586136Y-80005653D01*
X108586136Y-80005653D02*
X108443279Y-80053272D01*
X108443279Y-80053272D02*
X108348041Y-80053272D01*
X108348041Y-80053272D02*
X108205184Y-80005653D01*
X108205184Y-80005653D02*
X108109946Y-79910414D01*
X108109946Y-79910414D02*
X108062327Y-79815176D01*
X108062327Y-79815176D02*
X108014708Y-79624700D01*
X108014708Y-79624700D02*
X108014708Y-79481843D01*
X108014708Y-79481843D02*
X108062327Y-79291367D01*
X108062327Y-79291367D02*
X108109946Y-79196129D01*
X108109946Y-79196129D02*
X108205184Y-79100891D01*
X108205184Y-79100891D02*
X108348041Y-79053272D01*
X108348041Y-79053272D02*
X108443279Y-79053272D01*
X108443279Y-79053272D02*
X108586136Y-79100891D01*
X108586136Y-79100891D02*
X108633755Y-79148510D01*
X109586136Y-80053272D02*
X109014708Y-80053272D01*
X109300422Y-80053272D02*
X109300422Y-79053272D01*
X109300422Y-79053272D02*
X109205184Y-79196129D01*
X109205184Y-79196129D02*
X109109946Y-79291367D01*
X109109946Y-79291367D02*
X109014708Y-79338986D01*
X110205184Y-79053272D02*
X110300422Y-79053272D01*
X110300422Y-79053272D02*
X110395660Y-79100891D01*
X110395660Y-79100891D02*
X110443279Y-79148510D01*
X110443279Y-79148510D02*
X110490898Y-79243748D01*
X110490898Y-79243748D02*
X110538517Y-79434224D01*
X110538517Y-79434224D02*
X110538517Y-79672319D01*
X110538517Y-79672319D02*
X110490898Y-79862795D01*
X110490898Y-79862795D02*
X110443279Y-79958033D01*
X110443279Y-79958033D02*
X110395660Y-80005653D01*
X110395660Y-80005653D02*
X110300422Y-80053272D01*
X110300422Y-80053272D02*
X110205184Y-80053272D01*
X110205184Y-80053272D02*
X110109946Y-80005653D01*
X110109946Y-80005653D02*
X110062327Y-79958033D01*
X110062327Y-79958033D02*
X110014708Y-79862795D01*
X110014708Y-79862795D02*
X109967089Y-79672319D01*
X109967089Y-79672319D02*
X109967089Y-79434224D01*
X109967089Y-79434224D02*
X110014708Y-79243748D01*
X110014708Y-79243748D02*
X110062327Y-79148510D01*
X110062327Y-79148510D02*
X110109946Y-79100891D01*
X110109946Y-79100891D02*
X110205184Y-79053272D01*
D13*
%TO.C,J2*%
X81331072Y-68276508D02*
G75*
G03*
X81331072Y-68276508I-381000J0D01*
G01*
D14*
X85494576Y-70306541D02*
X87809686Y-67991431D01*
X94654438Y-61146679D02*
X90936612Y-57428853D01*
X90936612Y-57428853D02*
X88621502Y-59743963D01*
X81776750Y-66588715D02*
X85494576Y-70306541D01*
X84091860Y-64273605D02*
X81776750Y-66588715D01*
X92339328Y-63461789D02*
X94654438Y-61146679D01*
D15*
%TO.C,3.3V*%
X90599902Y-92393885D02*
G75*
G03*
X90599902Y-92393885I-950000J0D01*
G01*
%TO.C,CLK/SPI_CLK*%
X115621973Y-82704077D02*
G75*
G03*
X115621973Y-82704077I-949999J0D01*
G01*
%TO.C,SDA/SPI_SIMO*%
X117418025Y-77315923D02*
G75*
G03*
X117418025Y-77315923I-949999J0D01*
G01*
%TO.C,SCL/SPI_SOMI/SDO*%
X116519999Y-80010000D02*
G75*
G03*
X116519999Y-80010000I-949999J0D01*
G01*
%TO.C,VCC*%
X98674292Y-63294664D02*
G75*
G03*
X98674292Y-63294664I-950000J0D01*
G01*
%TO.C,STE*%
X114723948Y-85398154D02*
G75*
G03*
X114723948Y-85398154I-949999J0D01*
G01*
%TO.C,R4*%
X111170282Y-60049165D02*
X110849165Y-60370282D01*
X110130835Y-59009718D02*
X109809718Y-59330835D01*
%TO.C,R2*%
X81815000Y-80237064D02*
X81815000Y-79782936D01*
X83285000Y-80237064D02*
X83285000Y-79782936D01*
%TO.C,R1*%
X86895000Y-76427064D02*
X86895000Y-75972936D01*
X88365000Y-76427064D02*
X88365000Y-75972936D01*
%TO.C,1.5V*%
X87310000Y-88900000D02*
G75*
G03*
X87310000Y-88900000I-950000J0D01*
G01*
%TO.C,R3*%
X106090282Y-67669165D02*
X105769165Y-67990282D01*
X105050835Y-66629718D02*
X104729718Y-66950835D01*
%TO.C,BT1*%
X98260000Y-55880000D02*
X98260000Y-54670000D01*
X105480000Y-54170000D02*
X97760000Y-54170000D01*
X98260000Y-54670000D02*
X104980000Y-54670000D01*
X97760000Y-56690000D02*
X98760000Y-56690000D01*
X98760000Y-56690000D02*
X98760000Y-58190000D01*
X104980000Y-54670000D02*
X104980000Y-55880000D01*
X104980000Y-55880000D02*
X105480000Y-55880000D01*
X97760000Y-54170000D02*
X97760000Y-58190000D01*
X97460000Y-58490000D02*
X99960000Y-58490000D01*
X97760000Y-55880000D02*
X98260000Y-55880000D01*
X105480000Y-58190000D02*
X105480000Y-54170000D01*
X97460000Y-55990000D02*
X97460000Y-58490000D01*
X97760000Y-58190000D02*
X105480000Y-58190000D01*
X104480000Y-56690000D02*
X104480000Y-58190000D01*
X105480000Y-56690000D02*
X104480000Y-56690000D01*
%TO.C,C6*%
X91016662Y-76157620D02*
X92439166Y-76157620D01*
X91016662Y-77977620D02*
X92439166Y-77977620D01*
%TO.C,C8*%
X92379184Y-83100106D02*
X90956680Y-83100106D01*
X92379184Y-81280106D02*
X90956680Y-81280106D01*
%TO.C,C11*%
X114423602Y-73519464D02*
X115429464Y-72513602D01*
X115710536Y-74806398D02*
X116716398Y-73800536D01*
%TO.C,JP9*%
X112510001Y-75900000D02*
X112510001Y-76500000D01*
X111810001Y-77200000D02*
X110410001Y-77200000D01*
X110410001Y-75200000D02*
X111810001Y-75200000D01*
X109710001Y-76500000D02*
X109710001Y-75900000D01*
X111810001Y-77200000D02*
G75*
G03*
X112510001Y-76500000I1J699999D01*
G01*
X112510001Y-75900000D02*
G75*
G03*
X111810001Y-75200000I-699999J1D01*
G01*
X109710001Y-76500000D02*
G75*
G03*
X110410001Y-77200000I700000J0D01*
G01*
X110410001Y-75200000D02*
G75*
G03*
X109710001Y-75900000I0J-700000D01*
G01*
%TO.C,JTAG10*%
X93410000Y-57150000D02*
G75*
G03*
X93410000Y-57150000I-700000J0D01*
G01*
%TO.C,Q3*%
X110790948Y-64325093D02*
X109606544Y-63140690D01*
X110790948Y-64325093D02*
X111250567Y-64784713D01*
X108584774Y-66531267D02*
X108125155Y-66071647D01*
X108584774Y-66531267D02*
X109044394Y-66990886D01*
%TO.C,C1*%
X108508748Y-82910000D02*
X109931252Y-82910000D01*
X108508748Y-84730000D02*
X109931252Y-84730000D01*
%TO.C,C5*%
X92408677Y-78701366D02*
X90986173Y-78701366D01*
X92408677Y-80521366D02*
X90986173Y-80521366D01*
%TO.C,JP2*%
X84310001Y-80310000D02*
X84310001Y-79710000D01*
X85010001Y-79010000D02*
X86410001Y-79010000D01*
X86410001Y-81010000D02*
X85010001Y-81010000D01*
X87110001Y-79710000D02*
X87110001Y-80310000D01*
X85010001Y-79010000D02*
G75*
G03*
X84310001Y-79710000I-1J-699999D01*
G01*
X84310001Y-80310000D02*
G75*
G03*
X85010001Y-81010000I699999J-1D01*
G01*
X87110001Y-79710000D02*
G75*
G03*
X86410001Y-79010000I-700000J0D01*
G01*
X86410001Y-81010000D02*
G75*
G03*
X87110001Y-80310000I0J700000D01*
G01*
%TO.C,J1*%
X119069743Y-64106830D02*
X121339556Y-66376643D01*
X115477640Y-60514727D02*
X117994940Y-63032027D01*
X114402838Y-59439925D02*
X115258437Y-58584326D01*
X113929076Y-58966163D02*
X114402838Y-59439925D01*
X119458652Y-68257547D02*
X121339556Y-66376643D01*
X118984890Y-67783785D02*
X119458652Y-68257547D01*
X115392788Y-64191683D02*
X117910088Y-66708983D01*
X112048172Y-60847067D02*
X113929076Y-58966163D01*
X112048172Y-60847067D02*
X114317985Y-63116880D01*
%TO.C,Q1*%
X100684457Y-91202733D02*
X100684457Y-92877733D01*
X100684457Y-91202733D02*
X100684457Y-90552733D01*
X103804457Y-91202733D02*
X103804457Y-91852733D01*
X103804457Y-91202733D02*
X103804457Y-90552733D01*
%TO.C,C12*%
X100888748Y-60050000D02*
X102311252Y-60050000D01*
X100888748Y-61870000D02*
X102311252Y-61870000D01*
%TO.C,U4*%
X103160000Y-64770000D02*
X103160000Y-62970000D01*
X103160000Y-64770000D02*
X103160000Y-65570000D01*
X100040000Y-64770000D02*
X100040000Y-63970000D01*
X100040000Y-64770000D02*
X100040000Y-65570000D01*
%TO.C,C9*%
X90955435Y-83876711D02*
X92377939Y-83876711D01*
X90955435Y-85696711D02*
X92377939Y-85696711D01*
%TO.C,Q4*%
X83820000Y-74640000D02*
X82145000Y-74640000D01*
X83820000Y-74640000D02*
X84470000Y-74640000D01*
X83820000Y-77760000D02*
X83170000Y-77760000D01*
X83820000Y-77760000D02*
X84470000Y-77760000D01*
%TO.C,JTAG9*%
X95950000Y-59690000D02*
G75*
G03*
X95950000Y-59690000I-700000J0D01*
G01*
%TO.C,RN1*%
X101689344Y-88538421D02*
X102689344Y-88538421D01*
X101689344Y-85178421D02*
X102689344Y-85178421D01*
D16*
%TO.C,U3*%
X98771573Y-76200000D02*
X98930672Y-76359099D01*
X98771573Y-76200000D02*
X98930672Y-76040901D01*
X101600000Y-79028427D02*
X101440901Y-78869328D01*
X101600000Y-79028427D02*
X101759099Y-78869328D01*
X101600000Y-73371573D02*
X101440901Y-73530672D01*
X101600000Y-73371573D02*
X101759099Y-73530672D01*
X104428427Y-76200000D02*
X104269328Y-76359099D01*
X104428427Y-76200000D02*
X104269328Y-76040901D01*
D17*
X98853895Y-77278338D02*
G75*
G03*
X98853895Y-77278338I-100000J0D01*
G01*
D15*
%TO.C,C7*%
X97484318Y-83531252D02*
X96478456Y-82525390D01*
X98771252Y-82244318D02*
X97765390Y-81238456D01*
%TO.C,Q2*%
X109220000Y-89190000D02*
X110895000Y-89190000D01*
X109220000Y-89190000D02*
X108570000Y-89190000D01*
X109220000Y-86070000D02*
X109870000Y-86070000D01*
X109220000Y-86070000D02*
X108570000Y-86070000D01*
%TO.C,C10*%
X108508748Y-80370000D02*
X109931252Y-80370000D01*
X108508748Y-82190000D02*
X109931252Y-82190000D01*
%TD*%
M02*
