%TF.GenerationSoftware,KiCad,Pcbnew,7.0.7*%
%TF.CreationDate,2023-11-13T21:50:39-08:00*%
%TF.ProjectId,Final_Project_Transmit,46696e61-6c5f-4507-926f-6a6563745f54,rev?*%
%TF.SameCoordinates,Original*%
%TF.FileFunction,Copper,L4,Bot*%
%TF.FilePolarity,Positive*%
%FSLAX46Y46*%
G04 Gerber Fmt 4.6, Leading zero omitted, Abs format (unit mm)*
G04 Created by KiCad (PCBNEW 7.0.7) date 2023-11-13 21:50:39*
%MOMM*%
%LPD*%
G01*
G04 APERTURE LIST*
G04 Aperture macros list*
%AMRoundRect*
0 Rectangle with rounded corners*
0 $1 Rounding radius*
0 $2 $3 $4 $5 $6 $7 $8 $9 X,Y pos of 4 corners*
0 Add a 4 corners polygon primitive as box body*
4,1,4,$2,$3,$4,$5,$6,$7,$8,$9,$2,$3,0*
0 Add four circle primitives for the rounded corners*
1,1,$1+$1,$2,$3*
1,1,$1+$1,$4,$5*
1,1,$1+$1,$6,$7*
1,1,$1+$1,$8,$9*
0 Add four rect primitives between the rounded corners*
20,1,$1+$1,$2,$3,$4,$5,0*
20,1,$1+$1,$4,$5,$6,$7,0*
20,1,$1+$1,$6,$7,$8,$9,0*
20,1,$1+$1,$8,$9,$2,$3,0*%
%AMRotRect*
0 Rectangle, with rotation*
0 The origin of the aperture is its center*
0 $1 length*
0 $2 width*
0 $3 Rotation angle, in degrees counterclockwise*
0 Add horizontal line*
21,1,$1,$2,0,0,$3*%
%AMFreePoly0*
4,1,19,0.000000,0.744911,0.071157,0.744911,0.207708,0.704816,0.327430,0.627875,0.420627,0.520320,0.479746,0.390866,0.500000,0.250000,0.500000,-0.250000,0.479746,-0.390866,0.420627,-0.520320,0.327430,-0.627875,0.207708,-0.704816,0.071157,-0.744911,0.000000,-0.744911,0.000000,-0.750000,-0.500000,-0.750000,-0.500000,0.750000,0.000000,0.750000,0.000000,0.744911,0.000000,0.744911,
$1*%
%AMFreePoly1*
4,1,19,0.500000,-0.750000,0.000000,-0.750000,0.000000,-0.744911,-0.071157,-0.744911,-0.207708,-0.704816,-0.327430,-0.627875,-0.420627,-0.520320,-0.479746,-0.390866,-0.500000,-0.250000,-0.500000,0.250000,-0.479746,0.390866,-0.420627,0.520320,-0.327430,0.627875,-0.207708,0.704816,-0.071157,0.744911,0.000000,0.744911,0.000000,0.750000,0.500000,0.750000,0.500000,-0.750000,0.500000,-0.750000,
$1*%
G04 Aperture macros list end*
%TA.AperFunction,SMDPad,CuDef*%
%ADD10C,2.000000*%
%TD*%
%TA.AperFunction,SMDPad,CuDef*%
%ADD11C,1.500000*%
%TD*%
%TA.AperFunction,ComponentPad*%
%ADD12RoundRect,0.250000X-0.600000X-0.750000X0.600000X-0.750000X0.600000X0.750000X-0.600000X0.750000X0*%
%TD*%
%TA.AperFunction,ComponentPad*%
%ADD13O,1.700000X2.000000*%
%TD*%
%TA.AperFunction,SMDPad,CuDef*%
%ADD14FreePoly0,180.000000*%
%TD*%
%TA.AperFunction,SMDPad,CuDef*%
%ADD15FreePoly1,180.000000*%
%TD*%
%TA.AperFunction,SMDPad,CuDef*%
%ADD16FreePoly0,270.000000*%
%TD*%
%TA.AperFunction,SMDPad,CuDef*%
%ADD17FreePoly1,270.000000*%
%TD*%
%TA.AperFunction,SMDPad,CuDef*%
%ADD18RotRect,0.450000X0.350000X45.000000*%
%TD*%
%TA.AperFunction,SMDPad,CuDef*%
%ADD19RotRect,0.450000X0.350000X135.000000*%
%TD*%
%TA.AperFunction,SMDPad,CuDef*%
%ADD20RotRect,0.450000X0.350000X315.000000*%
%TD*%
%TA.AperFunction,SMDPad,CuDef*%
%ADD21RoundRect,0.250000X0.650000X-0.412500X0.650000X0.412500X-0.650000X0.412500X-0.650000X-0.412500X0*%
%TD*%
%TA.AperFunction,ViaPad*%
%ADD22C,0.800000*%
%TD*%
%TA.AperFunction,Conductor*%
%ADD23C,0.250000*%
%TD*%
G04 APERTURE END LIST*
D10*
%TO.P,TP8,1,1*%
%TO.N,Net-(JP4-A)*%
X108975235Y-94153045D03*
%TD*%
%TO.P,TP7,1,1*%
%TO.N,Net-(JP1-A)*%
X110886280Y-97391122D03*
%TD*%
D11*
%TO.P,TP4,1,1*%
%TO.N,/INT1*%
X99060000Y-68580000D03*
%TD*%
%TO.P,TP3,1,1*%
%TO.N,/INT2*%
X96520000Y-68580000D03*
%TD*%
D12*
%TO.P,BT1,1,+*%
%TO.N,VCC*%
X100370000Y-55880000D03*
D13*
%TO.P,BT1,2,-*%
%TO.N,GND*%
X102870000Y-55880000D03*
%TD*%
D14*
%TO.P,JP4,2,B*%
%TO.N,Net-(JP4-B)*%
X96499145Y-94778186D03*
D15*
%TO.P,JP4,1,A*%
%TO.N,Net-(JP4-A)*%
X97799145Y-94778186D03*
%TD*%
D14*
%TO.P,JP1,2,B*%
%TO.N,Net-(JP1-B)*%
X96495395Y-97818303D03*
D15*
%TO.P,JP1,1,A*%
%TO.N,Net-(JP1-A)*%
X97795395Y-97818303D03*
%TD*%
D16*
%TO.P,JP5,2,B*%
%TO.N,Net-(JP1-A)*%
X105385395Y-96578302D03*
D17*
%TO.P,JP5,1,A*%
%TO.N,Net-(JP4-A)*%
X105385395Y-95278302D03*
%TD*%
D18*
%TO.P,U1,16,ADC1*%
%TO.N,unconnected-(U1-ADC1-Pad16)*%
X102795154Y-75715651D03*
%TO.P,U1,15,ADC2*%
%TO.N,unconnected-(U1-ADC2-Pad15)*%
X102441601Y-75362097D03*
%TO.P,U1,14,VDD*%
%TO.N,+3V3*%
X102088047Y-75008544D03*
D19*
%TO.P,U1,13,ADC3*%
%TO.N,unconnected-(U1-ADC3-Pad13)*%
X101416296Y-74654990D03*
%TO.P,U1,12,GND@2*%
%TO.N,GND*%
X101062743Y-75008544D03*
%TO.P,U1,11,INT1*%
%TO.N,/INT1*%
X100709189Y-75362097D03*
%TO.P,U1,10,RES(GND)*%
%TO.N,GND*%
X100355636Y-75715651D03*
%TO.P,U1,9,INT2*%
%TO.N,/INT2*%
X100002082Y-76069204D03*
D18*
%TO.P,U1,8,CS*%
%TO.N,GND*%
X100355636Y-76740955D03*
%TO.P,U1,7,SDO*%
%TO.N,/SDO*%
X100709189Y-77094509D03*
%TO.P,U1,6,SDA*%
%TO.N,/SDA_3V*%
X101062743Y-77448062D03*
D20*
%TO.P,U1,5,GND@1*%
%TO.N,GND*%
X101734494Y-77801616D03*
%TO.P,U1,4,SCL*%
%TO.N,Net-(Q2-S)*%
X102088047Y-77448062D03*
%TO.P,U1,3,NC@2*%
%TO.N,unconnected-(U1-NC@2-Pad3)*%
X102441601Y-77094509D03*
%TO.P,U1,2,NC@1*%
%TO.N,unconnected-(U1-NC@1-Pad2)*%
X102795154Y-76740955D03*
%TO.P,U1,1,VDDIO*%
%TO.N,+3V3*%
X103148708Y-76387402D03*
%TD*%
D21*
%TO.P,C4,2*%
%TO.N,Net-(JP4-A)*%
X101575395Y-94985803D03*
%TO.P,C4,1*%
%TO.N,Net-(JP1-A)*%
X101575395Y-98110803D03*
%TD*%
D22*
%TO.N,Net-(Q4-S)*%
X86218233Y-77918867D03*
%TO.N,GND*%
X102279366Y-80664640D03*
%TO.N,+3V3*%
X97790000Y-85090000D03*
%TO.N,+1V5*%
X86360000Y-86360000D03*
%TO.N,+3V3*%
X101633045Y-71817394D03*
X105838647Y-76621486D03*
%TO.N,GND*%
X99875725Y-71791741D03*
X98080256Y-71791741D03*
%TO.N,/SDA_3V*%
X100345943Y-80422472D03*
%TO.N,Net-(Q2-S)*%
X105410000Y-85090000D03*
%TO.N,/SDO*%
X88900000Y-74930000D03*
%TO.N,+1V5*%
X93183130Y-86691364D03*
%TO.N,GND*%
X112295346Y-57837685D03*
%TO.N,+1V5*%
X111760000Y-64770000D03*
%TO.N,Net-(Q4-S)*%
X115479013Y-88295676D03*
%TO.N,+1V5*%
X111760000Y-88900000D03*
X82550000Y-73660000D03*
%TO.N,GND*%
X83820000Y-80010000D03*
%TO.N,+3V3*%
X105410000Y-82550000D03*
%TO.N,GND*%
X109220000Y-81280000D03*
%TO.N,Net-(JP4-B)*%
X96430932Y-78604050D03*
%TO.N,Net-(JP1-B)*%
X95250000Y-78740000D03*
%TO.N,GND*%
X90170000Y-74930000D03*
X115633981Y-73620011D03*
%TO.N,Net-(JP9-B)*%
X107950000Y-76200000D03*
X104560526Y-78751365D03*
%TO.N,+3V3*%
X104140000Y-66040000D03*
%TO.N,+1V5*%
X99508040Y-88644616D03*
X99499079Y-87408025D03*
%TO.N,+3V3*%
X99677906Y-84706536D03*
X99630862Y-85929686D03*
%TO.N,Net-(U3-P1.7{slash}TMS...)*%
X97198726Y-73077684D03*
X95535309Y-75427184D03*
%TO.N,Net-(U3-P1.6{slash}TDO...)*%
X90024192Y-68934103D03*
X92710000Y-71120000D03*
%TO.N,GND*%
X103470559Y-73528872D03*
X85614643Y-59645273D03*
%TO.N,+1V5*%
X83928697Y-65392191D03*
%TD*%
D23*
%TO.N,Net-(Q4-S)*%
X86320183Y-77879050D02*
X86360000Y-77879050D01*
X86218233Y-77918867D02*
X86320183Y-77879050D01*
X86399817Y-77879050D02*
X86218233Y-77918867D01*
X105506873Y-86654686D02*
X96731237Y-77879050D01*
X113838023Y-86654686D02*
X105506873Y-86654686D01*
X96731237Y-77879050D02*
X86399817Y-77879050D01*
X115479013Y-88295676D02*
X113838023Y-86654686D01*
%TO.N,Net-(U3-P1.7{slash}TMS...)*%
X96770280Y-67310000D02*
X96269720Y-67310000D01*
X95250000Y-68329720D02*
X95250000Y-75141875D01*
X95250000Y-75141875D02*
X95535309Y-75427184D01*
X97595000Y-68134720D02*
X96770280Y-67310000D01*
X96269720Y-67310000D02*
X95250000Y-68329720D01*
X97198726Y-69421554D02*
X97595000Y-69025280D01*
X97198726Y-73077684D02*
X97198726Y-69421554D01*
X97595000Y-69025280D02*
X97595000Y-68134720D01*
%TO.N,GND*%
X102311717Y-80696991D02*
X102311717Y-80826394D01*
X102279366Y-80664640D02*
X102311717Y-80696991D01*
X102311717Y-80632289D02*
X102279366Y-80664640D01*
X102311717Y-79451717D02*
X102311717Y-80632289D01*
X101734494Y-78874494D02*
X102311717Y-79451717D01*
X101734494Y-77801616D02*
X101734494Y-78874494D01*
X100839985Y-76200000D02*
X100355636Y-75715651D01*
X100355636Y-76740955D02*
X100896591Y-76200000D01*
X100896591Y-76200000D02*
X100839985Y-76200000D01*
%TO.N,+3V3*%
X103382792Y-76621486D02*
X105838647Y-76621486D01*
X103148708Y-76387402D02*
X103382792Y-76621486D01*
X102745559Y-74351032D02*
X102745559Y-72929908D01*
X102088047Y-75008544D02*
X102745559Y-74351032D01*
X102745559Y-72929908D02*
X101633045Y-71817394D01*
X101633045Y-71817394D02*
X101794799Y-71906359D01*
X105838647Y-76639430D02*
X105728116Y-76528899D01*
X105838647Y-76621486D02*
X105838647Y-76639430D01*
%TO.N,/INT2*%
X96473726Y-72777379D02*
X96473726Y-73826879D01*
X96520000Y-72731105D02*
X96473726Y-72777379D01*
X96520000Y-68580000D02*
X96520000Y-72731105D01*
X96473726Y-73826879D02*
X96486472Y-73839625D01*
%TO.N,/INT1*%
X99035395Y-73688303D02*
X100709189Y-75362097D01*
X99035395Y-68604605D02*
X99035395Y-73688303D01*
X99060000Y-68580000D02*
X99035395Y-68604605D01*
%TO.N,GND*%
X99875725Y-71791741D02*
X99705883Y-71852399D01*
X99485395Y-72072887D02*
X99875725Y-71791741D01*
X99485395Y-72390000D02*
X99485395Y-72072887D01*
X99485395Y-73431196D02*
X99485395Y-72390000D01*
X101062743Y-75008544D02*
X99485395Y-73431196D01*
X98080256Y-71767478D02*
X98055993Y-71743215D01*
X98080256Y-71791741D02*
X98080256Y-71767478D01*
X98104519Y-71791741D02*
X98080256Y-71791741D01*
X98516992Y-73877008D02*
X98516992Y-72204214D01*
X100355636Y-75715651D02*
X98516992Y-73877008D01*
X98516992Y-72204214D02*
X98104519Y-71791741D01*
%TO.N,/SDA_3V*%
X100345943Y-80422472D02*
X100212496Y-80313288D01*
X99872813Y-79973605D02*
X100345943Y-80422472D01*
X99872813Y-78627003D02*
X99872813Y-79973605D01*
X99883802Y-78627003D02*
X99872813Y-78627003D01*
X101062743Y-77448062D02*
X99883802Y-78627003D01*
%TO.N,Net-(Q2-S)*%
X103835526Y-79195541D02*
X102088047Y-77448062D01*
X103835526Y-83515526D02*
X103835526Y-79195541D01*
X105410000Y-85090000D02*
X103835526Y-83515526D01*
%TO.N,/SDO*%
X100374649Y-77429050D02*
X100709189Y-77094509D01*
X88900000Y-77429050D02*
X100374649Y-77429050D01*
X88900000Y-74930000D02*
X88900000Y-77429050D01*
%TO.N,Net-(JP4-B)*%
X96499145Y-78672263D02*
X96499145Y-94778186D01*
X96430932Y-78604050D02*
X96499145Y-78672263D01*
%TO.N,Net-(JP1-B)*%
X95250000Y-96572908D02*
X96495395Y-97818303D01*
X95250000Y-78740000D02*
X95250000Y-96572908D01*
%TO.N,Net-(JP9-B)*%
X107950000Y-76200000D02*
X105398635Y-78751365D01*
X105398635Y-78751365D02*
X104560526Y-78751365D01*
%TO.N,/INT2*%
X98716051Y-76069204D02*
X96495395Y-73848548D01*
X100002082Y-76069204D02*
X98716051Y-76069204D01*
%TO.N,Net-(JP4-A)*%
X107925395Y-95278303D02*
X108975235Y-94228463D01*
X105385395Y-95278302D02*
X107925395Y-95278303D01*
X108975235Y-94228463D02*
X108975235Y-94153045D01*
%TO.N,Net-(JP1-A)*%
X110043461Y-96548303D02*
X105415394Y-96548303D01*
X110886280Y-97391122D02*
X110043461Y-96548303D01*
X105415394Y-96548303D02*
X105385395Y-96578302D01*
%TO.N,Net-(JP4-A)*%
X101867895Y-95278303D02*
X105385395Y-95278302D01*
X101575395Y-94985803D02*
X101867895Y-95278303D01*
%TO.N,Net-(JP1-A)*%
X104347897Y-96578302D02*
X105385395Y-96578302D01*
X102815396Y-98110803D02*
X104347897Y-96578302D01*
X101575395Y-98110803D02*
X102815396Y-98110803D01*
X101282895Y-97818303D02*
X101575395Y-98110803D01*
X97795395Y-97818303D02*
X101282895Y-97818303D01*
%TO.N,Net-(JP4-A)*%
X98006762Y-94985803D02*
X101575395Y-94985803D01*
X97799145Y-94778186D02*
X98006762Y-94985803D01*
%TO.N,Net-(U3-P1.6{slash}TDO...)*%
X92210089Y-71120000D02*
X90024192Y-68934103D01*
X92710000Y-71120000D02*
X92210089Y-71120000D01*
%TD*%
M02*
