M48
; DRILL file {KiCad 7.0.7} date Mon Nov 13 21:50:34 2023
; FORMAT={-:-/ absolute / inch / decimal}
; #@! TF.CreationDate,2023-11-13T21:50:34-08:00
; #@! TF.GenerationSoftware,Kicad,Pcbnew,7.0.7
; #@! TF.FileFunction,Plated,1,4,PTH
FMAT,2
INCH
; #@! TA.AperFunction,Plated,PTH,ViaDrill
T1C0.0157
; #@! TA.AperFunction,Plated,PTH,ComponentDrill
T2C0.0394
%
G90
G05
T1
X3.25Y-2.9
X3.3Y-3.15
X3.3043Y-2.5745
X3.3707Y-2.3482
X3.3944Y-3.0677
X3.4Y-3.4
X3.5Y-2.95
X3.5443Y-2.7139
X3.55Y-2.95
X3.65Y-2.8
X3.6686Y-3.413
X3.75Y-3.1
X3.7612Y-2.9696
X3.7965Y-3.0946
X3.8267Y-2.8771
X3.85Y-3.35
X3.8614Y-2.8264
X3.9173Y-3.4413
X3.9176Y-3.4899
X3.9225Y-3.3831
X3.9243Y-3.3349
X3.9321Y-2.8264
X3.9506Y-3.1662
X4.0013Y-2.8275
X4.0267Y-3.1758
X4.0736Y-2.8948
X4.1Y-2.6
X4.1166Y-3.1004
X4.15Y-3.25
X4.15Y-3.35
X4.1669Y-3.0166
X4.25Y-3.0
X4.3Y-3.2
X4.4Y-2.55
X4.4Y-3.5
X4.4211Y-2.2771
X4.5464Y-3.4762
X4.5525Y-2.8984
T2
X3.9516Y-2.2
X4.05Y-2.2
T0
M30
