%TF.GenerationSoftware,KiCad,Pcbnew,7.0.7*%
%TF.CreationDate,2023-11-13T21:50:39-08:00*%
%TF.ProjectId,Final_Project_Transmit,46696e61-6c5f-4507-926f-6a6563745f54,rev?*%
%TF.SameCoordinates,Original*%
%TF.FileFunction,Paste,Top*%
%TF.FilePolarity,Positive*%
%FSLAX46Y46*%
G04 Gerber Fmt 4.6, Leading zero omitted, Abs format (unit mm)*
G04 Created by KiCad (PCBNEW 7.0.7) date 2023-11-13 21:50:39*
%MOMM*%
%LPD*%
G01*
G04 APERTURE LIST*
G04 Aperture macros list*
%AMRoundRect*
0 Rectangle with rounded corners*
0 $1 Rounding radius*
0 $2 $3 $4 $5 $6 $7 $8 $9 X,Y pos of 4 corners*
0 Add a 4 corners polygon primitive as box body*
4,1,4,$2,$3,$4,$5,$6,$7,$8,$9,$2,$3,0*
0 Add four circle primitives for the rounded corners*
1,1,$1+$1,$2,$3*
1,1,$1+$1,$4,$5*
1,1,$1+$1,$6,$7*
1,1,$1+$1,$8,$9*
0 Add four rect primitives between the rounded corners*
20,1,$1+$1,$2,$3,$4,$5,0*
20,1,$1+$1,$4,$5,$6,$7,0*
20,1,$1+$1,$6,$7,$8,$9,0*
20,1,$1+$1,$8,$9,$2,$3,0*%
%AMRotRect*
0 Rectangle, with rotation*
0 The origin of the aperture is its center*
0 $1 length*
0 $2 width*
0 $3 Rotation angle, in degrees counterclockwise*
0 Add horizontal line*
21,1,$1,$2,0,0,$3*%
G04 Aperture macros list end*
%ADD10C,0.010000*%
%ADD11RotRect,0.660400X2.768600X45.000000*%
%ADD12RoundRect,0.250000X-0.070711X0.565685X-0.565685X0.070711X0.070711X-0.565685X0.565685X-0.070711X0*%
%ADD13RoundRect,0.250000X0.450000X-0.350000X0.450000X0.350000X-0.450000X0.350000X-0.450000X-0.350000X0*%
%ADD14RoundRect,0.250000X-0.412500X-0.650000X0.412500X-0.650000X0.412500X0.650000X-0.412500X0.650000X0*%
%ADD15RoundRect,0.250000X0.412500X0.650000X-0.412500X0.650000X-0.412500X-0.650000X0.412500X-0.650000X0*%
%ADD16RoundRect,0.250000X0.167938X-0.751301X0.751301X-0.167938X-0.167938X0.751301X-0.751301X0.167938X0*%
%ADD17RoundRect,0.150000X-0.521491X0.309359X0.309359X-0.521491X0.521491X-0.309359X-0.309359X0.521491X0*%
%ADD18RotRect,1.900000X1.000000X45.000000*%
%ADD19RoundRect,0.150000X0.150000X-0.587500X0.150000X0.587500X-0.150000X0.587500X-0.150000X-0.587500X0*%
%ADD20RoundRect,0.150000X-0.150000X0.512500X-0.150000X-0.512500X0.150000X-0.512500X0.150000X0.512500X0*%
%ADD21RoundRect,0.150000X-0.587500X-0.150000X0.587500X-0.150000X0.587500X0.150000X-0.587500X0.150000X0*%
%ADD22R,0.800000X0.500000*%
%ADD23R,0.800000X0.400000*%
%ADD24RotRect,0.510000X0.310000X45.000000*%
%ADD25RotRect,0.310000X0.510000X45.000000*%
%ADD26RoundRect,0.250000X0.751301X0.167938X0.167938X0.751301X-0.751301X-0.167938X-0.167938X-0.751301X0*%
%ADD27RoundRect,0.150000X0.587500X0.150000X-0.587500X0.150000X-0.587500X-0.150000X0.587500X-0.150000X0*%
G04 APERTURE END LIST*
%TO.C,U3*%
D10*
X102758285Y-76200000D02*
X101600000Y-77358285D01*
X100441715Y-76200000D01*
X101600000Y-75041715D01*
X102758285Y-76200000D01*
G36*
X102758285Y-76200000D02*
G01*
X101600000Y-77358285D01*
X100441715Y-76200000D01*
X101600000Y-75041715D01*
X102758285Y-76200000D01*
G37*
%TD*%
D11*
%TO.C,J2*%
X84991188Y-64235394D03*
X85889214Y-63337368D03*
X86787240Y-62439343D03*
X87685265Y-61541317D03*
X88583291Y-60643291D03*
X87847897Y-67092103D03*
X88745923Y-66194077D03*
X89643948Y-65296051D03*
X90541974Y-64398026D03*
X91440000Y-63500000D03*
%TD*%
D12*
%TO.C,R4*%
X111197107Y-58982893D03*
X109782893Y-60397107D03*
%TD*%
D13*
%TO.C,R2*%
X82550000Y-81010000D03*
X82550000Y-79010000D03*
%TD*%
%TO.C,R1*%
X87630000Y-77200000D03*
X87630000Y-75200000D03*
%TD*%
D12*
%TO.C,R3*%
X106117107Y-66602893D03*
X104702893Y-68017107D03*
%TD*%
D14*
%TO.C,C6*%
X90165414Y-77067620D03*
X93290414Y-77067620D03*
%TD*%
D15*
%TO.C,C8*%
X93230432Y-82190106D03*
X90105432Y-82190106D03*
%TD*%
D16*
%TO.C,C11*%
X114465146Y-74764854D03*
X116674854Y-72555146D03*
%TD*%
D17*
%TO.C,Q3*%
X109696700Y-64093516D03*
X108353197Y-65437019D03*
X110350774Y-66091093D03*
%TD*%
D14*
%TO.C,C1*%
X107657500Y-83820000D03*
X110782500Y-83820000D03*
%TD*%
D15*
%TO.C,C5*%
X90134925Y-79611366D03*
X93259925Y-79611366D03*
%TD*%
D18*
%TO.C,J1*%
X118221215Y-67472658D03*
X118758616Y-63343154D03*
X114629112Y-63880556D03*
X115166513Y-59751052D03*
%TD*%
D19*
%TO.C,Q1*%
X101294457Y-92140233D03*
X103194457Y-92140233D03*
X102244457Y-90265233D03*
%TD*%
D14*
%TO.C,C12*%
X100037500Y-60960000D03*
X103162500Y-60960000D03*
%TD*%
D20*
%TO.C,U4*%
X102550000Y-63632500D03*
X101600000Y-63632500D03*
X100650000Y-63632500D03*
X100650000Y-65907500D03*
X102550000Y-65907500D03*
%TD*%
D14*
%TO.C,C9*%
X90104187Y-84786711D03*
X93229187Y-84786711D03*
%TD*%
D21*
%TO.C,Q4*%
X82882500Y-75250000D03*
X82882500Y-77150000D03*
X84757500Y-76200000D03*
%TD*%
D22*
%TO.C,RN1*%
X103089344Y-88058421D03*
D23*
X103089344Y-87258421D03*
X103089344Y-86458421D03*
D22*
X103089344Y-85658421D03*
X101289344Y-85658421D03*
D23*
X101289344Y-86458421D03*
X101289344Y-87258421D03*
D22*
X101289344Y-88058421D03*
%TD*%
D24*
%TO.C,U3*%
X99404433Y-76627800D03*
X99757987Y-76981353D03*
X100111540Y-77334906D03*
X100465094Y-77688460D03*
X100818647Y-78042013D03*
X101172200Y-78395567D03*
D25*
X102027800Y-78395567D03*
X102381353Y-78042013D03*
X102734906Y-77688460D03*
X103088460Y-77334906D03*
X103442013Y-76981353D03*
X103795567Y-76627800D03*
D24*
X103795567Y-75772200D03*
X103442013Y-75418647D03*
X103088460Y-75065094D03*
X102734906Y-74711540D03*
X102381353Y-74357987D03*
X102027800Y-74004433D03*
D25*
X101172200Y-74004433D03*
X100818647Y-74357987D03*
X100465094Y-74711540D03*
X100111540Y-75065094D03*
X99757987Y-75418647D03*
X99404433Y-75772200D03*
%TD*%
D26*
%TO.C,C7*%
X98729708Y-83489708D03*
X96520000Y-81280000D03*
%TD*%
D27*
%TO.C,Q2*%
X110157500Y-88580000D03*
X110157500Y-86680000D03*
X108282500Y-87630000D03*
%TD*%
D14*
%TO.C,C10*%
X107657500Y-81280000D03*
X110782500Y-81280000D03*
%TD*%
M02*
