%TF.GenerationSoftware,KiCad,Pcbnew,7.0.7*%
%TF.CreationDate,2023-11-13T21:50:39-08:00*%
%TF.ProjectId,Final_Project_Transmit,46696e61-6c5f-4507-926f-6a6563745f54,rev?*%
%TF.SameCoordinates,Original*%
%TF.FileFunction,Copper,L3,Inr*%
%TF.FilePolarity,Positive*%
%FSLAX46Y46*%
G04 Gerber Fmt 4.6, Leading zero omitted, Abs format (unit mm)*
G04 Created by KiCad (PCBNEW 7.0.7) date 2023-11-13 21:50:39*
%MOMM*%
%LPD*%
G01*
G04 APERTURE LIST*
G04 Aperture macros list*
%AMRoundRect*
0 Rectangle with rounded corners*
0 $1 Rounding radius*
0 $2 $3 $4 $5 $6 $7 $8 $9 X,Y pos of 4 corners*
0 Add a 4 corners polygon primitive as box body*
4,1,4,$2,$3,$4,$5,$6,$7,$8,$9,$2,$3,0*
0 Add four circle primitives for the rounded corners*
1,1,$1+$1,$2,$3*
1,1,$1+$1,$4,$5*
1,1,$1+$1,$6,$7*
1,1,$1+$1,$8,$9*
0 Add four rect primitives between the rounded corners*
20,1,$1+$1,$2,$3,$4,$5,0*
20,1,$1+$1,$4,$5,$6,$7,0*
20,1,$1+$1,$6,$7,$8,$9,0*
20,1,$1+$1,$8,$9,$2,$3,0*%
G04 Aperture macros list end*
%TA.AperFunction,ComponentPad*%
%ADD10RoundRect,0.250000X-0.600000X-0.750000X0.600000X-0.750000X0.600000X0.750000X-0.600000X0.750000X0*%
%TD*%
%TA.AperFunction,ComponentPad*%
%ADD11O,1.700000X2.000000*%
%TD*%
%TA.AperFunction,ViaPad*%
%ADD12C,0.800000*%
%TD*%
G04 APERTURE END LIST*
D10*
%TO.N,VCC*%
%TO.C,BT1*%
X100370000Y-55880000D03*
D11*
%TO.N,GND*%
X102870000Y-55880000D03*
%TD*%
D12*
%TO.N,Net-(Q4-S)*%
X86218233Y-77918867D03*
%TO.N,GND*%
X102279366Y-80664640D03*
%TO.N,+3V3*%
X97790000Y-85090000D03*
%TO.N,+1V5*%
X86360000Y-86360000D03*
%TO.N,+3V3*%
X101633045Y-71817394D03*
X105838647Y-76621486D03*
%TO.N,GND*%
X99875725Y-71791741D03*
X98080256Y-71791741D03*
%TO.N,/SDA_3V*%
X100345943Y-80422472D03*
%TO.N,Net-(Q2-S)*%
X105410000Y-85090000D03*
%TO.N,/SDO*%
X88900000Y-74930000D03*
%TO.N,+1V5*%
X93183130Y-86691364D03*
%TO.N,GND*%
X112295346Y-57837685D03*
%TO.N,+1V5*%
X111760000Y-64770000D03*
%TO.N,Net-(Q4-S)*%
X115479013Y-88295676D03*
%TO.N,+1V5*%
X111760000Y-88900000D03*
X82550000Y-73660000D03*
%TO.N,GND*%
X83820000Y-80010000D03*
%TO.N,+3V3*%
X105410000Y-82550000D03*
%TO.N,GND*%
X109220000Y-81280000D03*
%TO.N,Net-(JP4-B)*%
X96430932Y-78604050D03*
%TO.N,Net-(JP1-B)*%
X95250000Y-78740000D03*
%TO.N,GND*%
X90170000Y-74930000D03*
X115633981Y-73620011D03*
%TO.N,Net-(JP9-B)*%
X107950000Y-76200000D03*
X104560526Y-78751365D03*
%TO.N,+3V3*%
X104140000Y-66040000D03*
%TO.N,+1V5*%
X99508040Y-88644616D03*
X99499079Y-87408025D03*
%TO.N,+3V3*%
X99677906Y-84706536D03*
X99630862Y-85929686D03*
%TO.N,Net-(U3-P1.7{slash}TMS...)*%
X97198726Y-73077684D03*
X95535309Y-75427184D03*
%TO.N,Net-(U3-P1.6{slash}TDO...)*%
X90024192Y-68934103D03*
X92710000Y-71120000D03*
%TO.N,GND*%
X103470559Y-73528872D03*
X85614643Y-59645273D03*
%TO.N,+1V5*%
X83928697Y-65392191D03*
%TD*%
%TA.AperFunction,Conductor*%
%TO.N,+3V3*%
G36*
X104752550Y-65713604D02*
G01*
X105042144Y-65756281D01*
X105079042Y-65767809D01*
X108291019Y-67356528D01*
X108325982Y-67382310D01*
X110047382Y-69195930D01*
X110257055Y-69416835D01*
X110274779Y-69440679D01*
X111932742Y-72342114D01*
X111947790Y-72385792D01*
X112470815Y-75982760D01*
X112470656Y-76019506D01*
X111978315Y-79211440D01*
X111970658Y-79239177D01*
X111028438Y-81560257D01*
X111008634Y-81593203D01*
X109234082Y-83713447D01*
X109219956Y-83727780D01*
X108561136Y-84295728D01*
X108541802Y-84309409D01*
X106447760Y-85508723D01*
X106379803Y-85524959D01*
X106313855Y-85501878D01*
X106270856Y-85446807D01*
X106264456Y-85377231D01*
X106268197Y-85362819D01*
X106295674Y-85278256D01*
X106315460Y-85090000D01*
X106295674Y-84901744D01*
X106237179Y-84721716D01*
X106142533Y-84557784D01*
X106015871Y-84417112D01*
X106015870Y-84417111D01*
X105862734Y-84305851D01*
X105862729Y-84305848D01*
X105689807Y-84228857D01*
X105689802Y-84228855D01*
X105544000Y-84197865D01*
X105504646Y-84189500D01*
X105315354Y-84189500D01*
X105282897Y-84196398D01*
X105130197Y-84228855D01*
X105130192Y-84228857D01*
X104957270Y-84305848D01*
X104957265Y-84305851D01*
X104804129Y-84417111D01*
X104677466Y-84557785D01*
X104582821Y-84721715D01*
X104582818Y-84721722D01*
X104524327Y-84901740D01*
X104524326Y-84901744D01*
X104504540Y-85090000D01*
X104524326Y-85278256D01*
X104524327Y-85278259D01*
X104582818Y-85458277D01*
X104582821Y-85458284D01*
X104677467Y-85622216D01*
X104804128Y-85762888D01*
X104804129Y-85762888D01*
X104957265Y-85874148D01*
X104957267Y-85874149D01*
X104957270Y-85874151D01*
X105035035Y-85908774D01*
X105088269Y-85954022D01*
X105108591Y-86020871D01*
X105089546Y-86088095D01*
X105037180Y-86134351D01*
X105028828Y-86137895D01*
X104720905Y-86255466D01*
X104696168Y-86262081D01*
X101759982Y-86729487D01*
X101724621Y-86730010D01*
X99179109Y-86401595D01*
X99152201Y-86395002D01*
X96459014Y-85405198D01*
X96424327Y-85385638D01*
X94007995Y-83452573D01*
X93984289Y-83427446D01*
X92664402Y-81565140D01*
X92303481Y-81055895D01*
X92288358Y-81027232D01*
X92221489Y-80846543D01*
X92064549Y-80422472D01*
X99440483Y-80422472D01*
X99460269Y-80610728D01*
X99460270Y-80610731D01*
X99518761Y-80790749D01*
X99518764Y-80790756D01*
X99613410Y-80954688D01*
X99736813Y-81091740D01*
X99740072Y-81095360D01*
X99893208Y-81206620D01*
X99893213Y-81206623D01*
X100066135Y-81283614D01*
X100066140Y-81283616D01*
X100251297Y-81322972D01*
X100251298Y-81322972D01*
X100440587Y-81322972D01*
X100440589Y-81322972D01*
X100625746Y-81283616D01*
X100798673Y-81206623D01*
X100951814Y-81095360D01*
X101078476Y-80954688D01*
X101103287Y-80911715D01*
X101163381Y-80807628D01*
X101213947Y-80759412D01*
X101282554Y-80746188D01*
X101347419Y-80772156D01*
X101387948Y-80829070D01*
X101391858Y-80846645D01*
X101392342Y-80846543D01*
X101393692Y-80852897D01*
X101452184Y-81032917D01*
X101452187Y-81032924D01*
X101546833Y-81196856D01*
X101660389Y-81322972D01*
X101673495Y-81337528D01*
X101826631Y-81448788D01*
X101826636Y-81448791D01*
X101999558Y-81525782D01*
X101999563Y-81525784D01*
X102184720Y-81565140D01*
X102184721Y-81565140D01*
X102374010Y-81565140D01*
X102374012Y-81565140D01*
X102559169Y-81525784D01*
X102732096Y-81448791D01*
X102885237Y-81337528D01*
X102937036Y-81280000D01*
X108314540Y-81280000D01*
X108334326Y-81468256D01*
X108334327Y-81468259D01*
X108392818Y-81648277D01*
X108392821Y-81648284D01*
X108487467Y-81812216D01*
X108614128Y-81952887D01*
X108614129Y-81952888D01*
X108767265Y-82064148D01*
X108767270Y-82064151D01*
X108940192Y-82141142D01*
X108940197Y-82141144D01*
X109125354Y-82180500D01*
X109125355Y-82180500D01*
X109314644Y-82180500D01*
X109314646Y-82180500D01*
X109499803Y-82141144D01*
X109672730Y-82064151D01*
X109825871Y-81952888D01*
X109952533Y-81812216D01*
X110047179Y-81648284D01*
X110105674Y-81468256D01*
X110125460Y-81280000D01*
X110105674Y-81091744D01*
X110047179Y-80911716D01*
X109952533Y-80747784D01*
X109825871Y-80607112D01*
X109825870Y-80607111D01*
X109672734Y-80495851D01*
X109672729Y-80495848D01*
X109499807Y-80418857D01*
X109499802Y-80418855D01*
X109354000Y-80387865D01*
X109314646Y-80379500D01*
X109125354Y-80379500D01*
X109092897Y-80386398D01*
X108940197Y-80418855D01*
X108940192Y-80418857D01*
X108767270Y-80495848D01*
X108767265Y-80495851D01*
X108614129Y-80607111D01*
X108487466Y-80747785D01*
X108392821Y-80911715D01*
X108392818Y-80911722D01*
X108345974Y-81055895D01*
X108334326Y-81091744D01*
X108314540Y-81280000D01*
X102937036Y-81280000D01*
X103011899Y-81196856D01*
X103106545Y-81032924D01*
X103165040Y-80852896D01*
X103184826Y-80664640D01*
X103165040Y-80476384D01*
X103106545Y-80296356D01*
X103011899Y-80132424D01*
X102885237Y-79991752D01*
X102885236Y-79991751D01*
X102732100Y-79880491D01*
X102732095Y-79880488D01*
X102559173Y-79803497D01*
X102559168Y-79803495D01*
X102413367Y-79772505D01*
X102374012Y-79764140D01*
X102184720Y-79764140D01*
X102152263Y-79771038D01*
X101999563Y-79803495D01*
X101999558Y-79803497D01*
X101826636Y-79880488D01*
X101826631Y-79880491D01*
X101673495Y-79991751D01*
X101546831Y-80132425D01*
X101461927Y-80279484D01*
X101411360Y-80327700D01*
X101342753Y-80340922D01*
X101277888Y-80314954D01*
X101237360Y-80258040D01*
X101233452Y-80240465D01*
X101232967Y-80240569D01*
X101231617Y-80234221D01*
X101231617Y-80234216D01*
X101173122Y-80054188D01*
X101078476Y-79890256D01*
X100951814Y-79749584D01*
X100951813Y-79749583D01*
X100798677Y-79638323D01*
X100798672Y-79638320D01*
X100625750Y-79561329D01*
X100625745Y-79561327D01*
X100450826Y-79524148D01*
X100440589Y-79521972D01*
X100251297Y-79521972D01*
X100241060Y-79524148D01*
X100066140Y-79561327D01*
X100066135Y-79561329D01*
X99893213Y-79638320D01*
X99893208Y-79638323D01*
X99740072Y-79749583D01*
X99613409Y-79890257D01*
X99518764Y-80054187D01*
X99518761Y-80054194D01*
X99460270Y-80234212D01*
X99460269Y-80234216D01*
X99440483Y-80422472D01*
X92064549Y-80422472D01*
X91441902Y-78740000D01*
X94344540Y-78740000D01*
X94364326Y-78928256D01*
X94364327Y-78928259D01*
X94422818Y-79108277D01*
X94422821Y-79108284D01*
X94517467Y-79272216D01*
X94617741Y-79383581D01*
X94644129Y-79412888D01*
X94797265Y-79524148D01*
X94797270Y-79524151D01*
X94970192Y-79601142D01*
X94970197Y-79601144D01*
X95155354Y-79640500D01*
X95155355Y-79640500D01*
X95344644Y-79640500D01*
X95344646Y-79640500D01*
X95529803Y-79601144D01*
X95702730Y-79524151D01*
X95783880Y-79465192D01*
X95861129Y-79409068D01*
X95862061Y-79410350D01*
X95917820Y-79383581D01*
X95987156Y-79392194D01*
X95988257Y-79392678D01*
X96151124Y-79465192D01*
X96151129Y-79465194D01*
X96336286Y-79504550D01*
X96336287Y-79504550D01*
X96525576Y-79504550D01*
X96525578Y-79504550D01*
X96710735Y-79465194D01*
X96883662Y-79388201D01*
X97036803Y-79276938D01*
X97163465Y-79136266D01*
X97258111Y-78972334D01*
X97316606Y-78792306D01*
X97320909Y-78751365D01*
X103655066Y-78751365D01*
X103674852Y-78939621D01*
X103674853Y-78939624D01*
X103733344Y-79119642D01*
X103733347Y-79119649D01*
X103827993Y-79283581D01*
X103918034Y-79383581D01*
X103954655Y-79424253D01*
X104107791Y-79535513D01*
X104107796Y-79535516D01*
X104280718Y-79612507D01*
X104280723Y-79612509D01*
X104465880Y-79651865D01*
X104465881Y-79651865D01*
X104655170Y-79651865D01*
X104655172Y-79651865D01*
X104840329Y-79612509D01*
X105013256Y-79535516D01*
X105166397Y-79424253D01*
X105293059Y-79283581D01*
X105387705Y-79119649D01*
X105446200Y-78939621D01*
X105465986Y-78751365D01*
X105446200Y-78563109D01*
X105387705Y-78383081D01*
X105293059Y-78219149D01*
X105166397Y-78078477D01*
X105157254Y-78071834D01*
X105013260Y-77967216D01*
X105013255Y-77967213D01*
X104840333Y-77890222D01*
X104840328Y-77890220D01*
X104694527Y-77859230D01*
X104655172Y-77850865D01*
X104465880Y-77850865D01*
X104433423Y-77857763D01*
X104280723Y-77890220D01*
X104280718Y-77890222D01*
X104107796Y-77967213D01*
X104107791Y-77967216D01*
X103954655Y-78078476D01*
X103827992Y-78219150D01*
X103733347Y-78383080D01*
X103733344Y-78383087D01*
X103674853Y-78563105D01*
X103674852Y-78563109D01*
X103655066Y-78751365D01*
X97320909Y-78751365D01*
X97336392Y-78604050D01*
X97316606Y-78415794D01*
X97258111Y-78235766D01*
X97163465Y-78071834D01*
X97036803Y-77931162D01*
X96980454Y-77890222D01*
X96883666Y-77819901D01*
X96883661Y-77819898D01*
X96710739Y-77742907D01*
X96710734Y-77742905D01*
X96564932Y-77711915D01*
X96525578Y-77703550D01*
X96336286Y-77703550D01*
X96303829Y-77710448D01*
X96151129Y-77742905D01*
X96151124Y-77742907D01*
X95978202Y-77819898D01*
X95978197Y-77819901D01*
X95819804Y-77934981D01*
X95818877Y-77933705D01*
X95763062Y-77960476D01*
X95693729Y-77951836D01*
X95692673Y-77951371D01*
X95529807Y-77878857D01*
X95529802Y-77878855D01*
X95384000Y-77847865D01*
X95344646Y-77839500D01*
X95155354Y-77839500D01*
X95122897Y-77846398D01*
X94970197Y-77878855D01*
X94970192Y-77878857D01*
X94797270Y-77955848D01*
X94797265Y-77955851D01*
X94644129Y-78067111D01*
X94517466Y-78207785D01*
X94422821Y-78371715D01*
X94422818Y-78371722D01*
X94364327Y-78551740D01*
X94364326Y-78551744D01*
X94344540Y-78740000D01*
X91441902Y-78740000D01*
X91206399Y-78103640D01*
X91198738Y-78063942D01*
X91127953Y-75427184D01*
X94629849Y-75427184D01*
X94649635Y-75615440D01*
X94649636Y-75615443D01*
X94708127Y-75795461D01*
X94708130Y-75795468D01*
X94802776Y-75959400D01*
X94849907Y-76011744D01*
X94929438Y-76100072D01*
X95082574Y-76211332D01*
X95082579Y-76211335D01*
X95255501Y-76288326D01*
X95255506Y-76288328D01*
X95440663Y-76327684D01*
X95440664Y-76327684D01*
X95629953Y-76327684D01*
X95629955Y-76327684D01*
X95815112Y-76288328D01*
X95988039Y-76211335D01*
X96003640Y-76200000D01*
X107044540Y-76200000D01*
X107064326Y-76388256D01*
X107064327Y-76388259D01*
X107122818Y-76568277D01*
X107122821Y-76568284D01*
X107217467Y-76732216D01*
X107344128Y-76872887D01*
X107344129Y-76872888D01*
X107497265Y-76984148D01*
X107497270Y-76984151D01*
X107670192Y-77061142D01*
X107670197Y-77061144D01*
X107855354Y-77100500D01*
X107855355Y-77100500D01*
X108044644Y-77100500D01*
X108044646Y-77100500D01*
X108229803Y-77061144D01*
X108402730Y-76984151D01*
X108555871Y-76872888D01*
X108682533Y-76732216D01*
X108777179Y-76568284D01*
X108835674Y-76388256D01*
X108855460Y-76200000D01*
X108835674Y-76011744D01*
X108777179Y-75831716D01*
X108682533Y-75667784D01*
X108555871Y-75527112D01*
X108555870Y-75527111D01*
X108402734Y-75415851D01*
X108402729Y-75415848D01*
X108229807Y-75338857D01*
X108229802Y-75338855D01*
X108084001Y-75307865D01*
X108044646Y-75299500D01*
X107855354Y-75299500D01*
X107822897Y-75306398D01*
X107670197Y-75338855D01*
X107670192Y-75338857D01*
X107497270Y-75415848D01*
X107497265Y-75415851D01*
X107344129Y-75527111D01*
X107217466Y-75667785D01*
X107122821Y-75831715D01*
X107122818Y-75831722D01*
X107064327Y-76011740D01*
X107064326Y-76011744D01*
X107044540Y-76200000D01*
X96003640Y-76200000D01*
X96141180Y-76100072D01*
X96267842Y-75959400D01*
X96362488Y-75795468D01*
X96420983Y-75615440D01*
X96440769Y-75427184D01*
X96420983Y-75238928D01*
X96362488Y-75058900D01*
X96267842Y-74894968D01*
X96141180Y-74754296D01*
X96141179Y-74754295D01*
X95988043Y-74643035D01*
X95988038Y-74643032D01*
X95815116Y-74566041D01*
X95815111Y-74566039D01*
X95669310Y-74535049D01*
X95629955Y-74526684D01*
X95440663Y-74526684D01*
X95408206Y-74533582D01*
X95255506Y-74566039D01*
X95255501Y-74566041D01*
X95082579Y-74643032D01*
X95082574Y-74643035D01*
X94929438Y-74754295D01*
X94802775Y-74894969D01*
X94708130Y-75058899D01*
X94708127Y-75058906D01*
X94665544Y-75189965D01*
X94649635Y-75238928D01*
X94629849Y-75427184D01*
X91127953Y-75427184D01*
X91106679Y-74634731D01*
X91112424Y-74593957D01*
X91592828Y-73077684D01*
X96293266Y-73077684D01*
X96313052Y-73265940D01*
X96313053Y-73265943D01*
X96371544Y-73445961D01*
X96371547Y-73445968D01*
X96466193Y-73609900D01*
X96562742Y-73717128D01*
X96592855Y-73750572D01*
X96745991Y-73861832D01*
X96745996Y-73861835D01*
X96918918Y-73938826D01*
X96918923Y-73938828D01*
X97104080Y-73978184D01*
X97104081Y-73978184D01*
X97293370Y-73978184D01*
X97293372Y-73978184D01*
X97478529Y-73938828D01*
X97651456Y-73861835D01*
X97804597Y-73750572D01*
X97931259Y-73609900D01*
X97978040Y-73528872D01*
X102565099Y-73528872D01*
X102584885Y-73717128D01*
X102584886Y-73717131D01*
X102643377Y-73897149D01*
X102643380Y-73897156D01*
X102738026Y-74061088D01*
X102864687Y-74201760D01*
X102864688Y-74201760D01*
X103017824Y-74313020D01*
X103017829Y-74313023D01*
X103190751Y-74390014D01*
X103190756Y-74390016D01*
X103375913Y-74429372D01*
X103375914Y-74429372D01*
X103565203Y-74429372D01*
X103565205Y-74429372D01*
X103750362Y-74390016D01*
X103923289Y-74313023D01*
X104076430Y-74201760D01*
X104203092Y-74061088D01*
X104297738Y-73897156D01*
X104356233Y-73717128D01*
X104376019Y-73528872D01*
X104356233Y-73340616D01*
X104297738Y-73160588D01*
X104203092Y-72996656D01*
X104076430Y-72855984D01*
X104073124Y-72853582D01*
X103923293Y-72744723D01*
X103923288Y-72744720D01*
X103750366Y-72667729D01*
X103750361Y-72667727D01*
X103604560Y-72636737D01*
X103565205Y-72628372D01*
X103375913Y-72628372D01*
X103343456Y-72635270D01*
X103190756Y-72667727D01*
X103190751Y-72667729D01*
X103017829Y-72744720D01*
X103017824Y-72744723D01*
X102864688Y-72855983D01*
X102738025Y-72996657D01*
X102643380Y-73160587D01*
X102643377Y-73160594D01*
X102584886Y-73340612D01*
X102584885Y-73340616D01*
X102565099Y-73528872D01*
X97978040Y-73528872D01*
X98025905Y-73445968D01*
X98084400Y-73265940D01*
X98104186Y-73077684D01*
X98084400Y-72889428D01*
X98072753Y-72853582D01*
X98070758Y-72783741D01*
X98106838Y-72723908D01*
X98169539Y-72693080D01*
X98173612Y-72692514D01*
X98174896Y-72692241D01*
X98174902Y-72692241D01*
X98360059Y-72652885D01*
X98532986Y-72575892D01*
X98686127Y-72464629D01*
X98812789Y-72323957D01*
X98870604Y-72223817D01*
X98921169Y-72175604D01*
X98989776Y-72162380D01*
X99054641Y-72188348D01*
X99085377Y-72223819D01*
X99143190Y-72323955D01*
X99269854Y-72464629D01*
X99422990Y-72575889D01*
X99422995Y-72575892D01*
X99595917Y-72652883D01*
X99595922Y-72652885D01*
X99781079Y-72692241D01*
X99781080Y-72692241D01*
X99970369Y-72692241D01*
X99970371Y-72692241D01*
X100155528Y-72652885D01*
X100328455Y-72575892D01*
X100481596Y-72464629D01*
X100608258Y-72323957D01*
X100702904Y-72160025D01*
X100761399Y-71979997D01*
X100781185Y-71791741D01*
X100761399Y-71603485D01*
X100702904Y-71423457D01*
X100608258Y-71259525D01*
X100481596Y-71118853D01*
X100481595Y-71118852D01*
X100328459Y-71007592D01*
X100328454Y-71007589D01*
X100155532Y-70930598D01*
X100155527Y-70930596D01*
X100009726Y-70899606D01*
X99970371Y-70891241D01*
X99781079Y-70891241D01*
X99748622Y-70898139D01*
X99595922Y-70930596D01*
X99595917Y-70930598D01*
X99422995Y-71007589D01*
X99422990Y-71007592D01*
X99269854Y-71118852D01*
X99143190Y-71259526D01*
X99085377Y-71359662D01*
X99034810Y-71407878D01*
X98966203Y-71421100D01*
X98901338Y-71395132D01*
X98870603Y-71359662D01*
X98812789Y-71259525D01*
X98686127Y-71118853D01*
X98686126Y-71118852D01*
X98532990Y-71007592D01*
X98532985Y-71007589D01*
X98360063Y-70930598D01*
X98360058Y-70930596D01*
X98214256Y-70899606D01*
X98174902Y-70891241D01*
X97985610Y-70891241D01*
X97953153Y-70898139D01*
X97800453Y-70930596D01*
X97800448Y-70930598D01*
X97627526Y-71007589D01*
X97627521Y-71007592D01*
X97474385Y-71118852D01*
X97347722Y-71259526D01*
X97253077Y-71423456D01*
X97253074Y-71423463D01*
X97232013Y-71488284D01*
X97194582Y-71603485D01*
X97182522Y-71718235D01*
X97174796Y-71791741D01*
X97194582Y-71979999D01*
X97206229Y-72015844D01*
X97208223Y-72085685D01*
X97172141Y-72145517D01*
X97109440Y-72176344D01*
X97105372Y-72176909D01*
X96918923Y-72216539D01*
X96918918Y-72216541D01*
X96745996Y-72293532D01*
X96745991Y-72293535D01*
X96592855Y-72404795D01*
X96466192Y-72545469D01*
X96371547Y-72709399D01*
X96371544Y-72709406D01*
X96313053Y-72889424D01*
X96313052Y-72889428D01*
X96293266Y-73077684D01*
X91592828Y-73077684D01*
X91848481Y-72270778D01*
X91855940Y-72252466D01*
X92026320Y-71914287D01*
X92074060Y-71863277D01*
X92141804Y-71846174D01*
X92208040Y-71868411D01*
X92209941Y-71869765D01*
X92257265Y-71904148D01*
X92257270Y-71904151D01*
X92430192Y-71981142D01*
X92430197Y-71981144D01*
X92615354Y-72020500D01*
X92615355Y-72020500D01*
X92804644Y-72020500D01*
X92804646Y-72020500D01*
X92989803Y-71981144D01*
X93162730Y-71904151D01*
X93315871Y-71792888D01*
X93442533Y-71652216D01*
X93537179Y-71488284D01*
X93595674Y-71308256D01*
X93615460Y-71120000D01*
X93595674Y-70931744D01*
X93537179Y-70751716D01*
X93442533Y-70587784D01*
X93315871Y-70447112D01*
X93315870Y-70447111D01*
X93162734Y-70335851D01*
X93162729Y-70335848D01*
X93002899Y-70264686D01*
X92949662Y-70219436D01*
X92929341Y-70152586D01*
X92942594Y-70095620D01*
X93379808Y-69227816D01*
X93402862Y-69195933D01*
X95306076Y-67292719D01*
X95342610Y-67267441D01*
X98753627Y-65723264D01*
X98786350Y-65713605D01*
X101724106Y-65272729D01*
X101760578Y-65272682D01*
X104752550Y-65713604D01*
G37*
%TD.AperFunction*%
%TD*%
%TA.AperFunction,Conductor*%
%TO.N,+1V5*%
G36*
X101673139Y-53275129D02*
G01*
X106653683Y-53806608D01*
X106681017Y-53812706D01*
X111409619Y-55446856D01*
X111428390Y-55455141D01*
X114169181Y-56946962D01*
X114188576Y-56960032D01*
X115905722Y-58369899D01*
X117495592Y-59675267D01*
X117501388Y-59680681D01*
X120318677Y-62671876D01*
X120335958Y-62695171D01*
X122627344Y-66687738D01*
X122638769Y-66714509D01*
X124448157Y-72873387D01*
X124452588Y-72896182D01*
X124521024Y-73590839D01*
X124521323Y-73596921D01*
X124521323Y-78656808D01*
X124516715Y-78690297D01*
X123022535Y-84017254D01*
X123012783Y-84041688D01*
X120090895Y-89572406D01*
X120074574Y-89596138D01*
X117646380Y-92371216D01*
X117628839Y-92387712D01*
X112899020Y-96039410D01*
X112872574Y-96055024D01*
X108949046Y-97756377D01*
X108927724Y-97763407D01*
X104128145Y-98876353D01*
X104105934Y-98879422D01*
X101671145Y-98993409D01*
X101651556Y-98992776D01*
X97211281Y-98495907D01*
X97187868Y-98490963D01*
X92877108Y-97135160D01*
X92857497Y-97127092D01*
X89486390Y-95389407D01*
X89470197Y-95379418D01*
X87716149Y-94101779D01*
X86659133Y-93331854D01*
X86638727Y-93313170D01*
X84326182Y-90663846D01*
X83055060Y-89207609D01*
X83044371Y-89193430D01*
X82463471Y-88295676D01*
X114573553Y-88295676D01*
X114593339Y-88483932D01*
X114593340Y-88483935D01*
X114651831Y-88663953D01*
X114651834Y-88663960D01*
X114746480Y-88827892D01*
X114873141Y-88968564D01*
X114873142Y-88968564D01*
X115026278Y-89079824D01*
X115026283Y-89079827D01*
X115199205Y-89156818D01*
X115199210Y-89156820D01*
X115384367Y-89196176D01*
X115384368Y-89196176D01*
X115573657Y-89196176D01*
X115573659Y-89196176D01*
X115758816Y-89156820D01*
X115931743Y-89079827D01*
X116084884Y-88968564D01*
X116211546Y-88827892D01*
X116306192Y-88663960D01*
X116364687Y-88483932D01*
X116384473Y-88295676D01*
X116364687Y-88107420D01*
X116306192Y-87927392D01*
X116211546Y-87763460D01*
X116084884Y-87622788D01*
X116084883Y-87622787D01*
X115931747Y-87511527D01*
X115931742Y-87511524D01*
X115758820Y-87434533D01*
X115758815Y-87434531D01*
X115613013Y-87403541D01*
X115573659Y-87395176D01*
X115384367Y-87395176D01*
X115351910Y-87402074D01*
X115199210Y-87434531D01*
X115199205Y-87434533D01*
X115026283Y-87511524D01*
X115026278Y-87511527D01*
X114873142Y-87622787D01*
X114746479Y-87763461D01*
X114651834Y-87927391D01*
X114651831Y-87927398D01*
X114593340Y-88107416D01*
X114593339Y-88107420D01*
X114573553Y-88295676D01*
X82463471Y-88295676D01*
X81310111Y-86513210D01*
X81133092Y-86239636D01*
X81123530Y-86221823D01*
X81034082Y-86016618D01*
X79944844Y-83517779D01*
X79937062Y-83493237D01*
X79599495Y-81853627D01*
X79219925Y-80010000D01*
X82914540Y-80010000D01*
X82934326Y-80198256D01*
X82934327Y-80198259D01*
X82992818Y-80378277D01*
X82992821Y-80378284D01*
X83087467Y-80542216D01*
X83214128Y-80682888D01*
X83214129Y-80682888D01*
X83367265Y-80794148D01*
X83367270Y-80794151D01*
X83540192Y-80871142D01*
X83540197Y-80871144D01*
X83725354Y-80910500D01*
X83725355Y-80910500D01*
X83914644Y-80910500D01*
X83914646Y-80910500D01*
X84099803Y-80871144D01*
X84272730Y-80794151D01*
X84425871Y-80682888D01*
X84552533Y-80542216D01*
X84647179Y-80378284D01*
X84705674Y-80198256D01*
X84725460Y-80010000D01*
X84705674Y-79821744D01*
X84647179Y-79641716D01*
X84552533Y-79477784D01*
X84425871Y-79337112D01*
X84418549Y-79331792D01*
X84272734Y-79225851D01*
X84272729Y-79225848D01*
X84099807Y-79148857D01*
X84099802Y-79148855D01*
X83954001Y-79117865D01*
X83914646Y-79109500D01*
X83725354Y-79109500D01*
X83692897Y-79116398D01*
X83540197Y-79148855D01*
X83540192Y-79148857D01*
X83367270Y-79225848D01*
X83367265Y-79225851D01*
X83214129Y-79337111D01*
X83087466Y-79477785D01*
X82992821Y-79641715D01*
X82992818Y-79641722D01*
X82934327Y-79821740D01*
X82934326Y-79821744D01*
X82914540Y-80010000D01*
X79219925Y-80010000D01*
X78963166Y-78762887D01*
X78960853Y-78745464D01*
X78910360Y-77918867D01*
X85312773Y-77918867D01*
X85332559Y-78107123D01*
X85332560Y-78107126D01*
X85391051Y-78287144D01*
X85391054Y-78287151D01*
X85485700Y-78451083D01*
X85612361Y-78591754D01*
X85612362Y-78591755D01*
X85765498Y-78703015D01*
X85765503Y-78703018D01*
X85938425Y-78780009D01*
X85938430Y-78780011D01*
X86123587Y-78819367D01*
X86123588Y-78819367D01*
X86312877Y-78819367D01*
X86312879Y-78819367D01*
X86498036Y-78780011D01*
X86670963Y-78703018D01*
X86824104Y-78591755D01*
X86950766Y-78451083D01*
X87045412Y-78287151D01*
X87103907Y-78107123D01*
X87123693Y-77918867D01*
X87103907Y-77730611D01*
X87045412Y-77550583D01*
X86950766Y-77386651D01*
X86824104Y-77245979D01*
X86824103Y-77245978D01*
X86670967Y-77134718D01*
X86670962Y-77134715D01*
X86498040Y-77057724D01*
X86498035Y-77057722D01*
X86352233Y-77026732D01*
X86312879Y-77018367D01*
X86123587Y-77018367D01*
X86091130Y-77025265D01*
X85938430Y-77057722D01*
X85938425Y-77057724D01*
X85765503Y-77134715D01*
X85765498Y-77134718D01*
X85612362Y-77245978D01*
X85485699Y-77386652D01*
X85391054Y-77550582D01*
X85391051Y-77550589D01*
X85332560Y-77730607D01*
X85332559Y-77730611D01*
X85312773Y-77918867D01*
X78910360Y-77918867D01*
X78802046Y-76145707D01*
X78802857Y-76122110D01*
X78958461Y-74930000D01*
X87994540Y-74930000D01*
X88014326Y-75118256D01*
X88014327Y-75118259D01*
X88072818Y-75298277D01*
X88072821Y-75298284D01*
X88167467Y-75462216D01*
X88265000Y-75570537D01*
X88294129Y-75602888D01*
X88447265Y-75714148D01*
X88447270Y-75714151D01*
X88620192Y-75791142D01*
X88620197Y-75791144D01*
X88805354Y-75830500D01*
X88805355Y-75830500D01*
X88994644Y-75830500D01*
X88994646Y-75830500D01*
X89179803Y-75791144D01*
X89352730Y-75714151D01*
X89462117Y-75634676D01*
X89527920Y-75611198D01*
X89595974Y-75627023D01*
X89607871Y-75634668D01*
X89710164Y-75708988D01*
X89717270Y-75714151D01*
X89890192Y-75791142D01*
X89890197Y-75791144D01*
X90075354Y-75830500D01*
X90075355Y-75830500D01*
X90264644Y-75830500D01*
X90264646Y-75830500D01*
X90449803Y-75791144D01*
X90460470Y-75786394D01*
X90529717Y-75777107D01*
X90592995Y-75806732D01*
X90630211Y-75865865D01*
X90634864Y-75896344D01*
X90638230Y-76021693D01*
X90643017Y-76199998D01*
X90693420Y-78077507D01*
X90702396Y-78159727D01*
X90702397Y-78159732D01*
X90702396Y-78159731D01*
X90706558Y-78181296D01*
X90710057Y-78199425D01*
X90710059Y-78199432D01*
X90710059Y-78199433D01*
X90732320Y-78279080D01*
X90732320Y-78279081D01*
X90848034Y-78591755D01*
X90902896Y-78739998D01*
X90967825Y-78915446D01*
X91525542Y-80422470D01*
X91590472Y-80597918D01*
X91820031Y-81218215D01*
X91833541Y-81248469D01*
X91850176Y-81279998D01*
X91850177Y-81279999D01*
X91864127Y-81306440D01*
X91864127Y-81306441D01*
X91881479Y-81334677D01*
X92225932Y-81820686D01*
X93582083Y-83734159D01*
X93582084Y-83734160D01*
X93582083Y-83734160D01*
X93604477Y-83761490D01*
X93652437Y-83812325D01*
X93678411Y-83836262D01*
X93678412Y-83836263D01*
X96108540Y-85780364D01*
X96108539Y-85780364D01*
X96176029Y-85825954D01*
X96176032Y-85825956D01*
X96210715Y-85845514D01*
X96210714Y-85845514D01*
X96284634Y-85879668D01*
X96284633Y-85879668D01*
X96657270Y-86016620D01*
X98991101Y-86874353D01*
X98991104Y-86874354D01*
X98991107Y-86874355D01*
X98991106Y-86874354D01*
X99018162Y-86882612D01*
X99072558Y-86895941D01*
X99086472Y-86898534D01*
X99100386Y-86901128D01*
X99100385Y-86901128D01*
X101659925Y-87231354D01*
X101659926Y-87231354D01*
X101659935Y-87231354D01*
X101659939Y-87231355D01*
X101719207Y-87234722D01*
X101732096Y-87235455D01*
X101732097Y-87235455D01*
X101767447Y-87234932D01*
X101767447Y-87234933D01*
X101839454Y-87228701D01*
X101839453Y-87228701D01*
X104788543Y-86759241D01*
X104788544Y-86759241D01*
X104814131Y-86753799D01*
X104814130Y-86753799D01*
X104864125Y-86740429D01*
X104864129Y-86740427D01*
X104864139Y-86740425D01*
X104864138Y-86740425D01*
X104889007Y-86732376D01*
X104889008Y-86732376D01*
X105217776Y-86606845D01*
X105234638Y-86599691D01*
X105244250Y-86595402D01*
X105251543Y-86592149D01*
X105371836Y-86513212D01*
X105424202Y-86466956D01*
X105424203Y-86466955D01*
X105517384Y-86357325D01*
X105575904Y-86225884D01*
X105594949Y-86158660D01*
X105609348Y-86051256D01*
X105637767Y-85987427D01*
X105684816Y-85955923D01*
X105683865Y-85953788D01*
X105709161Y-85942524D01*
X105862730Y-85874151D01*
X105862734Y-85874147D01*
X105866085Y-85872656D01*
X105935335Y-85863370D01*
X105998612Y-85892998D01*
X106002402Y-85896489D01*
X106019211Y-85912628D01*
X106146868Y-85979000D01*
X106212816Y-86002081D01*
X106353993Y-86029800D01*
X106497269Y-86016621D01*
X106499626Y-86016058D01*
X106563845Y-86000715D01*
X106565045Y-86000457D01*
X106565227Y-86000385D01*
X106565229Y-86000385D01*
X106698987Y-85947374D01*
X106845661Y-85863370D01*
X108803515Y-84742055D01*
X108803517Y-84742054D01*
X108823913Y-84729040D01*
X108823911Y-84729041D01*
X108862994Y-84701386D01*
X108862994Y-84701387D01*
X108882046Y-84686488D01*
X108882047Y-84686488D01*
X109271458Y-84350787D01*
X109557791Y-84103949D01*
X109572784Y-84089924D01*
X109601324Y-84060966D01*
X109615135Y-84045764D01*
X111396278Y-81917644D01*
X111441885Y-81853632D01*
X111461689Y-81820686D01*
X111496817Y-81750391D01*
X111964653Y-80597918D01*
X112444571Y-79415681D01*
X112444570Y-79415682D01*
X112454021Y-79387860D01*
X112468030Y-79337112D01*
X112469499Y-79331792D01*
X112469501Y-79331783D01*
X112475666Y-79303031D01*
X112487900Y-79223719D01*
X112970248Y-76096566D01*
X112970248Y-76096565D01*
X112976151Y-76021696D01*
X112976151Y-76021697D01*
X112976310Y-75984954D01*
X112971055Y-75910030D01*
X112971055Y-75910031D01*
X112971054Y-75910022D01*
X112638070Y-73620011D01*
X114728521Y-73620011D01*
X114748307Y-73808267D01*
X114748308Y-73808270D01*
X114806799Y-73988288D01*
X114806802Y-73988295D01*
X114901448Y-74152227D01*
X114974154Y-74232975D01*
X115028110Y-74292899D01*
X115181246Y-74404159D01*
X115181251Y-74404162D01*
X115354173Y-74481153D01*
X115354178Y-74481155D01*
X115539335Y-74520511D01*
X115539336Y-74520511D01*
X115728625Y-74520511D01*
X115728627Y-74520511D01*
X115913784Y-74481155D01*
X116086711Y-74404162D01*
X116239852Y-74292899D01*
X116366514Y-74152227D01*
X116461160Y-73988295D01*
X116519655Y-73808267D01*
X116539441Y-73620011D01*
X116519655Y-73431755D01*
X116461160Y-73251727D01*
X116366514Y-73087795D01*
X116239852Y-72947123D01*
X116239851Y-72947122D01*
X116086715Y-72835862D01*
X116086710Y-72835859D01*
X115913788Y-72758868D01*
X115913783Y-72758866D01*
X115767982Y-72727876D01*
X115728627Y-72719511D01*
X115539335Y-72719511D01*
X115506878Y-72726409D01*
X115354178Y-72758866D01*
X115354173Y-72758868D01*
X115181251Y-72835859D01*
X115181246Y-72835862D01*
X115028110Y-72947122D01*
X114901447Y-73087796D01*
X114806802Y-73251726D01*
X114806799Y-73251733D01*
X114748308Y-73431751D01*
X114748307Y-73431755D01*
X114728521Y-73620011D01*
X112638070Y-73620011D01*
X112448029Y-72313054D01*
X112425721Y-72221135D01*
X112410673Y-72177457D01*
X112371639Y-72091316D01*
X111219170Y-70074495D01*
X110706146Y-69176703D01*
X110706146Y-69176704D01*
X110706145Y-69176702D01*
X110689529Y-69151295D01*
X110689522Y-69151285D01*
X110653695Y-69103087D01*
X110653694Y-69103087D01*
X110653693Y-69103085D01*
X110634149Y-69079847D01*
X110634144Y-69079841D01*
X108692627Y-67034314D01*
X108625994Y-66975465D01*
X108625993Y-66975464D01*
X108591030Y-66949682D01*
X108591028Y-66949681D01*
X108591029Y-66949681D01*
X108566713Y-66934861D01*
X108515134Y-66903425D01*
X105303161Y-65314708D01*
X105303162Y-65314708D01*
X105302857Y-65314586D01*
X105229792Y-65285311D01*
X105229789Y-65285310D01*
X105192891Y-65273782D01*
X105181592Y-65271201D01*
X105115851Y-65256183D01*
X105115843Y-65256182D01*
X104826249Y-65213505D01*
X104826248Y-65213504D01*
X101834287Y-64772584D01*
X101834286Y-64772584D01*
X101834281Y-64772583D01*
X101834277Y-64772583D01*
X101759927Y-64767182D01*
X101759926Y-64767182D01*
X101741691Y-64767205D01*
X101723455Y-64767229D01*
X101649085Y-64772827D01*
X101649082Y-64772827D01*
X101649074Y-64772828D01*
X99247798Y-65133193D01*
X98694067Y-65216293D01*
X98659984Y-65223843D01*
X98593778Y-65243386D01*
X98593773Y-65243388D01*
X98561051Y-65255557D01*
X98561050Y-65255557D01*
X95134140Y-66806930D01*
X95134139Y-66806930D01*
X95054992Y-66851741D01*
X95018451Y-66877023D01*
X94948628Y-66935281D01*
X93045425Y-68838486D01*
X93045424Y-68838486D01*
X92993225Y-68899743D01*
X92970179Y-68931615D01*
X92970179Y-68931616D01*
X92970177Y-68931619D01*
X92928366Y-69000372D01*
X92928365Y-69000374D01*
X92928365Y-69000373D01*
X92491157Y-69868163D01*
X92491151Y-69868176D01*
X92450243Y-69981074D01*
X92450243Y-69981076D01*
X92436990Y-70038041D01*
X92423864Y-70157391D01*
X92423864Y-70157392D01*
X92424483Y-70161422D01*
X92424023Y-70164847D01*
X92424038Y-70165521D01*
X92423933Y-70165523D01*
X92415197Y-70230672D01*
X92369946Y-70283908D01*
X92352355Y-70293513D01*
X92257267Y-70335850D01*
X92257265Y-70335851D01*
X92104129Y-70447111D01*
X91977466Y-70587785D01*
X91882821Y-70751715D01*
X91882818Y-70751722D01*
X91824327Y-70931740D01*
X91824326Y-70931744D01*
X91804540Y-71120000D01*
X91824326Y-71308256D01*
X91824327Y-71308259D01*
X91827222Y-71317169D01*
X91829217Y-71387010D01*
X91793137Y-71446843D01*
X91786846Y-71452240D01*
X91704988Y-71517855D01*
X91704984Y-71517858D01*
X91652735Y-71573687D01*
X91648924Y-71580784D01*
X91574878Y-71686842D01*
X91487416Y-71860441D01*
X91399955Y-72034040D01*
X91391596Y-72052423D01*
X91381541Y-72077106D01*
X91376515Y-72089447D01*
X91374031Y-72096318D01*
X91369643Y-72108463D01*
X91110936Y-72925005D01*
X91062563Y-73077682D01*
X90919612Y-73528870D01*
X90858519Y-73721692D01*
X90753499Y-74053159D01*
X90714485Y-74111122D01*
X90650327Y-74138791D01*
X90584854Y-74128985D01*
X90449807Y-74068857D01*
X90449802Y-74068855D01*
X90304001Y-74037865D01*
X90264646Y-74029500D01*
X90075354Y-74029500D01*
X90042897Y-74036398D01*
X89890197Y-74068855D01*
X89890192Y-74068857D01*
X89717270Y-74145848D01*
X89717265Y-74145851D01*
X89607885Y-74225321D01*
X89542079Y-74248801D01*
X89474025Y-74232975D01*
X89462115Y-74225321D01*
X89352734Y-74145851D01*
X89352729Y-74145848D01*
X89179807Y-74068857D01*
X89179802Y-74068855D01*
X89034000Y-74037865D01*
X88994646Y-74029500D01*
X88805354Y-74029500D01*
X88772897Y-74036398D01*
X88620197Y-74068855D01*
X88620192Y-74068857D01*
X88447270Y-74145848D01*
X88447265Y-74145851D01*
X88294129Y-74257111D01*
X88167466Y-74397785D01*
X88072821Y-74561715D01*
X88072818Y-74561722D01*
X88014327Y-74741740D01*
X88014326Y-74741744D01*
X87994540Y-74930000D01*
X78958461Y-74930000D01*
X79588187Y-70105566D01*
X79596447Y-70074495D01*
X79611424Y-70038041D01*
X80064980Y-68934103D01*
X89118732Y-68934103D01*
X89138518Y-69122359D01*
X89138519Y-69122362D01*
X89197010Y-69302380D01*
X89197013Y-69302387D01*
X89291659Y-69466319D01*
X89418320Y-69606991D01*
X89418321Y-69606991D01*
X89571457Y-69718251D01*
X89571462Y-69718254D01*
X89744384Y-69795245D01*
X89744389Y-69795247D01*
X89929546Y-69834603D01*
X89929547Y-69834603D01*
X90118836Y-69834603D01*
X90118838Y-69834603D01*
X90303995Y-69795247D01*
X90476922Y-69718254D01*
X90630063Y-69606991D01*
X90756725Y-69466319D01*
X90851371Y-69302387D01*
X90909866Y-69122359D01*
X90929652Y-68934103D01*
X90909866Y-68745847D01*
X90851371Y-68565819D01*
X90756725Y-68401887D01*
X90630063Y-68261215D01*
X90619085Y-68253239D01*
X90476926Y-68149954D01*
X90476921Y-68149951D01*
X90303999Y-68072960D01*
X90303994Y-68072958D01*
X90158192Y-68041968D01*
X90118838Y-68033603D01*
X89929546Y-68033603D01*
X89897089Y-68040501D01*
X89744389Y-68072958D01*
X89744384Y-68072960D01*
X89571462Y-68149951D01*
X89571457Y-68149954D01*
X89418321Y-68261214D01*
X89291658Y-68401888D01*
X89197013Y-68565818D01*
X89197010Y-68565825D01*
X89138519Y-68745843D01*
X89138518Y-68745847D01*
X89118732Y-68934103D01*
X80064980Y-68934103D01*
X81437188Y-65594197D01*
X81449171Y-65571856D01*
X84647596Y-60843749D01*
X84668120Y-60820374D01*
X85067570Y-60466879D01*
X85130816Y-60437194D01*
X85200075Y-60446415D01*
X85200180Y-60446462D01*
X85334835Y-60506415D01*
X85334840Y-60506417D01*
X85519997Y-60545773D01*
X85519998Y-60545773D01*
X85709287Y-60545773D01*
X85709289Y-60545773D01*
X85894446Y-60506417D01*
X86067373Y-60429424D01*
X86220514Y-60318161D01*
X86347176Y-60177489D01*
X86441822Y-60013557D01*
X86500317Y-59833529D01*
X86520103Y-59645273D01*
X86500317Y-59457017D01*
X86460312Y-59333897D01*
X86458318Y-59264060D01*
X86494398Y-59204227D01*
X86495991Y-59202789D01*
X88038559Y-57837685D01*
X111389886Y-57837685D01*
X111409672Y-58025941D01*
X111409673Y-58025944D01*
X111468164Y-58205962D01*
X111468167Y-58205969D01*
X111562813Y-58369901D01*
X111689474Y-58510572D01*
X111689475Y-58510573D01*
X111842611Y-58621833D01*
X111842616Y-58621836D01*
X112015538Y-58698827D01*
X112015543Y-58698829D01*
X112200700Y-58738185D01*
X112200701Y-58738185D01*
X112389990Y-58738185D01*
X112389992Y-58738185D01*
X112575149Y-58698829D01*
X112748076Y-58621836D01*
X112901217Y-58510573D01*
X113027879Y-58369901D01*
X113122525Y-58205969D01*
X113181020Y-58025941D01*
X113200806Y-57837685D01*
X113181020Y-57649429D01*
X113122525Y-57469401D01*
X113027879Y-57305469D01*
X112901217Y-57164797D01*
X112901216Y-57164796D01*
X112748080Y-57053536D01*
X112748075Y-57053533D01*
X112575153Y-56976542D01*
X112575148Y-56976540D01*
X112421485Y-56943879D01*
X112389992Y-56937185D01*
X112200700Y-56937185D01*
X112169207Y-56943879D01*
X112015543Y-56976540D01*
X112015538Y-56976542D01*
X111842616Y-57053533D01*
X111842611Y-57053536D01*
X111689475Y-57164796D01*
X111562812Y-57305470D01*
X111468167Y-57469400D01*
X111468164Y-57469407D01*
X111409673Y-57649425D01*
X111409672Y-57649429D01*
X111389886Y-57837685D01*
X88038559Y-57837685D01*
X88593315Y-57346751D01*
X88617584Y-57329964D01*
X89848574Y-56680001D01*
X99019500Y-56680001D01*
X99019501Y-56680018D01*
X99030000Y-56782796D01*
X99030001Y-56782799D01*
X99085185Y-56949331D01*
X99085187Y-56949336D01*
X99101967Y-56976540D01*
X99177288Y-57098656D01*
X99301344Y-57222712D01*
X99450666Y-57314814D01*
X99617203Y-57369999D01*
X99719991Y-57380500D01*
X101020008Y-57380499D01*
X101122797Y-57369999D01*
X101289334Y-57314814D01*
X101438656Y-57222712D01*
X101562712Y-57098656D01*
X101654814Y-56949334D01*
X101654814Y-56949331D01*
X101658178Y-56943879D01*
X101710126Y-56897154D01*
X101779088Y-56885931D01*
X101843170Y-56913774D01*
X101851398Y-56921294D01*
X101998599Y-57068495D01*
X102041675Y-57098657D01*
X102192165Y-57204032D01*
X102192167Y-57204033D01*
X102192170Y-57204035D01*
X102406337Y-57303903D01*
X102634592Y-57365063D01*
X102811034Y-57380500D01*
X102869999Y-57385659D01*
X102870000Y-57385659D01*
X102870001Y-57385659D01*
X102928966Y-57380500D01*
X103105408Y-57365063D01*
X103333663Y-57303903D01*
X103547829Y-57204035D01*
X103741401Y-57068495D01*
X103908495Y-56901401D01*
X104044035Y-56707829D01*
X104143903Y-56493663D01*
X104205063Y-56265408D01*
X104220500Y-56088966D01*
X104220500Y-55671034D01*
X104205063Y-55494592D01*
X104143903Y-55266337D01*
X104044035Y-55052171D01*
X104032458Y-55035636D01*
X103908494Y-54858597D01*
X103741402Y-54691506D01*
X103741395Y-54691501D01*
X103547834Y-54555967D01*
X103547830Y-54555965D01*
X103507777Y-54537288D01*
X103333663Y-54456097D01*
X103333659Y-54456096D01*
X103333655Y-54456094D01*
X103105413Y-54394938D01*
X103105403Y-54394936D01*
X102870001Y-54374341D01*
X102869999Y-54374341D01*
X102634596Y-54394936D01*
X102634586Y-54394938D01*
X102406344Y-54456094D01*
X102406335Y-54456098D01*
X102192171Y-54555964D01*
X102192169Y-54555965D01*
X101998597Y-54691505D01*
X101851398Y-54838705D01*
X101790075Y-54872190D01*
X101720383Y-54867206D01*
X101664450Y-54825334D01*
X101658178Y-54816120D01*
X101562712Y-54661344D01*
X101438657Y-54537289D01*
X101438656Y-54537289D01*
X101438656Y-54537288D01*
X101345888Y-54480069D01*
X101289336Y-54445187D01*
X101289331Y-54445185D01*
X101287862Y-54444698D01*
X101122797Y-54390001D01*
X101122795Y-54390000D01*
X101020010Y-54379500D01*
X99719998Y-54379500D01*
X99719981Y-54379501D01*
X99617203Y-54390000D01*
X99617200Y-54390001D01*
X99450668Y-54445185D01*
X99450663Y-54445187D01*
X99301342Y-54537289D01*
X99177289Y-54661342D01*
X99085187Y-54810663D01*
X99085185Y-54810668D01*
X99066450Y-54867206D01*
X99030001Y-54977203D01*
X99030001Y-54977204D01*
X99030000Y-54977204D01*
X99019500Y-55079983D01*
X99019500Y-56680001D01*
X89848574Y-56680001D01*
X92962902Y-55035636D01*
X92981276Y-55027758D01*
X97010508Y-53673102D01*
X97039503Y-53667085D01*
X101649485Y-53274876D01*
X101673139Y-53275129D01*
G37*
%TD.AperFunction*%
%TD*%
M02*
