%TF.GenerationSoftware,KiCad,Pcbnew,7.0.7*%
%TF.CreationDate,2023-11-13T21:50:39-08:00*%
%TF.ProjectId,Final_Project_Transmit,46696e61-6c5f-4507-926f-6a6563745f54,rev?*%
%TF.SameCoordinates,Original*%
%TF.FileFunction,Copper,L2,Inr*%
%TF.FilePolarity,Positive*%
%FSLAX46Y46*%
G04 Gerber Fmt 4.6, Leading zero omitted, Abs format (unit mm)*
G04 Created by KiCad (PCBNEW 7.0.7) date 2023-11-13 21:50:39*
%MOMM*%
%LPD*%
G01*
G04 APERTURE LIST*
G04 Aperture macros list*
%AMRoundRect*
0 Rectangle with rounded corners*
0 $1 Rounding radius*
0 $2 $3 $4 $5 $6 $7 $8 $9 X,Y pos of 4 corners*
0 Add a 4 corners polygon primitive as box body*
4,1,4,$2,$3,$4,$5,$6,$7,$8,$9,$2,$3,0*
0 Add four circle primitives for the rounded corners*
1,1,$1+$1,$2,$3*
1,1,$1+$1,$4,$5*
1,1,$1+$1,$6,$7*
1,1,$1+$1,$8,$9*
0 Add four rect primitives between the rounded corners*
20,1,$1+$1,$2,$3,$4,$5,0*
20,1,$1+$1,$4,$5,$6,$7,0*
20,1,$1+$1,$6,$7,$8,$9,0*
20,1,$1+$1,$8,$9,$2,$3,0*%
G04 Aperture macros list end*
%TA.AperFunction,ComponentPad*%
%ADD10RoundRect,0.250000X-0.600000X-0.750000X0.600000X-0.750000X0.600000X0.750000X-0.600000X0.750000X0*%
%TD*%
%TA.AperFunction,ComponentPad*%
%ADD11O,1.700000X2.000000*%
%TD*%
%TA.AperFunction,ViaPad*%
%ADD12C,0.800000*%
%TD*%
G04 APERTURE END LIST*
D10*
%TO.N,VCC*%
%TO.C,BT1*%
X100370000Y-55880000D03*
D11*
%TO.N,GND*%
X102870000Y-55880000D03*
%TD*%
D12*
%TO.N,Net-(Q4-S)*%
X86218233Y-77918867D03*
%TO.N,GND*%
X102279366Y-80664640D03*
%TO.N,+3V3*%
X97790000Y-85090000D03*
%TO.N,+1V5*%
X86360000Y-86360000D03*
%TO.N,+3V3*%
X101633045Y-71817394D03*
X105838647Y-76621486D03*
%TO.N,GND*%
X99875725Y-71791741D03*
X98080256Y-71791741D03*
%TO.N,/SDA_3V*%
X100345943Y-80422472D03*
%TO.N,Net-(Q2-S)*%
X105410000Y-85090000D03*
%TO.N,/SDO*%
X88900000Y-74930000D03*
%TO.N,+1V5*%
X93183130Y-86691364D03*
%TO.N,GND*%
X112295346Y-57837685D03*
%TO.N,+1V5*%
X111760000Y-64770000D03*
%TO.N,Net-(Q4-S)*%
X115479013Y-88295676D03*
%TO.N,+1V5*%
X111760000Y-88900000D03*
X82550000Y-73660000D03*
%TO.N,GND*%
X83820000Y-80010000D03*
%TO.N,+3V3*%
X105410000Y-82550000D03*
%TO.N,GND*%
X109220000Y-81280000D03*
%TO.N,Net-(JP4-B)*%
X96430932Y-78604050D03*
%TO.N,Net-(JP1-B)*%
X95250000Y-78740000D03*
%TO.N,GND*%
X90170000Y-74930000D03*
X115633981Y-73620011D03*
%TO.N,Net-(JP9-B)*%
X107950000Y-76200000D03*
X104560526Y-78751365D03*
%TO.N,+3V3*%
X104140000Y-66040000D03*
%TO.N,+1V5*%
X99508040Y-88644616D03*
X99499079Y-87408025D03*
%TO.N,+3V3*%
X99677906Y-84706536D03*
X99630862Y-85929686D03*
%TO.N,Net-(U3-P1.7{slash}TMS...)*%
X97198726Y-73077684D03*
X95535309Y-75427184D03*
%TO.N,Net-(U3-P1.6{slash}TDO...)*%
X90024192Y-68934103D03*
X92710000Y-71120000D03*
%TO.N,GND*%
X103470559Y-73528872D03*
X85614643Y-59645273D03*
%TO.N,+1V5*%
X83928697Y-65392191D03*
%TD*%
%TA.AperFunction,Conductor*%
%TO.N,GND*%
G36*
X101611816Y-53341260D02*
G01*
X106592360Y-53872739D01*
X106619694Y-53878837D01*
X111348296Y-55512987D01*
X111367067Y-55521272D01*
X114107858Y-57013093D01*
X114127253Y-57026163D01*
X116423444Y-58911456D01*
X117434269Y-59741398D01*
X117440065Y-59746812D01*
X120257354Y-62738007D01*
X120274635Y-62761302D01*
X122566021Y-66753869D01*
X122577446Y-66780640D01*
X124386834Y-72939518D01*
X124391265Y-72962313D01*
X124459701Y-73656970D01*
X124460000Y-73663052D01*
X124460000Y-78722939D01*
X124455392Y-78756428D01*
X122961212Y-84083385D01*
X122951460Y-84107819D01*
X120029572Y-89638537D01*
X120013251Y-89662269D01*
X117585057Y-92437347D01*
X117567516Y-92453843D01*
X112837697Y-96105541D01*
X112811251Y-96121155D01*
X108887723Y-97822508D01*
X108866401Y-97829538D01*
X104066822Y-98942484D01*
X104044611Y-98945553D01*
X101609822Y-99059540D01*
X101590233Y-99058907D01*
X97149958Y-98562038D01*
X97126545Y-98557094D01*
X92815785Y-97201291D01*
X92796174Y-97193223D01*
X89425067Y-95455538D01*
X89408874Y-95445549D01*
X87654826Y-94167910D01*
X86597810Y-93397985D01*
X86577404Y-93379301D01*
X83453536Y-89800500D01*
X82993737Y-89273740D01*
X82983048Y-89259561D01*
X81263820Y-86602573D01*
X81106861Y-86360000D01*
X85454540Y-86360000D01*
X85474326Y-86548256D01*
X85474327Y-86548259D01*
X85532818Y-86728277D01*
X85532821Y-86728284D01*
X85627467Y-86892216D01*
X85754129Y-87032888D01*
X85907265Y-87144148D01*
X85907270Y-87144151D01*
X86080192Y-87221142D01*
X86080197Y-87221144D01*
X86265354Y-87260500D01*
X86265355Y-87260500D01*
X86454644Y-87260500D01*
X86454646Y-87260500D01*
X86639803Y-87221144D01*
X86812730Y-87144151D01*
X86965871Y-87032888D01*
X87092533Y-86892216D01*
X87187179Y-86728284D01*
X87199175Y-86691364D01*
X92277670Y-86691364D01*
X92297456Y-86879620D01*
X92297457Y-86879623D01*
X92355948Y-87059641D01*
X92355951Y-87059648D01*
X92450597Y-87223580D01*
X92577258Y-87364251D01*
X92577259Y-87364252D01*
X92730395Y-87475512D01*
X92730400Y-87475515D01*
X92903322Y-87552506D01*
X92903327Y-87552508D01*
X93088484Y-87591864D01*
X93088485Y-87591864D01*
X93277774Y-87591864D01*
X93277776Y-87591864D01*
X93462933Y-87552508D01*
X93635860Y-87475515D01*
X93789001Y-87364252D01*
X93915663Y-87223580D01*
X94010309Y-87059648D01*
X94068804Y-86879620D01*
X94088590Y-86691364D01*
X94068804Y-86503108D01*
X94010309Y-86323080D01*
X93915663Y-86159148D01*
X93789001Y-86018476D01*
X93789000Y-86018475D01*
X93635864Y-85907215D01*
X93635859Y-85907212D01*
X93462937Y-85830221D01*
X93462932Y-85830219D01*
X93317131Y-85799229D01*
X93277776Y-85790864D01*
X93088484Y-85790864D01*
X93056027Y-85797762D01*
X92903327Y-85830219D01*
X92903322Y-85830221D01*
X92730400Y-85907212D01*
X92730395Y-85907215D01*
X92577259Y-86018475D01*
X92450596Y-86159149D01*
X92355951Y-86323079D01*
X92355948Y-86323086D01*
X92297457Y-86503104D01*
X92297456Y-86503108D01*
X92277670Y-86691364D01*
X87199175Y-86691364D01*
X87245674Y-86548256D01*
X87265460Y-86360000D01*
X87245674Y-86171744D01*
X87187179Y-85991716D01*
X87092533Y-85827784D01*
X86965871Y-85687112D01*
X86965870Y-85687111D01*
X86812734Y-85575851D01*
X86812729Y-85575848D01*
X86639807Y-85498857D01*
X86639802Y-85498855D01*
X86494000Y-85467865D01*
X86454646Y-85459500D01*
X86265354Y-85459500D01*
X86232897Y-85466398D01*
X86080197Y-85498855D01*
X86080192Y-85498857D01*
X85907270Y-85575848D01*
X85907265Y-85575851D01*
X85754129Y-85687111D01*
X85627466Y-85827785D01*
X85532821Y-85991715D01*
X85532818Y-85991722D01*
X85478418Y-86159149D01*
X85474326Y-86171744D01*
X85454540Y-86360000D01*
X81106861Y-86360000D01*
X81071769Y-86305767D01*
X81062207Y-86287954D01*
X80932548Y-85990500D01*
X80540022Y-85090000D01*
X96884540Y-85090000D01*
X96904326Y-85278256D01*
X96904327Y-85278259D01*
X96962818Y-85458277D01*
X96962821Y-85458284D01*
X97057467Y-85622216D01*
X97164808Y-85741430D01*
X97184129Y-85762888D01*
X97337265Y-85874148D01*
X97337270Y-85874151D01*
X97510192Y-85951142D01*
X97510197Y-85951144D01*
X97695354Y-85990500D01*
X97695355Y-85990500D01*
X97884644Y-85990500D01*
X97884646Y-85990500D01*
X98069803Y-85951144D01*
X98242730Y-85874151D01*
X98395871Y-85762888D01*
X98522533Y-85622216D01*
X98530484Y-85608443D01*
X98581048Y-85560230D01*
X98649655Y-85547005D01*
X98714520Y-85572972D01*
X98755050Y-85629885D01*
X98758376Y-85699675D01*
X98755802Y-85708761D01*
X98745189Y-85741424D01*
X98745189Y-85741426D01*
X98745188Y-85741430D01*
X98725402Y-85929686D01*
X98745188Y-86117942D01*
X98745189Y-86117945D01*
X98803680Y-86297963D01*
X98803683Y-86297970D01*
X98898329Y-86461902D01*
X98935428Y-86503104D01*
X98952881Y-86522488D01*
X98983111Y-86585479D01*
X98974486Y-86654815D01*
X98933617Y-86705777D01*
X98893210Y-86735134D01*
X98893208Y-86735136D01*
X98766545Y-86875810D01*
X98671900Y-87039740D01*
X98671897Y-87039747D01*
X98613406Y-87219765D01*
X98613405Y-87219769D01*
X98593619Y-87408025D01*
X98613405Y-87596281D01*
X98613406Y-87596284D01*
X98671897Y-87776302D01*
X98671900Y-87776309D01*
X98766546Y-87940241D01*
X98773570Y-87948042D01*
X98773824Y-87948324D01*
X98804054Y-88011315D01*
X98795429Y-88080651D01*
X98778699Y-88106681D01*
X98779329Y-88107139D01*
X98775505Y-88112401D01*
X98680861Y-88276331D01*
X98680858Y-88276338D01*
X98622367Y-88456356D01*
X98622366Y-88456360D01*
X98602580Y-88644616D01*
X98622366Y-88832872D01*
X98622367Y-88832875D01*
X98680858Y-89012893D01*
X98680861Y-89012900D01*
X98775507Y-89176832D01*
X98849997Y-89259561D01*
X98902169Y-89317504D01*
X99055305Y-89428764D01*
X99055310Y-89428767D01*
X99228232Y-89505758D01*
X99228237Y-89505760D01*
X99413394Y-89545116D01*
X99413395Y-89545116D01*
X99602684Y-89545116D01*
X99602686Y-89545116D01*
X99787843Y-89505760D01*
X99960770Y-89428767D01*
X100113911Y-89317504D01*
X100240573Y-89176832D01*
X100335219Y-89012900D01*
X100371903Y-88900000D01*
X110854540Y-88900000D01*
X110874326Y-89088256D01*
X110874327Y-89088259D01*
X110932818Y-89268277D01*
X110932821Y-89268284D01*
X111027467Y-89432216D01*
X111093685Y-89505758D01*
X111154129Y-89572888D01*
X111307265Y-89684148D01*
X111307270Y-89684151D01*
X111480192Y-89761142D01*
X111480197Y-89761144D01*
X111665354Y-89800500D01*
X111665355Y-89800500D01*
X111854644Y-89800500D01*
X111854646Y-89800500D01*
X112039803Y-89761144D01*
X112212730Y-89684151D01*
X112365871Y-89572888D01*
X112492533Y-89432216D01*
X112587179Y-89268284D01*
X112645674Y-89088256D01*
X112665460Y-88900000D01*
X112645674Y-88711744D01*
X112587179Y-88531716D01*
X112492533Y-88367784D01*
X112427606Y-88295676D01*
X114573553Y-88295676D01*
X114593339Y-88483932D01*
X114593340Y-88483935D01*
X114651831Y-88663953D01*
X114651834Y-88663960D01*
X114746480Y-88827892D01*
X114750967Y-88832875D01*
X114873142Y-88968564D01*
X115026278Y-89079824D01*
X115026283Y-89079827D01*
X115199205Y-89156818D01*
X115199210Y-89156820D01*
X115384367Y-89196176D01*
X115384368Y-89196176D01*
X115573657Y-89196176D01*
X115573659Y-89196176D01*
X115758816Y-89156820D01*
X115931743Y-89079827D01*
X116084884Y-88968564D01*
X116211546Y-88827892D01*
X116306192Y-88663960D01*
X116364687Y-88483932D01*
X116384473Y-88295676D01*
X116364687Y-88107420D01*
X116306192Y-87927392D01*
X116211546Y-87763460D01*
X116084884Y-87622788D01*
X116084883Y-87622787D01*
X115931747Y-87511527D01*
X115931742Y-87511524D01*
X115758820Y-87434533D01*
X115758815Y-87434531D01*
X115613013Y-87403541D01*
X115573659Y-87395176D01*
X115384367Y-87395176D01*
X115351910Y-87402074D01*
X115199210Y-87434531D01*
X115199205Y-87434533D01*
X115026283Y-87511524D01*
X115026278Y-87511527D01*
X114873142Y-87622787D01*
X114746479Y-87763461D01*
X114651834Y-87927391D01*
X114651831Y-87927398D01*
X114594347Y-88104317D01*
X114593339Y-88107420D01*
X114573553Y-88295676D01*
X112427606Y-88295676D01*
X112365871Y-88227112D01*
X112365870Y-88227111D01*
X112212734Y-88115851D01*
X112212729Y-88115848D01*
X112039807Y-88038857D01*
X112039802Y-88038855D01*
X111894001Y-88007865D01*
X111854646Y-87999500D01*
X111665354Y-87999500D01*
X111632897Y-88006398D01*
X111480197Y-88038855D01*
X111480192Y-88038857D01*
X111307270Y-88115848D01*
X111307265Y-88115851D01*
X111154129Y-88227111D01*
X111027466Y-88367785D01*
X110932821Y-88531715D01*
X110932818Y-88531722D01*
X110896137Y-88644616D01*
X110874326Y-88711744D01*
X110854540Y-88900000D01*
X100371903Y-88900000D01*
X100393714Y-88832872D01*
X100413500Y-88644616D01*
X100393714Y-88456360D01*
X100335219Y-88276332D01*
X100277296Y-88176006D01*
X100240575Y-88112403D01*
X100240574Y-88112402D01*
X100240573Y-88112400D01*
X100233292Y-88104314D01*
X100203064Y-88041325D01*
X100211689Y-87971990D01*
X100228422Y-87945961D01*
X100227790Y-87945502D01*
X100231608Y-87940245D01*
X100231612Y-87940241D01*
X100326258Y-87776309D01*
X100384753Y-87596281D01*
X100404539Y-87408025D01*
X100384753Y-87219769D01*
X100326258Y-87039741D01*
X100231612Y-86875809D01*
X100177058Y-86815221D01*
X100146829Y-86752231D01*
X100155454Y-86682896D01*
X100196323Y-86631933D01*
X100236733Y-86602574D01*
X100363395Y-86461902D01*
X100458041Y-86297970D01*
X100516536Y-86117942D01*
X100536322Y-85929686D01*
X100516536Y-85741430D01*
X100458041Y-85561402D01*
X100458038Y-85561396D01*
X100370986Y-85410616D01*
X100354513Y-85342716D01*
X100377366Y-85276689D01*
X100386218Y-85265651D01*
X100410439Y-85238752D01*
X100496321Y-85090000D01*
X104504540Y-85090000D01*
X104524326Y-85278256D01*
X104524327Y-85278259D01*
X104582818Y-85458277D01*
X104582821Y-85458284D01*
X104677467Y-85622216D01*
X104784808Y-85741430D01*
X104804129Y-85762888D01*
X104957265Y-85874148D01*
X104957270Y-85874151D01*
X105130192Y-85951142D01*
X105130197Y-85951144D01*
X105315354Y-85990500D01*
X105315355Y-85990500D01*
X105504644Y-85990500D01*
X105504646Y-85990500D01*
X105689803Y-85951144D01*
X105862730Y-85874151D01*
X106015871Y-85762888D01*
X106142533Y-85622216D01*
X106237179Y-85458284D01*
X106295674Y-85278256D01*
X106315460Y-85090000D01*
X106295674Y-84901744D01*
X106237179Y-84721716D01*
X106142533Y-84557784D01*
X106015871Y-84417112D01*
X106015870Y-84417111D01*
X105862734Y-84305851D01*
X105862729Y-84305848D01*
X105689807Y-84228857D01*
X105689802Y-84228855D01*
X105544000Y-84197865D01*
X105504646Y-84189500D01*
X105315354Y-84189500D01*
X105282897Y-84196398D01*
X105130197Y-84228855D01*
X105130192Y-84228857D01*
X104957270Y-84305848D01*
X104957265Y-84305851D01*
X104804129Y-84417111D01*
X104677466Y-84557785D01*
X104582821Y-84721715D01*
X104582818Y-84721722D01*
X104526585Y-84894792D01*
X104524326Y-84901744D01*
X104504540Y-85090000D01*
X100496321Y-85090000D01*
X100505085Y-85074820D01*
X100563580Y-84894792D01*
X100583366Y-84706536D01*
X100563580Y-84518280D01*
X100505085Y-84338252D01*
X100410439Y-84174320D01*
X100283777Y-84033648D01*
X100283776Y-84033647D01*
X100130640Y-83922387D01*
X100130635Y-83922384D01*
X99957713Y-83845393D01*
X99957708Y-83845391D01*
X99811906Y-83814401D01*
X99772552Y-83806036D01*
X99583260Y-83806036D01*
X99550803Y-83812934D01*
X99398103Y-83845391D01*
X99398098Y-83845393D01*
X99225176Y-83922384D01*
X99225171Y-83922387D01*
X99072035Y-84033647D01*
X98945372Y-84174321D01*
X98850727Y-84338251D01*
X98850724Y-84338258D01*
X98792233Y-84518276D01*
X98792232Y-84518280D01*
X98788080Y-84557784D01*
X98787075Y-84567350D01*
X98760490Y-84631964D01*
X98703192Y-84671948D01*
X98633373Y-84674608D01*
X98573200Y-84639098D01*
X98556369Y-84616390D01*
X98522533Y-84557784D01*
X98395871Y-84417112D01*
X98395870Y-84417111D01*
X98242734Y-84305851D01*
X98242729Y-84305848D01*
X98069807Y-84228857D01*
X98069802Y-84228855D01*
X97924001Y-84197865D01*
X97884646Y-84189500D01*
X97695354Y-84189500D01*
X97662897Y-84196398D01*
X97510197Y-84228855D01*
X97510192Y-84228857D01*
X97337270Y-84305848D01*
X97337265Y-84305851D01*
X97184129Y-84417111D01*
X97057466Y-84557785D01*
X96962821Y-84721715D01*
X96962818Y-84721722D01*
X96906585Y-84894792D01*
X96904326Y-84901744D01*
X96884540Y-85090000D01*
X80540022Y-85090000D01*
X79883521Y-83583910D01*
X79875739Y-83559368D01*
X79853325Y-83450500D01*
X79667928Y-82550000D01*
X104504540Y-82550000D01*
X104524326Y-82738256D01*
X104524327Y-82738259D01*
X104582818Y-82918277D01*
X104582821Y-82918284D01*
X104677467Y-83082216D01*
X104765037Y-83179472D01*
X104804129Y-83222888D01*
X104957265Y-83334148D01*
X104957270Y-83334151D01*
X105130192Y-83411142D01*
X105130197Y-83411144D01*
X105315354Y-83450500D01*
X105315355Y-83450500D01*
X105504644Y-83450500D01*
X105504646Y-83450500D01*
X105689803Y-83411144D01*
X105862730Y-83334151D01*
X106015871Y-83222888D01*
X106142533Y-83082216D01*
X106237179Y-82918284D01*
X106295674Y-82738256D01*
X106315460Y-82550000D01*
X106295674Y-82361744D01*
X106237179Y-82181716D01*
X106142533Y-82017784D01*
X106015871Y-81877112D01*
X106015870Y-81877111D01*
X105862734Y-81765851D01*
X105862729Y-81765848D01*
X105689807Y-81688857D01*
X105689802Y-81688855D01*
X105544000Y-81657865D01*
X105504646Y-81649500D01*
X105315354Y-81649500D01*
X105282897Y-81656398D01*
X105130197Y-81688855D01*
X105130192Y-81688857D01*
X104957270Y-81765848D01*
X104957265Y-81765851D01*
X104804129Y-81877111D01*
X104677466Y-82017785D01*
X104582821Y-82181715D01*
X104582818Y-82181722D01*
X104524327Y-82361740D01*
X104524326Y-82361744D01*
X104504540Y-82550000D01*
X79667928Y-82550000D01*
X79229907Y-80422472D01*
X99440483Y-80422472D01*
X99460269Y-80610728D01*
X99460270Y-80610731D01*
X99518761Y-80790749D01*
X99518764Y-80790756D01*
X99613410Y-80954688D01*
X99740072Y-81095360D01*
X99893208Y-81206620D01*
X99893213Y-81206623D01*
X100066135Y-81283614D01*
X100066140Y-81283616D01*
X100251297Y-81322972D01*
X100251298Y-81322972D01*
X100440587Y-81322972D01*
X100440589Y-81322972D01*
X100625746Y-81283616D01*
X100798673Y-81206623D01*
X100951814Y-81095360D01*
X101078476Y-80954688D01*
X101173122Y-80790756D01*
X101231617Y-80610728D01*
X101251403Y-80422472D01*
X101231617Y-80234216D01*
X101173122Y-80054188D01*
X101078476Y-79890256D01*
X100951814Y-79749584D01*
X100951813Y-79749583D01*
X100798677Y-79638323D01*
X100798672Y-79638320D01*
X100625750Y-79561329D01*
X100625745Y-79561327D01*
X100450826Y-79524148D01*
X100440589Y-79521972D01*
X100251297Y-79521972D01*
X100241060Y-79524148D01*
X100066140Y-79561327D01*
X100066135Y-79561329D01*
X99893213Y-79638320D01*
X99893208Y-79638323D01*
X99740072Y-79749583D01*
X99613409Y-79890257D01*
X99518764Y-80054187D01*
X99518761Y-80054194D01*
X99460270Y-80234212D01*
X99460269Y-80234216D01*
X99440483Y-80422472D01*
X79229907Y-80422472D01*
X78901843Y-78829018D01*
X78899530Y-78811595D01*
X78844997Y-77918867D01*
X85312773Y-77918867D01*
X85332559Y-78107123D01*
X85332560Y-78107126D01*
X85391051Y-78287144D01*
X85391054Y-78287151D01*
X85485700Y-78451083D01*
X85586569Y-78563109D01*
X85612362Y-78591755D01*
X85765498Y-78703015D01*
X85765503Y-78703018D01*
X85938425Y-78780009D01*
X85938430Y-78780011D01*
X86123587Y-78819367D01*
X86123588Y-78819367D01*
X86312877Y-78819367D01*
X86312879Y-78819367D01*
X86498036Y-78780011D01*
X86587901Y-78740000D01*
X94344540Y-78740000D01*
X94364326Y-78928256D01*
X94364327Y-78928259D01*
X94422818Y-79108277D01*
X94422821Y-79108284D01*
X94517467Y-79272216D01*
X94617741Y-79383581D01*
X94644129Y-79412888D01*
X94797265Y-79524148D01*
X94797270Y-79524151D01*
X94970192Y-79601142D01*
X94970197Y-79601144D01*
X95155354Y-79640500D01*
X95155355Y-79640500D01*
X95344644Y-79640500D01*
X95344646Y-79640500D01*
X95529803Y-79601144D01*
X95702730Y-79524151D01*
X95783880Y-79465192D01*
X95861129Y-79409068D01*
X95862061Y-79410350D01*
X95917820Y-79383581D01*
X95987156Y-79392194D01*
X95988257Y-79392678D01*
X96151124Y-79465192D01*
X96151129Y-79465194D01*
X96336286Y-79504550D01*
X96336287Y-79504550D01*
X96525576Y-79504550D01*
X96525578Y-79504550D01*
X96710735Y-79465194D01*
X96883662Y-79388201D01*
X97036803Y-79276938D01*
X97163465Y-79136266D01*
X97258111Y-78972334D01*
X97316606Y-78792306D01*
X97320909Y-78751365D01*
X103655066Y-78751365D01*
X103674852Y-78939621D01*
X103674853Y-78939624D01*
X103733344Y-79119642D01*
X103733347Y-79119649D01*
X103827993Y-79283581D01*
X103918034Y-79383581D01*
X103954655Y-79424253D01*
X104107791Y-79535513D01*
X104107796Y-79535516D01*
X104280718Y-79612507D01*
X104280723Y-79612509D01*
X104465880Y-79651865D01*
X104465881Y-79651865D01*
X104655170Y-79651865D01*
X104655172Y-79651865D01*
X104840329Y-79612509D01*
X105013256Y-79535516D01*
X105166397Y-79424253D01*
X105293059Y-79283581D01*
X105387705Y-79119649D01*
X105446200Y-78939621D01*
X105465986Y-78751365D01*
X105446200Y-78563109D01*
X105387705Y-78383081D01*
X105293059Y-78219149D01*
X105166397Y-78078477D01*
X105157254Y-78071834D01*
X105013260Y-77967216D01*
X105013255Y-77967213D01*
X104840333Y-77890222D01*
X104840328Y-77890220D01*
X104694527Y-77859230D01*
X104655172Y-77850865D01*
X104465880Y-77850865D01*
X104433423Y-77857763D01*
X104280723Y-77890220D01*
X104280718Y-77890222D01*
X104107796Y-77967213D01*
X104107791Y-77967216D01*
X103954655Y-78078476D01*
X103827992Y-78219150D01*
X103733347Y-78383080D01*
X103733344Y-78383087D01*
X103674853Y-78563105D01*
X103674852Y-78563109D01*
X103655066Y-78751365D01*
X97320909Y-78751365D01*
X97336392Y-78604050D01*
X97316606Y-78415794D01*
X97258111Y-78235766D01*
X97163465Y-78071834D01*
X97036803Y-77931162D01*
X97036802Y-77931161D01*
X96883666Y-77819901D01*
X96883661Y-77819898D01*
X96710739Y-77742907D01*
X96710734Y-77742905D01*
X96564932Y-77711915D01*
X96525578Y-77703550D01*
X96336286Y-77703550D01*
X96303829Y-77710448D01*
X96151129Y-77742905D01*
X96151124Y-77742907D01*
X95978202Y-77819898D01*
X95978197Y-77819901D01*
X95819804Y-77934981D01*
X95818877Y-77933705D01*
X95763062Y-77960476D01*
X95693729Y-77951836D01*
X95692673Y-77951371D01*
X95529807Y-77878857D01*
X95529802Y-77878855D01*
X95384000Y-77847865D01*
X95344646Y-77839500D01*
X95155354Y-77839500D01*
X95122897Y-77846398D01*
X94970197Y-77878855D01*
X94970192Y-77878857D01*
X94797270Y-77955848D01*
X94797265Y-77955851D01*
X94644129Y-78067111D01*
X94517466Y-78207785D01*
X94422821Y-78371715D01*
X94422818Y-78371722D01*
X94364327Y-78551740D01*
X94364326Y-78551744D01*
X94344540Y-78740000D01*
X86587901Y-78740000D01*
X86670963Y-78703018D01*
X86824104Y-78591755D01*
X86950766Y-78451083D01*
X87045412Y-78287151D01*
X87103907Y-78107123D01*
X87123693Y-77918867D01*
X87103907Y-77730611D01*
X87045412Y-77550583D01*
X86950766Y-77386651D01*
X86824104Y-77245979D01*
X86824103Y-77245978D01*
X86670967Y-77134718D01*
X86670962Y-77134715D01*
X86498040Y-77057724D01*
X86498035Y-77057722D01*
X86352233Y-77026732D01*
X86312879Y-77018367D01*
X86123587Y-77018367D01*
X86091130Y-77025265D01*
X85938430Y-77057722D01*
X85938425Y-77057724D01*
X85765503Y-77134715D01*
X85765498Y-77134718D01*
X85612362Y-77245978D01*
X85485699Y-77386652D01*
X85391054Y-77550582D01*
X85391051Y-77550589D01*
X85332560Y-77730607D01*
X85332559Y-77730611D01*
X85312773Y-77918867D01*
X78844997Y-77918867D01*
X78765746Y-76621486D01*
X104933187Y-76621486D01*
X104952973Y-76809742D01*
X104952974Y-76809745D01*
X105011465Y-76989763D01*
X105011468Y-76989770D01*
X105106114Y-77153702D01*
X105156837Y-77210035D01*
X105232776Y-77294374D01*
X105385912Y-77405634D01*
X105385917Y-77405637D01*
X105558839Y-77482628D01*
X105558844Y-77482630D01*
X105744001Y-77521986D01*
X105744002Y-77521986D01*
X105933291Y-77521986D01*
X105933293Y-77521986D01*
X106118450Y-77482630D01*
X106291377Y-77405637D01*
X106444518Y-77294374D01*
X106571180Y-77153702D01*
X106665826Y-76989770D01*
X106724321Y-76809742D01*
X106744107Y-76621486D01*
X106724321Y-76433230D01*
X106665826Y-76253202D01*
X106635110Y-76200000D01*
X107044540Y-76200000D01*
X107064326Y-76388256D01*
X107064327Y-76388259D01*
X107122818Y-76568277D01*
X107122821Y-76568284D01*
X107217467Y-76732216D01*
X107287272Y-76809742D01*
X107344129Y-76872888D01*
X107497265Y-76984148D01*
X107497270Y-76984151D01*
X107670192Y-77061142D01*
X107670197Y-77061144D01*
X107855354Y-77100500D01*
X107855355Y-77100500D01*
X108044644Y-77100500D01*
X108044646Y-77100500D01*
X108229803Y-77061144D01*
X108402730Y-76984151D01*
X108555871Y-76872888D01*
X108682533Y-76732216D01*
X108777179Y-76568284D01*
X108835674Y-76388256D01*
X108855460Y-76200000D01*
X108835674Y-76011744D01*
X108777179Y-75831716D01*
X108682533Y-75667784D01*
X108555871Y-75527112D01*
X108555870Y-75527111D01*
X108402734Y-75415851D01*
X108402729Y-75415848D01*
X108229807Y-75338857D01*
X108229802Y-75338855D01*
X108084001Y-75307865D01*
X108044646Y-75299500D01*
X107855354Y-75299500D01*
X107822897Y-75306398D01*
X107670197Y-75338855D01*
X107670192Y-75338857D01*
X107497270Y-75415848D01*
X107497265Y-75415851D01*
X107344129Y-75527111D01*
X107217466Y-75667785D01*
X107122821Y-75831715D01*
X107122818Y-75831722D01*
X107064327Y-76011740D01*
X107064326Y-76011744D01*
X107044540Y-76200000D01*
X106635110Y-76200000D01*
X106571180Y-76089270D01*
X106444518Y-75948598D01*
X106444517Y-75948597D01*
X106291381Y-75837337D01*
X106291376Y-75837334D01*
X106118454Y-75760343D01*
X106118449Y-75760341D01*
X105972648Y-75729351D01*
X105933293Y-75720986D01*
X105744001Y-75720986D01*
X105711544Y-75727884D01*
X105558844Y-75760341D01*
X105558839Y-75760343D01*
X105385917Y-75837334D01*
X105385912Y-75837337D01*
X105232776Y-75948597D01*
X105106113Y-76089271D01*
X105011468Y-76253201D01*
X105011465Y-76253208D01*
X104967586Y-76388256D01*
X104952973Y-76433230D01*
X104933187Y-76621486D01*
X78765746Y-76621486D01*
X78740723Y-76211838D01*
X78741534Y-76188241D01*
X78905770Y-74930000D01*
X87994540Y-74930000D01*
X88014326Y-75118256D01*
X88014327Y-75118259D01*
X88072818Y-75298277D01*
X88072821Y-75298284D01*
X88167467Y-75462216D01*
X88225899Y-75527111D01*
X88294129Y-75602888D01*
X88447265Y-75714148D01*
X88447270Y-75714151D01*
X88620192Y-75791142D01*
X88620197Y-75791144D01*
X88805354Y-75830500D01*
X88805355Y-75830500D01*
X88994644Y-75830500D01*
X88994646Y-75830500D01*
X89179803Y-75791144D01*
X89352730Y-75714151D01*
X89505871Y-75602888D01*
X89632533Y-75462216D01*
X89652759Y-75427184D01*
X94629849Y-75427184D01*
X94649635Y-75615440D01*
X94649636Y-75615443D01*
X94708127Y-75795461D01*
X94708130Y-75795468D01*
X94802776Y-75959400D01*
X94849907Y-76011744D01*
X94929438Y-76100072D01*
X95082574Y-76211332D01*
X95082579Y-76211335D01*
X95255501Y-76288326D01*
X95255506Y-76288328D01*
X95440663Y-76327684D01*
X95440664Y-76327684D01*
X95629953Y-76327684D01*
X95629955Y-76327684D01*
X95815112Y-76288328D01*
X95988039Y-76211335D01*
X96141180Y-76100072D01*
X96267842Y-75959400D01*
X96362488Y-75795468D01*
X96420983Y-75615440D01*
X96440769Y-75427184D01*
X96420983Y-75238928D01*
X96362488Y-75058900D01*
X96267842Y-74894968D01*
X96141180Y-74754296D01*
X96123904Y-74741744D01*
X95988043Y-74643035D01*
X95988038Y-74643032D01*
X95815116Y-74566041D01*
X95815111Y-74566039D01*
X95669310Y-74535049D01*
X95629955Y-74526684D01*
X95440663Y-74526684D01*
X95408206Y-74533582D01*
X95255506Y-74566039D01*
X95255501Y-74566041D01*
X95082579Y-74643032D01*
X95082574Y-74643035D01*
X94929438Y-74754295D01*
X94802775Y-74894969D01*
X94708130Y-75058899D01*
X94708127Y-75058906D01*
X94665544Y-75189965D01*
X94649635Y-75238928D01*
X94629849Y-75427184D01*
X89652759Y-75427184D01*
X89727179Y-75298284D01*
X89785674Y-75118256D01*
X89805460Y-74930000D01*
X89785674Y-74741744D01*
X89727179Y-74561716D01*
X89632533Y-74397784D01*
X89505871Y-74257112D01*
X89505870Y-74257111D01*
X89352734Y-74145851D01*
X89352729Y-74145848D01*
X89179807Y-74068857D01*
X89179802Y-74068855D01*
X89034000Y-74037865D01*
X88994646Y-74029500D01*
X88805354Y-74029500D01*
X88772897Y-74036398D01*
X88620197Y-74068855D01*
X88620192Y-74068857D01*
X88447270Y-74145848D01*
X88447265Y-74145851D01*
X88294129Y-74257111D01*
X88167466Y-74397785D01*
X88072821Y-74561715D01*
X88072818Y-74561722D01*
X88014327Y-74741740D01*
X88014326Y-74741744D01*
X87994540Y-74930000D01*
X78905770Y-74930000D01*
X79071541Y-73660000D01*
X81644540Y-73660000D01*
X81664326Y-73848256D01*
X81664327Y-73848259D01*
X81722818Y-74028277D01*
X81722821Y-74028284D01*
X81817467Y-74192216D01*
X81875899Y-74257111D01*
X81944129Y-74332888D01*
X82097265Y-74444148D01*
X82097270Y-74444151D01*
X82270192Y-74521142D01*
X82270197Y-74521144D01*
X82455354Y-74560500D01*
X82455355Y-74560500D01*
X82644644Y-74560500D01*
X82644646Y-74560500D01*
X82829803Y-74521144D01*
X83002730Y-74444151D01*
X83155871Y-74332888D01*
X83282533Y-74192216D01*
X83377179Y-74028284D01*
X83435674Y-73848256D01*
X83455460Y-73660000D01*
X83435674Y-73471744D01*
X83377179Y-73291716D01*
X83282533Y-73127784D01*
X83237423Y-73077684D01*
X96293266Y-73077684D01*
X96313052Y-73265940D01*
X96313053Y-73265943D01*
X96371544Y-73445961D01*
X96371547Y-73445968D01*
X96466193Y-73609900D01*
X96592854Y-73750571D01*
X96592855Y-73750572D01*
X96745991Y-73861832D01*
X96745996Y-73861835D01*
X96918918Y-73938826D01*
X96918923Y-73938828D01*
X97104080Y-73978184D01*
X97104081Y-73978184D01*
X97293370Y-73978184D01*
X97293372Y-73978184D01*
X97478529Y-73938828D01*
X97651456Y-73861835D01*
X97804597Y-73750572D01*
X97931259Y-73609900D01*
X98025905Y-73445968D01*
X98084400Y-73265940D01*
X98104186Y-73077684D01*
X98084400Y-72889428D01*
X98025905Y-72709400D01*
X97931259Y-72545468D01*
X97804597Y-72404796D01*
X97728640Y-72349610D01*
X97651460Y-72293535D01*
X97651455Y-72293532D01*
X97478533Y-72216541D01*
X97478528Y-72216539D01*
X97332726Y-72185549D01*
X97293372Y-72177184D01*
X97104080Y-72177184D01*
X97071623Y-72184082D01*
X96918923Y-72216539D01*
X96918918Y-72216541D01*
X96745996Y-72293532D01*
X96745991Y-72293535D01*
X96592855Y-72404795D01*
X96466192Y-72545469D01*
X96371547Y-72709399D01*
X96371544Y-72709406D01*
X96342480Y-72798857D01*
X96313052Y-72889428D01*
X96293266Y-73077684D01*
X83237423Y-73077684D01*
X83155871Y-72987112D01*
X83155870Y-72987111D01*
X83002734Y-72875851D01*
X83002729Y-72875848D01*
X82829807Y-72798857D01*
X82829802Y-72798855D01*
X82684001Y-72767865D01*
X82644646Y-72759500D01*
X82455354Y-72759500D01*
X82422897Y-72766398D01*
X82270197Y-72798855D01*
X82270192Y-72798857D01*
X82097270Y-72875848D01*
X82097265Y-72875851D01*
X81944129Y-72987111D01*
X81817466Y-73127785D01*
X81722821Y-73291715D01*
X81722818Y-73291722D01*
X81672703Y-73445961D01*
X81664326Y-73471744D01*
X81644540Y-73660000D01*
X79071541Y-73660000D01*
X79403083Y-71120000D01*
X91804540Y-71120000D01*
X91824326Y-71308256D01*
X91824327Y-71308259D01*
X91882818Y-71488277D01*
X91882821Y-71488284D01*
X91977467Y-71652216D01*
X92104128Y-71792887D01*
X92104129Y-71792888D01*
X92257265Y-71904148D01*
X92257270Y-71904151D01*
X92430192Y-71981142D01*
X92430197Y-71981144D01*
X92615354Y-72020500D01*
X92615355Y-72020500D01*
X92804644Y-72020500D01*
X92804646Y-72020500D01*
X92989803Y-71981144D01*
X93162730Y-71904151D01*
X93282141Y-71817394D01*
X100727585Y-71817394D01*
X100747371Y-72005650D01*
X100747372Y-72005653D01*
X100805863Y-72185671D01*
X100805866Y-72185678D01*
X100900512Y-72349610D01*
X100950201Y-72404795D01*
X101027174Y-72490282D01*
X101180310Y-72601542D01*
X101180315Y-72601545D01*
X101353237Y-72678536D01*
X101353242Y-72678538D01*
X101538399Y-72717894D01*
X101538400Y-72717894D01*
X101727689Y-72717894D01*
X101727691Y-72717894D01*
X101912848Y-72678538D01*
X102085775Y-72601545D01*
X102238916Y-72490282D01*
X102365578Y-72349610D01*
X102460224Y-72185678D01*
X102518719Y-72005650D01*
X102538505Y-71817394D01*
X102518719Y-71629138D01*
X102460224Y-71449110D01*
X102365578Y-71285178D01*
X102238916Y-71144506D01*
X102238915Y-71144505D01*
X102085779Y-71033245D01*
X102085774Y-71033242D01*
X101912852Y-70956251D01*
X101912847Y-70956249D01*
X101767045Y-70925259D01*
X101727691Y-70916894D01*
X101538399Y-70916894D01*
X101505942Y-70923792D01*
X101353242Y-70956249D01*
X101353237Y-70956251D01*
X101180315Y-71033242D01*
X101180310Y-71033245D01*
X101027174Y-71144505D01*
X100900511Y-71285179D01*
X100805866Y-71449109D01*
X100805863Y-71449116D01*
X100747372Y-71629134D01*
X100747371Y-71629138D01*
X100727585Y-71817394D01*
X93282141Y-71817394D01*
X93315871Y-71792888D01*
X93442533Y-71652216D01*
X93537179Y-71488284D01*
X93595674Y-71308256D01*
X93615460Y-71120000D01*
X93595674Y-70931744D01*
X93537179Y-70751716D01*
X93442533Y-70587784D01*
X93315871Y-70447112D01*
X93315870Y-70447111D01*
X93162734Y-70335851D01*
X93162729Y-70335848D01*
X92989807Y-70258857D01*
X92989802Y-70258855D01*
X92844000Y-70227865D01*
X92804646Y-70219500D01*
X92615354Y-70219500D01*
X92582897Y-70226398D01*
X92430197Y-70258855D01*
X92430192Y-70258857D01*
X92257270Y-70335848D01*
X92257265Y-70335851D01*
X92104129Y-70447111D01*
X91977466Y-70587785D01*
X91882821Y-70751715D01*
X91882818Y-70751722D01*
X91829151Y-70916894D01*
X91824326Y-70931744D01*
X91804540Y-71120000D01*
X79403083Y-71120000D01*
X79526864Y-70171697D01*
X79535124Y-70140626D01*
X79879517Y-69302387D01*
X80030827Y-68934103D01*
X89118732Y-68934103D01*
X89138518Y-69122359D01*
X89138519Y-69122362D01*
X89197010Y-69302380D01*
X89197013Y-69302387D01*
X89291659Y-69466319D01*
X89418320Y-69606991D01*
X89418321Y-69606991D01*
X89571457Y-69718251D01*
X89571462Y-69718254D01*
X89744384Y-69795245D01*
X89744389Y-69795247D01*
X89929546Y-69834603D01*
X89929547Y-69834603D01*
X90118836Y-69834603D01*
X90118838Y-69834603D01*
X90303995Y-69795247D01*
X90476922Y-69718254D01*
X90630063Y-69606991D01*
X90756725Y-69466319D01*
X90851371Y-69302387D01*
X90909866Y-69122359D01*
X90929652Y-68934103D01*
X90909866Y-68745847D01*
X90851371Y-68565819D01*
X90756725Y-68401887D01*
X90630063Y-68261215D01*
X90619085Y-68253239D01*
X90476926Y-68149954D01*
X90476921Y-68149951D01*
X90303999Y-68072960D01*
X90303994Y-68072958D01*
X90158192Y-68041968D01*
X90118838Y-68033603D01*
X89929546Y-68033603D01*
X89897089Y-68040501D01*
X89744389Y-68072958D01*
X89744384Y-68072960D01*
X89571462Y-68149951D01*
X89571457Y-68149954D01*
X89418321Y-68261214D01*
X89291658Y-68401888D01*
X89197013Y-68565818D01*
X89197010Y-68565825D01*
X89138519Y-68745843D01*
X89138518Y-68745847D01*
X89118732Y-68934103D01*
X80030827Y-68934103D01*
X81375865Y-65660328D01*
X81387848Y-65637987D01*
X81554122Y-65392191D01*
X83023237Y-65392191D01*
X83043023Y-65580447D01*
X83043024Y-65580450D01*
X83101515Y-65760468D01*
X83101518Y-65760475D01*
X83196164Y-65924407D01*
X83300244Y-66039999D01*
X83322826Y-66065079D01*
X83475962Y-66176339D01*
X83475967Y-66176342D01*
X83648889Y-66253333D01*
X83648894Y-66253335D01*
X83834051Y-66292691D01*
X83834052Y-66292691D01*
X84023341Y-66292691D01*
X84023343Y-66292691D01*
X84208500Y-66253335D01*
X84381427Y-66176342D01*
X84534568Y-66065079D01*
X84557149Y-66040000D01*
X103234540Y-66040000D01*
X103254326Y-66228256D01*
X103254327Y-66228259D01*
X103312818Y-66408277D01*
X103312821Y-66408284D01*
X103407467Y-66572216D01*
X103534128Y-66712887D01*
X103534129Y-66712888D01*
X103687265Y-66824148D01*
X103687270Y-66824151D01*
X103860192Y-66901142D01*
X103860197Y-66901144D01*
X104045354Y-66940500D01*
X104045355Y-66940500D01*
X104234644Y-66940500D01*
X104234646Y-66940500D01*
X104419803Y-66901144D01*
X104592730Y-66824151D01*
X104745871Y-66712888D01*
X104872533Y-66572216D01*
X104967179Y-66408284D01*
X105025674Y-66228256D01*
X105045460Y-66040000D01*
X105025674Y-65851744D01*
X104967179Y-65671716D01*
X104872533Y-65507784D01*
X104745871Y-65367112D01*
X104745870Y-65367111D01*
X104592734Y-65255851D01*
X104592729Y-65255848D01*
X104419807Y-65178857D01*
X104419802Y-65178855D01*
X104274000Y-65147865D01*
X104234646Y-65139500D01*
X104045354Y-65139500D01*
X104012897Y-65146398D01*
X103860197Y-65178855D01*
X103860192Y-65178857D01*
X103687270Y-65255848D01*
X103687265Y-65255851D01*
X103534129Y-65367111D01*
X103407466Y-65507785D01*
X103312821Y-65671715D01*
X103312818Y-65671722D01*
X103283981Y-65760475D01*
X103254326Y-65851744D01*
X103234540Y-66040000D01*
X84557149Y-66040000D01*
X84661230Y-65924407D01*
X84755876Y-65760475D01*
X84814371Y-65580447D01*
X84834157Y-65392191D01*
X84814371Y-65203935D01*
X84755876Y-65023907D01*
X84661230Y-64859975D01*
X84580216Y-64770000D01*
X110854540Y-64770000D01*
X110874326Y-64958256D01*
X110874327Y-64958259D01*
X110932818Y-65138277D01*
X110932821Y-65138284D01*
X111027467Y-65302216D01*
X111085899Y-65367111D01*
X111154129Y-65442888D01*
X111307265Y-65554148D01*
X111307270Y-65554151D01*
X111480192Y-65631142D01*
X111480197Y-65631144D01*
X111665354Y-65670500D01*
X111665355Y-65670500D01*
X111854644Y-65670500D01*
X111854646Y-65670500D01*
X112039803Y-65631144D01*
X112212730Y-65554151D01*
X112365871Y-65442888D01*
X112492533Y-65302216D01*
X112587179Y-65138284D01*
X112645674Y-64958256D01*
X112665460Y-64770000D01*
X112645674Y-64581744D01*
X112587179Y-64401716D01*
X112492533Y-64237784D01*
X112365871Y-64097112D01*
X112365870Y-64097111D01*
X112212734Y-63985851D01*
X112212729Y-63985848D01*
X112039807Y-63908857D01*
X112039802Y-63908855D01*
X111894001Y-63877865D01*
X111854646Y-63869500D01*
X111665354Y-63869500D01*
X111632897Y-63876398D01*
X111480197Y-63908855D01*
X111480192Y-63908857D01*
X111307270Y-63985848D01*
X111307265Y-63985851D01*
X111154129Y-64097111D01*
X111027466Y-64237785D01*
X110932821Y-64401715D01*
X110932818Y-64401722D01*
X110890798Y-64531048D01*
X110874326Y-64581744D01*
X110854540Y-64770000D01*
X84580216Y-64770000D01*
X84534568Y-64719303D01*
X84534567Y-64719302D01*
X84381431Y-64608042D01*
X84381426Y-64608039D01*
X84208504Y-64531048D01*
X84208499Y-64531046D01*
X84062697Y-64500056D01*
X84023343Y-64491691D01*
X83834051Y-64491691D01*
X83801594Y-64498589D01*
X83648894Y-64531046D01*
X83648889Y-64531048D01*
X83475967Y-64608039D01*
X83475962Y-64608042D01*
X83322826Y-64719302D01*
X83196163Y-64859976D01*
X83101518Y-65023906D01*
X83101515Y-65023913D01*
X83051171Y-65178857D01*
X83043023Y-65203935D01*
X83023237Y-65392191D01*
X81554122Y-65392191D01*
X84586273Y-60909880D01*
X84606797Y-60886505D01*
X88531992Y-57412882D01*
X88556261Y-57396095D01*
X89912500Y-56680001D01*
X99019500Y-56680001D01*
X99019501Y-56680018D01*
X99030000Y-56782796D01*
X99030001Y-56782799D01*
X99064031Y-56885494D01*
X99085186Y-56949334D01*
X99177288Y-57098656D01*
X99301344Y-57222712D01*
X99450666Y-57314814D01*
X99617203Y-57369999D01*
X99719991Y-57380500D01*
X101020008Y-57380499D01*
X101122797Y-57369999D01*
X101289334Y-57314814D01*
X101438656Y-57222712D01*
X101562712Y-57098656D01*
X101654814Y-56949334D01*
X101654814Y-56949333D01*
X101658448Y-56943442D01*
X101710396Y-56896717D01*
X101779358Y-56885494D01*
X101843441Y-56913337D01*
X101851668Y-56920856D01*
X101998921Y-57068108D01*
X102192421Y-57203600D01*
X102406507Y-57303429D01*
X102406516Y-57303433D01*
X102620000Y-57360634D01*
X102620000Y-56492301D01*
X102639685Y-56425262D01*
X102692489Y-56379507D01*
X102761647Y-56369563D01*
X102834237Y-56380000D01*
X102834238Y-56380000D01*
X102905762Y-56380000D01*
X102905763Y-56380000D01*
X102978353Y-56369563D01*
X103047512Y-56379507D01*
X103100315Y-56425262D01*
X103120000Y-56492301D01*
X103120000Y-57360633D01*
X103333483Y-57303433D01*
X103333492Y-57303429D01*
X103547577Y-57203600D01*
X103547579Y-57203599D01*
X103741073Y-57068113D01*
X103741079Y-57068108D01*
X103908108Y-56901079D01*
X103908113Y-56901073D01*
X104043599Y-56707579D01*
X104043600Y-56707577D01*
X104143429Y-56493492D01*
X104143433Y-56493483D01*
X104204567Y-56265326D01*
X104204569Y-56265315D01*
X104216407Y-56130000D01*
X103483347Y-56130000D01*
X103416308Y-56110315D01*
X103370553Y-56057511D01*
X103360609Y-55988353D01*
X103364369Y-55971067D01*
X103370000Y-55951888D01*
X103370000Y-55808111D01*
X103364369Y-55788933D01*
X103364370Y-55719064D01*
X103402145Y-55660286D01*
X103465701Y-55631262D01*
X103483347Y-55630000D01*
X104216407Y-55630000D01*
X104216407Y-55629999D01*
X104204569Y-55494684D01*
X104204567Y-55494673D01*
X104143433Y-55266516D01*
X104143429Y-55266507D01*
X104043600Y-55052422D01*
X104043599Y-55052420D01*
X103908113Y-54858926D01*
X103908108Y-54858920D01*
X103741082Y-54691894D01*
X103547578Y-54556399D01*
X103333492Y-54456570D01*
X103333486Y-54456567D01*
X103120000Y-54399364D01*
X103120000Y-55267698D01*
X103100315Y-55334737D01*
X103047511Y-55380492D01*
X102978355Y-55390436D01*
X102905766Y-55380000D01*
X102905763Y-55380000D01*
X102834237Y-55380000D01*
X102834233Y-55380000D01*
X102761645Y-55390436D01*
X102692487Y-55380492D01*
X102639684Y-55334736D01*
X102620000Y-55267698D01*
X102620000Y-54399364D01*
X102619999Y-54399364D01*
X102406513Y-54456567D01*
X102406507Y-54456570D01*
X102192422Y-54556399D01*
X102192420Y-54556400D01*
X101998926Y-54691886D01*
X101851668Y-54839144D01*
X101790345Y-54872628D01*
X101720653Y-54867644D01*
X101664720Y-54825772D01*
X101658448Y-54816558D01*
X101562712Y-54661344D01*
X101438657Y-54537289D01*
X101438656Y-54537289D01*
X101438656Y-54537288D01*
X101289334Y-54445186D01*
X101122797Y-54390001D01*
X101122795Y-54390000D01*
X101020010Y-54379500D01*
X99719998Y-54379500D01*
X99719981Y-54379501D01*
X99617203Y-54390000D01*
X99617200Y-54390001D01*
X99450668Y-54445185D01*
X99450663Y-54445187D01*
X99301342Y-54537289D01*
X99177289Y-54661342D01*
X99085187Y-54810663D01*
X99085185Y-54810668D01*
X99080180Y-54825772D01*
X99030001Y-54977203D01*
X99030001Y-54977204D01*
X99030000Y-54977204D01*
X99019500Y-55079983D01*
X99019500Y-56680001D01*
X89912500Y-56680001D01*
X92901579Y-55101767D01*
X92919953Y-55093889D01*
X96949185Y-53739233D01*
X96978180Y-53733216D01*
X101588162Y-53341007D01*
X101611816Y-53341260D01*
G37*
%TD.AperFunction*%
%TD*%
M02*
